<?xml version="1.0" encoding="utf-8"?>
<!-- Generator: Adobe Illustrator 16.0.0, SVG Export Plug-In . SVG Version: 6.00 Build 0)  -->
<!DOCTYPE svg PUBLIC "-//W3C//DTD SVG 1.1//EN" "http://www.w3.org/Graphics/SVG/1.1/DTD/svg11.dtd">
<svg version="1.1" id="Layer_1" xmlns="http://www.w3.org/2000/svg" xmlns:xlink="http://www.w3.org/1999/xlink" x="0px" y="0px"
	 width="202.333px" height="203.666px" viewBox="0 0 202.333 203.666" enable-background="new 0 0 202.333 203.666"
	 xml:space="preserve">
<rect x="-8.812" y="-44.97" display="none" fill-rule="evenodd" clip-rule="evenodd" fill="#224090" width="792" height="612"/>
<g id="Layer_2">
	<ellipse fill-rule="evenodd" clip-rule="evenodd" fill="#224090" cx="101.167" cy="101.833" rx="101.167" ry="101.833"/>
</g>
<path fill-rule="evenodd" clip-rule="evenodd" fill="#543935" d="M131.828,85.646l0.059,0.788c0.51,6.213,0.904,15.082,1.152,26.634
	c0.102,4.726-0.117,10.182-0.656,16.425c-0.161,2.013-0.248,3.048-0.248,3.136c1.298,0.117,4.871,0.933,10.705,2.407
	c1.415,0.364,2.684,0.729,3.778,1.108c0.014-0.117,0.16-1.181,0.496-3.18c0.889-5.79,1.458-12.209,1.677-19.21l0.029-0.817
	l0.117-0.685l-0.219-15.112c-0.19-0.117-1.867-1.327-5.047-3.676c-2.027-1.517-4.856-3.398-8.488-5.659
	c-0.642-0.38-1.313-0.817-1.984-1.269C132.31,85.952,131.858,85.646,131.828,85.646z M118.422,86.607V86.14l-0.073-0.788
	c-0.014-0.131-0.073-1.429-0.16-3.909c-0.146-3.836-0.7-8.227-1.706-13.186l-0.161-0.773c0-0.015-0.175-0.204-0.54-0.54
	c-0.218-0.204-1.123-1.138-2.712-2.771c-1.663-1.707-3.705-3.72-6.155-5.995l-0.525-0.555c-0.234-0.218-0.832-0.758-1.751-1.546
	l-0.597-0.496l-0.584-0.539c-0.89-0.832-1.444-1.342-1.736-1.547c-0.014,0.044,0.365,2.728,1.065,8.067
	c2.29,16.92,3.588,33.972,3.909,51.14c0.146,7.541,0,13.317-0.408,17.372c0.073,0.03,0.145,0.044,0.262,0.044l1.502,0.029
	c0.19,0,0.35-0.014,0.482-0.043c0.16-0.788,0.248-14.251,0.058-18.058c0.015-0.059-0.015-1.386-0.058-3.939
	c-0.073-2.742-0.19-5.645-0.365-8.693c-0.306-5.266-0.51-8.154-0.598-8.65l-0.102-0.744l0.015-0.729L118.422,86.607z M73.724,92.146
	c0.379,3.223,0.933,16.132,0.919,26.736c-0.015,3.924-0.088,7.994-0.248,12.18c-0.044,1.109-0.059,1.678-0.044,1.692
	c0.029,0.029,0.044,0.059,0.044,0.088l2.363-0.423l0.029-2.232l0.044-0.846c0.291-6.593,0.247-20.538-0.015-26.62
	c-0.219-5.12-0.379-8.052-0.496-8.796l-0.117-0.758V92.7L73.724,92.146z M82.929,75.75l-0.442-5.734l-3.421,2.156l0.364,5.478
	L82.929,75.75z M86.715,67.539l0.599,5.739l3.668-1.926l-0.7-5.982L86.715,67.539z M94.773,63.008l3.691-1.965l0.627,6.181
	l-3.732,1.756L94.773,63.008z M80.22,85.359l3.443-1.639l0.425,5.173l-3.546,1.546L80.22,85.359z M88.161,81.653l3.585-1.663
	l0.465,5.558l-3.662,1.548L88.161,81.653z M96.154,77.951l3.714-1.663l0.413,6.062l-3.546,1.392L96.154,77.951z M100.898,90.986
	l0.4,6.087l-3.739,0.915l-0.285-5.764L100.898,90.986z M92.955,99.23l-0.232-5.57l-3.778,1.378l0.167,5.29L92.955,99.23z
	 M84.639,101.636l-0.154-5.288l-3.637,1.289l0.179,5.03L84.639,101.636z M81.131,109.679l3.539-0.729l0.168,4.878l-3.577,0.665
	L81.131,109.679z M89.617,112.903l3.565-0.636l-0.08-5.294l-3.641,0.817L89.617,112.903z M101.737,110.931l-0.156-5.7l-3.707,0.717
	l0.116,5.515L101.737,110.931z M84.645,120.394l0.026,4.929l-3.538,0.234l0.104-4.655L84.645,120.394z M89.609,119.81l0.051,5.06
	l3.591-0.235l0.079-5.281L89.609,119.81z M98.077,124.338l3.745-0.144l-0.05-5.425l-3.747,0.287L98.077,124.338z M62.39,101.003
	l2.913-1.275l0.157,4.213l-2.784,1.149L62.39,101.003z M68.153,102.896l2.94-1.108l-0.234-4.253l-2.914,1.17L68.153,102.896z
	 M62.913,110.198l2.915-1.16v4.136l-2.915,0.875V110.198z M68.401,108.131l2.732-0.952l0.118,4.433l-2.798,0.745L68.401,108.131z
	 M62.835,118.526l2.928-0.782v3.851l-3.044,0.573L62.835,118.526z M68.504,121.033l-0.052-3.9l2.836-0.614l0.078,4.046
	L68.504,121.033z M62.47,130.246l2.888-0.235l0.208-3.793l-2.862,0.358L62.47,130.246z M68.013,129.705l3.045-0.26l0.077-3.861
	l-2.888,0.426L68.013,129.705z M114.027,125.927l3.852,0.053l0.156-5.413l-3.747,0.113L114.027,125.927z M123.41,126l3.824,0.089
	l0.078-5.567l-3.902,0.051V126z M123.679,112.426l3.772-0.093l0.026-5.904l-3.825,0.284L123.679,112.426z M118.014,112.818v-5.58
	l-3.851,0.299l-0.078,5.489L118.014,112.818z M123.231,98.354l3.866-0.472l-0.418-6.112l-3.798,0.703L123.231,98.354z
	 M117.868,99.186l-0.336-5.752l-3.993,0.806l0.39,5.466L117.868,99.186z"/>
<path fill-rule="evenodd" clip-rule="evenodd" fill="#946B4C" d="M130.773,85.296l-22.125,4.755l-0.103-0.029
	c0.073,0.437,0.89,10.195,1.051,18.174c0.087,4.216,0.145,6.856,0.175,7.906c0.058,1.036-0.059,4.434-0.292,10.211
	c-0.088,2.406-0.146,3.719-0.146,3.923c6.038,0.015,18.042,1.313,20.842,1.999l0.744,0.189h0.321l0.496-8.956l0.189-10.517
	c0.131-7.905-0.146-15.928-0.86-24.096l-0.059-0.803l-0.058-0.787c-0.029-0.175-0.058-0.438-0.073-0.803l-0.102-0.743V85.296z
	 M100.424,52.99c-0.204-0.029-2.858,1.692-8.007,5.178c-6.067,4.085-10.953,7.571-14.716,10.444
	c-1.517,1.153-2.348,1.78-2.523,1.911c0.058,0.161,3.033,24.753,3.004,46.837c0,5.063-0.058,8.986-0.189,11.757
	c0,0.044-0.03,1.065-0.102,3.136c4.638-0.773,9.144-1.327,13.462-1.692c3.456-0.277,7.978-0.452,13.607-0.511
	c0-0.102,0.044-1.196,0.175-3.252c0.263-4.799,0.394-8.519,0.409-11.144c0.029-14.543-0.977-30.223-3.005-47.056
	C101.285,58.212,100.57,53.034,100.424,52.99z M59.759,135.999h0.218l0.773-0.189c4.492-1.124,8.197-1.955,11.114-2.48l0.802-0.161
	c0.161-0.014,0.35-0.145,0.569-0.393c0.89-12.589-0.175-36.875-0.569-40.303c-0.029,0-0.058-0.014-0.073-0.044
	c-4.725,2.232-8.882,4.347-12.484,6.316c0.306,2.305,0.423,15.929,0.233,22.113c-0.219,6.696-0.336,10.415-0.379,11.159
	C59.831,134.205,59.759,135.532,59.759,135.999z M67.902,122.001l-0.074-5.573l4.051-0.875l0.112,5.779L67.902,122.001z
	 M71.693,130.217l-4.348,0.373l0.334-5.28l4.126-0.608L71.693,130.217z M71.862,112.4l-3.997,1.066l-0.074-6.039l3.902-1.358
	L71.862,112.4z M71.433,96.386l0.334,6.077l-4.2,1.581l-0.297-5.985L71.433,96.386z M66.452,113.872l-4.163,1.251v-5.503
	l4.163-1.655V113.872z M66.415,122.299l-4.348,0.817l0.165-5.199l4.183-1.12V122.299z M65.932,130.774l-4.126,0.335l0.335-5.242
	l4.089-0.513L65.932,130.774z M65.895,98.579l0.223,6.019l-3.977,1.64l-0.409-5.837L65.895,98.579z M128.26,113.578l-5.39,0.132
	l-0.037-8.161l5.464-0.406L128.26,113.578z M128.036,127.283l-5.463-0.127v-7.754l5.576-0.074L128.036,127.283z M121.978,91.364
	l5.426-1.003l0.595,8.732l-5.521,0.673L121.978,91.364z M118.67,127.138l-5.501-0.074l0.372-7.496l5.351-0.161L118.67,127.138z
	 M118.855,105.999v7.971l-5.611,0.298l0.111-7.844L118.855,105.999z M118.316,92.092l0.479,8.215l-5.626,0.744l-0.558-7.807
	L118.316,92.092z M97.286,125.532l-0.074-7.546l5.351-0.409l0.072,7.749L97.286,125.532z M102.341,103.896l0.222,8.142l-5.351,0.759
	l-0.166-7.877L102.341,103.896z M96.412,91.253l5.177-1.767l0.57,8.695l-5.342,1.308L96.412,91.253z M95.27,77.066l5.304-2.376
	l0.591,8.66l-5.067,1.989L95.27,77.066z M93.848,62.148l5.273-2.805l0.895,8.827l-5.331,2.51L93.848,62.148z M94.014,125.718
	l-5.129,0.335l-0.073-7.228l5.315-0.652L94.014,125.718z M93.867,105.702l0.111,7.562l-5.093,0.908l-0.222-7.303L93.867,105.702z
	 M88.085,94.202l5.397-1.972l0.333,7.959l-5.49,1.568L88.085,94.202z M87.294,80.844l5.12-2.378l0.664,7.942l-5.231,2.211
	L87.294,80.844z M86.656,74.974l-0.855-8.2l5.093-3.099l1.003,8.547L86.656,74.974z M80.523,115.68l-0.185-6.877l5.054-1.041
	l0.24,6.969L80.523,115.68z M80.375,126.665l0.148-6.652l4.869-0.726l0.037,7.043L80.375,126.665z M80.036,96.836l5.194-1.842
	l0.221,7.554l-5.158,1.474L80.036,96.836z M79.39,84.621l4.918-2.341l0.608,7.39l-5.065,2.211L79.39,84.621z M78.758,79.286
	l-0.521-7.826l4.888-3.08l0.631,8.192L78.758,79.286z"/>
<path fill-rule="evenodd" clip-rule="evenodd" fill="#FFFFFB" d="M188.441,103.915v-0.102c0-0.087-11.683-11.669-35.019-34.686
	c-15.343-15.126-24.984-24.651-28.922-28.648c-0.058-0.058-3.777-3.72-11.128-10.984c-6.986-6.899-10.516-10.385-10.574-10.443
	c-0.686,0.641-2.057,2.158-4.128,4.594c-0.773,0.89-4.215,4.755-10.341,11.567c-0.67,0.773-1.356,1.546-2.027,2.349
	C83.866,40.406,75.13,50.238,60.035,67.07c-2.042,2.305-3.749,4.245-5.105,5.835c-1.823,2.144-3.734,4.274-5.674,6.359l-0.554,0.569
	c-1.211,1.328-2.932,3.253-5.119,5.791c-0.205,0.233-0.905,0.992-2.115,2.276c-0.175,0.175-0.686,0.758-1.517,1.75
	c-0.336,0.394-1.882,2.1-4.696,5.149c-0.905,0.992-1.619,1.75-2.072,2.319c-0.7,0.817-1.21,1.371-1.546,1.736l-0.525,0.583
	c-0.904,0.963-1.939,2.101-3.106,3.443c-0.336,0.394-0.686,0.788-1.036,1.167c-2.071,2.217-3.106,3.369-3.106,3.457l-0.015,0.146
	c8.561,8.824,13.579,13.915,15.037,15.33c0.452,0.423,0.817,0.788,1.094,1.123c0.408,0.467,0.963,0.992,1.692,1.634
	c0.613,0.525,4.507,4.492,11.683,11.917l5.163-1.327c0.087-0.015,0.277-3.603,0.568-10.721c0.044-1.517,0.117-3.151,0.161-4.887
	l0.015-0.802l0.116-0.729c0.131-0.715,0.073-7.688-0.175-20.888c1.269-0.759,3.296-1.882,6.038-3.399l0.03-1.298
	c0.32-0.175,1.239-0.657,2.727-1.503c0.744-0.408,2.611-1.385,5.601-2.917c1.137-0.598,1.837-0.963,2.085-1.094
	c-0.029-0.116-0.204-2.232-0.496-6.33c-0.058-0.7-0.204-2.013-0.423-3.953c-0.452-3.924-0.685-6.55-0.714-7.892
	c1.677-1.239,2.756-2.071,3.296-2.465c2.027-1.575,3.092-2.406,3.267-2.479c-0.015-0.117-0.029-0.248-0.044-0.365
	c0-0.131-0.029-0.248-0.044-0.365l-0.014-0.364l-0.102-0.73c0.7-0.466,2.786-2.071,6.213-4.842
	c6.345-5.062,18.406-13.507,19.675-14.339c1.327,1.153,4.697,4.449,10.122,9.919c0.657,0.656,2.436,2.582,5.397,5.732l0.51,0.584
	c0.423,0.423,2.144,19.735,2.173,21.194c1.853-0.452,5.047-1.065,9.583-1.852c1.035-0.161,1.56-0.263,1.604-0.278l0.744-0.175
	c0.292-0.073,3.398,2.028,9.334,6.243c0.832,0.598,2.101,1.547,3.763,2.859c3.151,2.436,4.799,3.749,4.974,3.895
	c0.35,4.959,0.525,9.598,0.525,13.959v0.817l0.116,0.715c0.03,0.291-0.393,13.069-1.108,18.977
	c-0.613,5.017-1.254,8.927-1.94,11.727c0.365,0.204,0.642,0.292,0.773,0.248c0.117-0.044,1.415-1.342,3.909-3.865
	c2.29-2.32,7.57-7.469,15.81-15.462C182.767,109.356,188.076,104.251,188.441,103.915z M27.85,156.876
	c0.058,0.004,1.68-0.631,4.896-1.918c5.562-2.238,12.695-4.792,21.368-7.651c1.481-0.484,16.799-4.952,28.71-5.982
	c6.147-0.531,12.502-0.683,19.069-0.513c4.377,0.123,8.943,0.478,13.714,1.052c6.453,0.761,10.085,1.316,10.852,1.646l0.662,0.147
	c1.005,0.054,3.907,0.808,8.72,2.261c3.307,1.015,6.301,2.141,8.996,3.348c3.743,1.702,6.516,3.28,8.289,4.717l-0.007,0.102
	c-0.029-0.002-0.057-0.019-0.1-0.036c-0.084-0.05-7.112-3.321-10.949-4.504c-8.187-2.576-25.291-6.227-42.6-4.936
	c-15.81,1.188-31.425,4.861-46.813,10.99c-10.639,4.246-19.414,8.37-26.326,12.402l-0.007,0.102
	c0.044,0.003,1.657-0.706,4.852-2.111c2.968-1.304,7.253-3.044,12.855-5.22c7.297-2.822,12.36-4.611,15.176-5.399
	c10.664-2.884,20.21-4.807,28.693-5.734c26.628-2.893,46.036,4.498,49.255,5.741c5.968,2.307,10.479,4.749,13.531,7.384
	c-0.059-0.004-0.752-0.343-2.079-1.033c-11.923-6.091-27.657-8.816-47.204-8.16c-11.238,0.374-28.921,3.935-44.65,10.787
	c-10.304,4.473-17.861,8.315-22.654,11.512l-0.01,0.145c0.028,0.017,0.041,0.032,0.039,0.062c0.182-0.09,0.593-0.326,1.249-0.734
	c1.77-1.093,10.951-5.599,13.045-6.509c9.643-4.211,21.954-8.957,41.018-10.683c25.641-2.346,46.872,5.519,52.321,9.868
	c-0.145-0.025-0.87-0.323-2.162-0.879c-4.302-1.872-6.257-2.576-11.906-3.779c-3.991-0.857-7.857-1.399-11.573-1.579
	c-5.301-0.288-9.743-0.328-13.322-0.148c-2.64,0.127-4.359,0.259-5.171,0.364l-0.693,0.099l-0.376-0.069
	c0.015,0.001,0.03-0.013,0.046-0.026c-0.045,0.011-0.073-0.005-0.101-0.022c-0.135,0.049-2.083,0.326-5.818,0.861
	c-8.043,1.104-15.834,3.233-23.372,6.375c-9.072,3.767-17.789,8.553-21.303,11.209l-0.007,0.101
	c0.116,0.008,1.007-0.413,2.675-1.294c6.487-3.374,13.95-6.271,22.431-8.661c8.526-2.401,18.176-3.717,28.953-3.962
	c2.253-0.037,5.913,0.11,10.963,0.44c0.767,0.05,1.529,0.159,2.296,0.2c2.083,0.113,11.315,1.722,17.954,5.113
	c4.93,2.529,8.677,5.256,11.227,8.164c1.642,1.866,2.675,3.223,3.127,4.087c0.145,0.025,8.488-7.199,25.059-21.684
	c2.332-2.049,3.622-3.174,3.855-3.392c-1.806-2.024-8.688-8.078-17.83-12.722c-3.066-1.569-5.76-2.79-8.053-3.678
	c-0.428-0.16-0.656-0.249-0.698-0.267c-0.483-0.208-0.854-0.336-1.085-0.381c-0.375-0.084-0.631-0.189-0.752-0.343l-0.207,0.044
	l-0.614-0.217c-2.815-0.952-21.047-6.07-35.466-6c-18.997,0.109-35.583,2.589-49.729,7.444c-10.718,3.685-18.872,6.857-24.492,9.515
	C30.208,155.516,27.62,156.817,27.85,156.876z"/>
</svg>
