<?xml version="1.0" encoding="utf-8"?>
<!-- Generator: Adobe Illustrator 16.0.0, SVG Export Plug-In . SVG Version: 6.00 Build 0)  -->
<!DOCTYPE svg PUBLIC "-//W3C//DTD SVG 1.1//EN" "http://www.w3.org/Graphics/SVG/1.1/DTD/svg11.dtd">
<svg version="1.1" id="Layer_1" xmlns="http://www.w3.org/2000/svg" xmlns:xlink="http://www.w3.org/1999/xlink" x="0px" y="0px"
	 width="727.865px" height="165.561px" viewBox="32.661 64.022 727.865 165.561"
	 enable-background="new 32.661 64.022 727.865 165.561" xml:space="preserve">
<rect display="none" fill="#224090" width="792" height="612"/>
<path fill="#FFFFFF" d="M501.169,160.309c-0.415-0.154-1.445-0.492-2.052-0.177c-1.891,0.999-3.242,2.919-4.817,5.14
	c-2.696,3.826-6.385,9.065-14.33,9.027c-22.612-0.108-30.665-21.419-30.665-41.325c0-21.687,11.249-27.68,17.987-29.331
	c9.843-2.343,19.032,2.32,24.572,12.438c0.768,1.39,1.045,2.742,1.045,4.01c0,1.974-0.669,3.764-1.222,5.216
	c-0.554,1.46-1.046,2.758-1.046,4.256c0,1.406,0.454,2.997,1.668,5.032c1.268,1.007,6.063,2.321,8.375,1.468l1.138-0.4
	c2.22-0.745,3.972-1.336,5.063-15.526c0.685-8.781-1.904-16.394-7.652-22.61c-9.373-10.125-24.311-13.897-31.533-13.897
	c-24.756,0-44.887,28.748-44.887,64.08c0,25.959,14.476,64.371,45.556,64.371c13.684,0,24.871-7.114,28.713-11.608
	c3.757-4.379,10.119-13.859,10.119-21.542c0-9.057-1.467-13.152-2.243-15.334C504.626,162.713,503.043,161.039,501.169,160.309z
	 M292.7,197.799c0,0-0.815-2.527-0.815-2.543c-1.36-4.678-8.121-41.224-8.121-71.37c0-4.471,0.146-8.796,0.476-12.86
	c0.43-5.171,0.622-9.404,0.622-12.869c0-9.426-1.352-13.144-2.697-14.519c-1.229-1.23-3.634-1.138-7.468-0.884l-1.782,0.108
	l-0.193,0.023l-2.689-0.185c-4.748-0.361-7.768-0.445-9.62,1.437c-1.713,1.728-3.488,5.969-3.488,16.118
	c0,2.981,0.154,6.461,0.507,10.548c0.354,4.102,0.5,8.497,0.5,13.022c0,30.1-6.785,66.545-8.153,71.232l-0.814,2.52
	c-0.538,1.582-0.999,2.934-0.999,4.018c0,0-0.008,1.283-0.008,1.475c0,3.795,0.314,5.631,2.498,6.752
	c1.506,0.661,10.173,1.975,20.736,2.021c10.728-0.046,18.618-1.175,19.939-1.767c2.251-1.152,2.574-2.988,2.574-6.776
	c0-0.192-0.008-1.467-0.008-1.467C293.698,200.749,293.23,199.374,292.7,197.799z M375.405,83.53
	c-0.246,0.015-18.072,1.16-18.072,1.16L339.5,84.529c-17.934-0.162-26.616,4.056-33.9,30.584c-0.837,3.073-0.653,5.447,0.569,7.052
	c1.352,1.767,3.88,2.558,5.785,2.558c5.002,0,9.513-7.306,11.933-11.239l1.053-1.675c1.582-2.474,2.758-3.896,3.473-4.755l0.391-0.5
	c0,0-0.046,0.07-0.046,0.077c0.715-1.16,3.212-3.664,6.016-3.641c7.945,0.107,8.053,8.497,8.199,21.211
	c0.015,0.722,0.015,1.429,0.015,2.12c0,18.392-2.459,27.826-7.169,45.934c-1.828,6.953-3.88,14.827-6.3,25.106
	c-0.461,1.921-0.899,2.966-1.191,3.665c0,0-0.084,0.238-0.123,0.307v0.077c0.062,1.921,5.571,9.135,31.218,9.488
	c17.28-0.238,27.177-4.049,27.177-10.464v-0.084c-0.031-0.085-0.123-0.3-0.123-0.3c-0.292-0.706-0.729-1.751-1.199-3.687
	c-2.42-10.279-4.472-18.177-6.293-25.145c-4.71-18.092-7.161-27.503-7.161-45.88c0-0.699,0-1.413,0.016-2.136
	c0.115-10.156,0.876-20.082,8.736-20.082c1.491,0,2.781,0.415,4.195,1.337l-0.154-0.1c1.506,0.838,2.536,1.967,5.317,6.576
	l0.554,0.907c2.274,3.864,7.015,11.885,12.371,11.885c1.913,0,4.434-0.784,5.777-2.551c1.229-1.598,1.414-3.964,0.576-7.045
	C401.921,87.648,393.269,83.392,375.405,83.53z M499.249,202.332c-4.334,5.063-16.128,12.599-30.88,12.599
	c-18.771,0-30.243-12.599-36.551-23.17c-7.422-12.415-11.854-28.886-11.854-44.051c0-36.907,21.414-66.93,47.737-66.93
	c7.69,0,23.635,4.025,33.623,14.811c6.324,6.823,9.15,15.158,8.406,24.777c-1.245,16.064-3.657,16.878-7,18l-1.061,0.368
	c-3.788,1.391-10.71-0.875-11.656-2.427c-3.434-5.539-2.136-8.973-0.99-12.008c0.813-2.182,1.675-4.441,0.354-6.837
	c-7.062-12.899-17.341-12.024-21.429-11.048c-5.908,1.444-15.789,6.814-15.789,26.558c0,8.997,2.005,38.359,27.829,38.482
	c6.462,0.031,9.396-4.141,11.986-7.821c1.705-2.42,3.312-4.701,5.816-6.023c1.514-0.791,3.235-0.407,4.41,0.046
	c2.413,0.93,4.749,3.073,5.439,4.971c0.839,2.358,2.405,6.753,2.405,16.302C510.043,187.451,503.251,197.646,499.249,202.332z
	 M510.304,161.661c-0.968-2.674-3.88-5.416-7.076-6.661c-2.474-0.952-4.802-0.929-6.762,0.1c-3.11,1.636-4.994,4.31-6.823,6.891
	c-2.504,3.565-4.679,6.638-9.657,6.615c-23.182-0.108-24.986-27.304-24.986-35.632c0-13.198,4.833-21.649,13.623-23.8
	c3.443-0.814,12.147-1.521,18.249,9.657c0.668,1.206,0.276,2.359-0.515,4.464c-1.245,3.28-2.943,7.774,1.229,14.504
	c1.798,2.95,10.196,5.401,15.068,3.611l0.99-0.354c4.672-1.567,7.606-3.395,8.929-20.473c0.807-10.433-2.282-19.491-9.166-26.928
	C492.81,82.201,475.883,77.937,467.7,77.937c-13.669,0-26.446,7.322-35.975,20.605c-9.428,13.121-14.599,30.584-14.599,49.168
	c0,15.656,4.572,32.673,12.256,45.518c6.677,11.194,18.878,24.546,38.986,24.546c15.72,0,28.367-8.128,33.031-13.59
	c1.176-1.376,11.494-13.752,11.494-25.253C512.894,168.89,511.219,164.188,510.304,161.661z M292.446,212.611
	c-1.921,0.961-10.934,2.036-21.253,2.075c-9.881-0.039-19.923-1.276-21.99-2.305c-3.811-1.967-4.087-5.624-4.087-9.043v-0.898
	v-0.845c0-1.545,0.537-3.12,1.152-4.94l0.784-2.405c1.337-4.617,8.037-40.594,8.037-70.325c0-4.479-0.154-8.812-0.492-12.884
	c-0.346-4.01-0.522-7.613-0.522-10.832c0-9.212,1.429-15.166,4.31-18.07c2.912-2.957,7.261-2.627,11.856-2.281l2.451,0.169
	l0.069-0.008l1.752-0.108c4.187-0.276,7.483-0.491,9.681,1.729c2.359,2.412,3.52,7.752,3.52,16.487c0,3.749-0.215,8.112-0.63,13.137
	c-0.323,3.833-0.461,7.959-0.461,12.246c0,28.84,6.346,65.262,7.991,70.955c0,0.008,0.783,2.412,0.783,2.412
	c0.623,1.821,1.153,3.388,1.153,4.956v0.837c0.008,0.3,0.008,0.592,0.008,0.899C296.557,206.98,296.272,210.637,292.446,212.611z
	 M271.07,217.499c8.682-0.039,19.539-0.884,22.536-2.39c5.731-2.95,5.701-8.473,5.67-12.491l-0.015-0.822
	c0-2.036-0.63-3.895-1.299-5.87l-0.745-2.297c-1.329-4.602-9.95-51.703-7.423-82.164c1.514-18.146,0.415-27.665-3.703-31.852
	c-3.104-3.165-7.368-2.881-11.894-2.581c0,0-1.498,0.092-1.652,0.1c-0.131-0.008-2.221-0.146-2.221-0.146
	c-5.04-0.384-10.257-0.776-14.099,3.111c-4.571,4.617-6.031,14.513-4.595,31.153c2.582,30.407-6.1,77.547-7.445,82.164l-0.737,2.289
	c-0.677,1.975-1.307,3.834-1.307,5.855l-0.007,0.822c-0.031,4.033-0.07,9.549,5.647,12.507
	C250.54,216.27,261.212,217.46,271.07,217.499z M410.903,122.903c-2.067,2.712-5.617,3.672-8.045,3.672
	c-6.978,0-12.086-8.643-14.83-13.283l-0.53-0.899c-2.683-4.44-3.427-5.078-4.266-5.547l-0.076-0.038
	c-0.899-0.599-1.637-0.837-2.582-0.837c-3.604,0-5.724,2.827-5.893,17.262c-0.008,0.707-0.008,1.398-0.008,2.082
	c0,18.031,2.42,27.327,7.061,45.196c1.829,6.968,3.889,14.881,6.316,25.199c0.407,1.705,0.776,2.581,1.053,3.226
	c0.261,0.63,0.354,0.838,0.354,1.498c0,8.321-10.68,13.053-30.035,13.313c-26.946-0.361-34.069-8.22-34.069-12.33
	c0-0.653,0.085-0.861,0.339-1.491c0.276-0.645,0.646-1.528,1.052-3.234c2.436-10.294,4.495-18.184,6.308-25.152
	c4.664-17.885,7.092-27.189,7.092-45.243c0-0.676-0.007-1.367-0.015-2.066c-0.177-15.242-1.091-18.338-5.409-18.392
	c-1.391-0.015-3.112,1.59-3.535,2.289l-0.576,0.738c-0.661,0.799-1.774,2.151-3.281,4.486l-1.014,1.621
	c-2.912,4.71-7.768,12.6-14.361,12.6c-2.42,0-5.97-0.961-8.044-3.68c-1.79-2.343-2.144-5.555-1.053-9.534
	c7.737-28.172,17.565-32.851,36.674-32.682l17.725,0.169l18.095-1.167c19.025-0.162,28.852,4.517,36.604,32.696
	C413.04,117.356,412.693,120.552,410.903,122.903z M375.251,77.837c0,0-17.972,1.153-18.087,1.16c-0.092,0-17.61-0.161-17.61-0.161
	c-19.785-0.177-31.303,5.147-39.448,34.771c-1.659,6.077-0.084,9.895,1.537,12.015c2.712,3.542,7.1,4.794,10.311,4.794
	c8.183,0,13.562-8.727,16.781-13.944l0.991-1.574c1.414-2.198,2.413-3.411,3.074-4.226l0.814-1.052
	c0.154-0.246,0.876-0.815,1.207-0.93c1.183,0.023,2.282,0.499,2.466,15.573c0.008,0.683,0.015,1.359,0.015,2.012
	c0,17.716-2.397,26.897-7.007,44.543c-1.729,6.63-3.88,14.889-6.316,25.222c-0.353,1.467-0.661,2.197-0.907,2.789
	c-0.307,0.73-0.568,1.367-0.568,2.589c0,1.506,1.037,14.696,36.896,15.18c0.072,0.001-0.041,0.001,0.031,0
	c27.169-0.361,32.87-8.996,32.87-16.164c0-1.229-0.269-1.866-0.584-2.596c-0.238-0.584-0.546-1.314-0.891-2.789
	c-2.436-10.341-4.595-18.615-6.324-25.26c-4.756-18.292-7.153-27.479-6.961-46.525c0.061-6.622,0.592-11.078,1.552-13.237
	c0.538-1.206,0.899-1.206,1.483-1.206c0.246,0,0.469,0,1.068,0.399c0.054,0.031,0.2,0.115,0.2,0.115
	c0.223,0.116,0.714,0.4,3.211,4.525c-0.007,0,0.523,0.876,0.523,0.876c3.035,5.132,8.69,14.689,17.28,14.689
	c3.219,0,7.613-1.26,10.318-4.801c1.614-2.121,3.196-5.931,1.521-12C406.563,82.992,395.029,77.661,375.251,77.837z"/>
<path fill="#FFFFFF" d="M557.389,88.915h4.203v16.733h-4.203V88.915z M559.494,82.024c0.729,0,1.359,0.269,1.89,0.799
	c0.531,0.53,0.792,1.183,0.792,1.944c0,0.745-0.261,1.383-0.784,1.913c-0.521,0.522-1.145,0.791-1.866,0.791
	c-0.753,0-1.392-0.277-1.913-0.807c-0.53-0.537-0.792-1.198-0.792-1.966c0-0.738,0.262-1.368,0.783-1.89
	C558.127,82.285,558.757,82.024,559.494,82.024z"/>
<path fill="#FFFFFF" d="M566.188,88.915h4.201v1.714c0.953-0.799,1.821-1.36,2.591-1.675c0.768-0.315,1.566-0.469,2.374-0.469
	c1.659,0,3.065,0.576,4.226,1.736c0.968,0.984,1.46,2.443,1.46,4.364v11.063h-4.157v-7.329c0-1.998-0.084-3.319-0.269-3.98
	c-0.185-0.653-0.492-1.152-0.938-1.498c-0.445-0.338-0.999-0.515-1.651-0.515c-0.838,0-1.575,0.285-2.183,0.853
	c-0.606,0.569-1.029,1.36-1.26,2.359c-0.123,0.522-0.193,1.659-0.193,3.395v6.715h-4.201V88.915L566.188,88.915z"/>
<path fill="#FFFFFF" d="M593.824,92.357c-1.307,0-2.382,0.461-3.235,1.383c-0.86,0.914-1.29,2.09-1.29,3.526
	c0,1.445,0.438,2.635,1.307,3.565c0.883,0.938,1.95,1.398,3.227,1.398c1.321,0,2.42-0.453,3.281-1.375
	c0.868-0.914,1.306-2.12,1.306-3.603c0-1.452-0.438-2.635-1.306-3.542C596.252,92.81,595.146,92.357,593.824,92.357z
	 M598.235,82.454h4.194v23.194h-4.194v-1.767c-0.823,0.776-1.638,1.337-2.468,1.682c-0.83,0.346-1.721,0.515-2.681,0.515
	c-2.16,0-4.027-0.845-5.602-2.512c-1.591-1.675-2.374-3.765-2.374-6.254c0-2.581,0.768-4.701,2.29-6.353
	c1.528-1.652,3.38-2.474,5.563-2.474c1.006,0,1.951,0.192,2.827,0.569c0.876,0.376,1.698,0.945,2.444,1.705V82.454L598.235,82.454z"
	/>
<path fill="#FFFFFF" d="M620.033,95.192c-0.277-0.937-0.83-1.69-1.646-2.282c-0.821-0.584-1.759-0.876-2.843-0.876
	c-1.167,0-2.197,0.331-3.073,0.992c-0.561,0.407-1.075,1.129-1.544,2.166H620.033z M624.229,98.495h-13.485
	c0.192,1.191,0.707,2.136,1.56,2.835c0.846,0.707,1.921,1.06,3.235,1.06c1.567,0,2.92-0.553,4.041-1.651l3.542,1.659
	c-0.883,1.252-1.944,2.182-3.173,2.781c-1.229,0.599-2.689,0.899-4.379,0.899c-2.628,0-4.765-0.83-6.409-2.489
	c-1.659-1.652-2.481-3.726-2.481-6.215c0-2.551,0.822-4.671,2.466-6.361c1.645-1.683,3.712-2.528,6.193-2.528
	c2.635,0,4.771,0.845,6.432,2.528c1.651,1.69,2.474,3.91,2.474,6.683L624.229,98.495z"/>
<path fill="#FFFFFF" d="M636.998,92.357c-1.322,0-2.42,0.453-3.289,1.352c-0.876,0.907-1.306,2.09-1.306,3.542
	c0,1.483,0.43,2.689,1.306,3.603c0.869,0.922,1.967,1.375,3.289,1.375c1.283,0,2.366-0.461,3.242-1.398
	c0.876-0.93,1.313-2.12,1.313-3.565c0-1.436-0.438-2.612-1.291-3.526C639.403,92.818,638.313,92.357,636.998,92.357z M632.58,88.915
	v1.844c0.768-0.76,1.583-1.329,2.466-1.705c0.884-0.377,1.829-0.569,2.828-0.569c2.182,0,4.041,0.822,5.578,2.474
	c1.521,1.652,2.29,3.772,2.29,6.353c0,2.489-0.799,4.579-2.382,6.254c-1.575,1.667-3.442,2.512-5.609,2.512
	c-0.961,0-1.86-0.169-2.689-0.515c-0.829-0.345-1.659-0.906-2.481-1.682v7.882h-4.165V88.915H632.58z"/>
<path fill="#FFFFFF" d="M662.561,95.192c-0.269-0.937-0.821-1.69-1.637-2.282c-0.813-0.584-1.759-0.876-2.843-0.876
	c-1.167,0-2.197,0.331-3.081,0.992c-0.561,0.407-1.068,1.129-1.536,2.166H662.561z M666.771,98.495h-13.492
	c0.191,1.191,0.715,2.136,1.56,2.835c0.845,0.707,1.929,1.06,3.235,1.06c1.566,0,2.919-0.553,4.049-1.651l3.542,1.659
	c-0.891,1.252-1.952,2.182-3.173,2.781c-1.23,0.599-2.689,0.899-4.389,0.899c-2.619,0-4.763-0.83-6.407-2.489
	c-1.659-1.652-2.481-3.726-2.481-6.215c0-2.551,0.822-4.671,2.475-6.361c1.636-1.683,3.702-2.528,6.185-2.528
	c2.635,0,4.779,0.845,6.431,2.528c1.645,1.69,2.475,3.91,2.475,6.683L666.771,98.495z"/>
<path fill="#FFFFFF" d="M670.951,88.915h4.203v1.714c0.953-0.799,1.813-1.36,2.582-1.675c0.783-0.315,1.566-0.469,2.374-0.469
	c1.659,0,3.065,0.576,4.226,1.736c0.977,0.984,1.46,2.443,1.46,4.364v11.063h-4.148v-7.329c0-1.998-0.093-3.319-0.277-3.98
	c-0.177-0.653-0.484-1.152-0.93-1.498c-0.453-0.338-0.998-0.515-1.652-0.515c-0.845,0-1.582,0.285-2.182,0.853
	c-0.614,0.569-1.037,1.36-1.268,2.359c-0.123,0.522-0.185,1.659-0.185,3.395v6.715h-4.203V88.915L670.951,88.915z"/>
<path fill="#FFFFFF" d="M698.581,92.357c-1.298,0-2.374,0.461-3.235,1.383c-0.859,0.914-1.283,2.09-1.283,3.526
	c0,1.445,0.432,2.635,1.307,3.565c0.876,0.938,1.943,1.398,3.228,1.398c1.313,0,2.412-0.453,3.28-1.375
	c0.869-0.914,1.299-2.12,1.299-3.603c0-1.452-0.43-2.635-1.299-3.542C701.009,92.81,699.91,92.357,698.581,92.357z M702.999,82.454
	h4.195v23.194h-4.195v-1.767c-0.822,0.776-1.644,1.337-2.474,1.682c-0.822,0.346-1.713,0.515-2.675,0.515
	c-2.158,0-4.033-0.845-5.608-2.512c-1.582-1.675-2.366-3.765-2.366-6.254c0-2.581,0.76-4.701,2.282-6.353
	c1.536-1.652,3.388-2.474,5.569-2.474c0.999,0,1.944,0.192,2.82,0.569c0.884,0.376,1.698,0.945,2.451,1.705V82.454L702.999,82.454z"
	/>
<path fill="#FFFFFF" d="M724.797,95.192c-0.284-0.937-0.837-1.69-1.644-2.282c-0.822-0.584-1.759-0.876-2.852-0.876
	c-1.167,0-2.196,0.331-3.073,0.992c-0.553,0.407-1.075,1.129-1.544,2.166H724.797z M728.993,98.495H715.5
	c0.192,1.191,0.715,2.136,1.568,2.835c0.845,0.707,1.921,1.06,3.233,1.06c1.568,0,2.913-0.553,4.034-1.651l3.542,1.659
	c-0.875,1.252-1.936,2.182-3.165,2.781c-1.229,0.599-2.688,0.899-4.387,0.899c-2.621,0-4.764-0.83-6.409-2.489
	c-1.651-1.652-2.481-3.726-2.481-6.215c0-2.551,0.83-4.671,2.467-6.361c1.651-1.683,3.711-2.528,6.192-2.528
	c2.644,0,4.779,0.845,6.432,2.528c1.651,1.69,2.474,3.91,2.474,6.683L728.993,98.495z"/>
<path fill="#FFFFFF" d="M733.18,88.915h4.203v1.714c0.945-0.799,1.807-1.36,2.582-1.675c0.769-0.315,1.56-0.469,2.366-0.469
	c1.66,0,3.074,0.576,4.226,1.736c0.977,0.984,1.46,2.443,1.46,4.364v11.063h-4.148v-7.329c0-1.998-0.092-3.319-0.27-3.98
	c-0.177-0.653-0.491-1.152-0.937-1.498c-0.446-0.338-0.999-0.515-1.652-0.515c-0.846,0-1.576,0.285-2.183,0.853
	c-0.614,0.569-1.037,1.36-1.267,2.359c-0.123,0.522-0.178,1.659-0.178,3.395v6.715h-4.203V88.915L733.18,88.915z"/>
<path fill="#FFFFFF" d="M753.38,82.746h4.195v6.169h2.49v3.619h-2.49v13.114h-4.195V92.534h-2.151v-3.619h2.151V82.746z"/>
<path fill="#FFFFFF" d="M558.365,118.747h4.194v6.161h2.489v3.618h-2.489v13.114h-4.194v-13.114h-2.159v-3.618h2.159V118.747z"/>
<path fill="#FFFFFF" d="M580.655,131.184c-0.285-0.938-0.83-1.69-1.652-2.274c-0.814-0.583-1.752-0.875-2.836-0.875
	c-1.167,0-2.205,0.33-3.081,0.983c-0.553,0.407-1.068,1.129-1.544,2.166H580.655z M584.85,134.488h-13.491
	c0.191,1.191,0.714,2.136,1.566,2.842c0.838,0.7,1.921,1.053,3.235,1.053c1.566,0,2.912-0.553,4.041-1.652l3.535,1.667
	c-0.876,1.253-1.938,2.174-3.166,2.781c-1.237,0.592-2.689,0.892-4.388,0.892c-2.62,0-4.764-0.822-6.407-2.482
	c-1.652-1.659-2.475-3.734-2.475-6.223c0-2.55,0.822-4.671,2.466-6.361c1.645-1.682,3.704-2.527,6.193-2.527
	c2.635,0,4.771,0.845,6.423,2.527c1.652,1.69,2.482,3.918,2.482,6.684L584.85,134.488z"/>
<path fill="#FFFFFF" d="M589.007,124.908h4.195v1.928c0.714-0.791,1.513-1.383,2.396-1.774c0.876-0.385,1.829-0.577,2.874-0.577
	c1.037,0,1.982,0.254,2.827,0.769c0.845,0.507,1.515,1.26,2.029,2.235c0.676-0.975,1.483-1.728,2.458-2.235
	c0.969-0.515,2.029-0.769,3.174-0.769c1.191,0,2.243,0.269,3.143,0.822c0.898,0.553,1.552,1.276,1.943,2.175
	c0.4,0.891,0.6,2.335,0.6,4.348v9.81h-4.226v-8.489c0-1.89-0.246-3.18-0.715-3.849c-0.476-0.676-1.176-1.006-2.121-1.006
	c-0.722,0-1.367,0.2-1.936,0.614c-0.568,0.408-0.983,0.976-1.261,1.698c-0.283,0.722-0.414,1.882-0.414,3.48v7.552h-4.234v-8.105
	c0-1.49-0.115-2.581-0.338-3.249c-0.215-0.676-0.545-1.176-0.983-1.498c-0.446-0.331-0.976-0.492-1.605-0.492
	c-0.699,0-1.337,0.207-1.905,0.622c-0.569,0.415-0.999,0.999-1.284,1.744c-0.284,0.753-0.422,1.928-0.422,3.534v7.444h-4.195
	V124.908L589.007,124.908z"/>
<path fill="#FFFFFF" d="M628.016,128.35c-1.328,0-2.428,0.453-3.296,1.359c-0.876,0.899-1.307,2.082-1.307,3.534
	c0,1.491,0.431,2.689,1.307,3.603c0.868,0.922,1.967,1.383,3.296,1.383c1.275,0,2.359-0.468,3.235-1.398
	c0.875-0.929,1.313-2.128,1.313-3.565c0-1.444-0.431-2.619-1.29-3.534C630.413,128.811,629.322,128.35,628.016,128.35z
	 M623.598,124.908v1.844c0.761-0.761,1.575-1.322,2.459-1.706c0.884-0.376,1.828-0.561,2.827-0.561c2.183,0,4.042,0.822,5.578,2.466
	c1.522,1.66,2.29,3.773,2.29,6.354c0,2.489-0.799,4.579-2.382,6.253c-1.575,1.675-3.442,2.513-5.609,2.513
	c-0.96,0-1.858-0.169-2.688-0.515c-0.83-0.338-1.66-0.899-2.475-1.683v7.89h-4.172v-22.855H623.598L623.598,124.908z"/>
<path fill="#FFFFFF" d="M653.579,131.184c-0.277-0.938-0.83-1.69-1.645-2.274c-0.814-0.583-1.76-0.875-2.843-0.875
	c-1.168,0-2.198,0.33-3.074,0.983c-0.567,0.407-1.074,1.129-1.544,2.166H653.579z M657.782,134.488h-13.493
	c0.193,1.191,0.715,2.136,1.56,2.842c0.846,0.7,1.93,1.053,3.243,1.053c1.56,0,2.912-0.553,4.041-1.652l3.542,1.667
	c-0.891,1.253-1.943,2.174-3.173,2.781c-1.229,0.592-2.689,0.892-4.387,0.892c-2.62,0-4.765-0.822-6.408-2.482
	c-1.66-1.659-2.474-3.734-2.474-6.223c0-2.55,0.813-4.671,2.466-6.361c1.644-1.682,3.703-2.527,6.185-2.527
	c2.636,0,4.779,0.845,6.432,2.527c1.651,1.69,2.474,3.918,2.474,6.684L657.782,134.488z"/>
<path fill="#FFFFFF" d="M660.979,124.908h3.604v2.105c0.384-0.83,0.906-1.46,1.552-1.89s1.353-0.638,2.12-0.638
	c0.546,0,1.114,0.139,1.706,0.423l-1.306,3.618c-0.492-0.246-0.899-0.368-1.214-0.368c-0.646,0-1.191,0.399-1.638,1.198
	c-0.453,0.799-0.668,2.366-0.668,4.702l0.016,0.814v6.768h-4.173L660.979,124.908L660.979,124.908z"/>
<path fill="#FFFFFF" d="M680.763,128.35c-1.291,0-2.374,0.461-3.234,1.382c-0.853,0.915-1.283,2.09-1.283,3.534
	c0,1.437,0.438,2.636,1.306,3.565c0.876,0.93,1.952,1.398,3.235,1.398c1.313,0,2.405-0.461,3.266-1.383
	c0.883-0.914,1.314-2.112,1.314-3.603c0-1.452-0.432-2.635-1.314-3.534C683.191,128.803,682.1,128.35,680.763,128.35z
	 M685.173,124.908h4.203v16.732h-4.203v-1.767c-0.806,0.784-1.636,1.345-2.458,1.683c-0.822,0.346-1.721,0.515-2.682,0.515
	c-2.159,0-4.034-0.838-5.609-2.513c-1.575-1.674-2.366-3.764-2.366-6.253c0-2.581,0.761-4.694,2.289-6.354
	c1.522-1.644,3.381-2.466,5.563-2.466c0.999,0,1.943,0.185,2.819,0.561c0.892,0.384,1.706,0.945,2.443,1.706V124.908
	L685.173,124.908z"/>
<path fill="#FFFFFF" d="M694.924,118.747h4.195v6.161h2.49v3.618h-2.49v13.114h-4.195v-13.114h-2.159v-3.618h2.159V118.747z"/>
<path fill="#FFFFFF" d="M704.628,124.908h4.241v8.059c0,1.575,0.107,2.658,0.331,3.273c0.207,0.606,0.561,1.083,1.028,1.421
	c0.484,0.338,1.068,0.507,1.769,0.507c0.699,0,1.29-0.169,1.775-0.5c0.499-0.338,0.859-0.822,1.091-1.467
	c0.184-0.484,0.268-1.513,0.268-3.096v-8.197h4.196v7.091c0,2.927-0.231,4.924-0.692,6c-0.561,1.314-1.397,2.32-2.488,3.019
	c-1.1,0.707-2.49,1.053-4.188,1.053c-1.828,0-3.319-0.408-4.449-1.23c-1.137-0.822-1.928-1.966-2.396-3.426
	c-0.323-1.014-0.484-2.858-0.484-5.539V124.908L704.628,124.908z"/>
<path fill="#FFFFFF" d="M723.345,124.908h3.597v2.105c0.399-0.83,0.906-1.46,1.552-1.89c0.653-0.43,1.352-0.638,2.128-0.638
	c0.538,0,1.106,0.139,1.714,0.423l-1.314,3.618c-0.491-0.246-0.898-0.368-1.214-0.368c-0.652,0-1.19,0.399-1.637,1.198
	c-0.445,0.799-0.668,2.366-0.668,4.702l0.008,0.814v6.768h-4.165V124.908L723.345,124.908z"/>
<path fill="#FFFFFF" d="M747.763,131.184c-0.284-0.938-0.829-1.69-1.644-2.274c-0.822-0.583-1.759-0.875-2.843-0.875
	c-1.168,0-2.197,0.33-3.081,0.983c-0.554,0.407-1.068,1.129-1.537,2.166H747.763z M751.959,134.488h-13.493
	c0.192,1.191,0.715,2.136,1.568,2.842c0.845,0.7,1.921,1.053,3.234,1.053c1.567,0,2.919-0.553,4.041-1.652l3.542,1.667
	c-0.883,1.253-1.943,2.174-3.173,2.781c-1.229,0.592-2.688,0.892-4.387,0.892c-2.621,0-4.757-0.822-6.408-2.482
	c-1.651-1.659-2.475-3.734-2.475-6.223c0-2.55,0.823-4.671,2.467-6.361c1.644-1.682,3.703-2.527,6.193-2.527
	c2.635,0,4.771,0.845,6.431,2.527c1.652,1.69,2.474,3.918,2.474,6.684L751.959,134.488z"/>
<path fill="#FFFFFF" d="M574.231,164.288l-3.496,1.921c-0.653-0.684-1.307-1.16-1.944-1.429c-0.645-0.261-1.39-0.399-2.259-0.399
	c-1.575,0-2.843,0.468-3.812,1.405c-0.968,0.938-1.451,2.136-1.451,3.604c0,1.421,0.461,2.581,1.398,3.48
	c0.929,0.906,2.159,1.359,3.68,1.359c1.883,0,3.343-0.645,4.388-1.928l3.312,2.267c-1.79,2.335-4.326,3.503-7.599,3.503
	c-2.943,0-5.24-0.876-6.915-2.62c-1.668-1.744-2.497-3.78-2.497-6.115c0-1.621,0.407-3.112,1.213-4.479
	c0.808-1.36,1.944-2.436,3.389-3.211c1.46-0.776,3.081-1.176,4.871-1.176c1.66,0,3.151,0.338,4.48,0.999
	C572.303,162.13,573.394,163.067,574.231,164.288z"/>
<path fill="#FFFFFF" d="M586.732,164.427c-1.299,0-2.39,0.453-3.259,1.359c-0.867,0.907-1.298,2.067-1.298,3.488
	c0,1.452,0.423,2.628,1.283,3.534c0.854,0.899,1.944,1.352,3.258,1.352c1.314,0,2.413-0.453,3.288-1.367
	c0.869-0.914,1.308-2.082,1.308-3.519c0-1.436-0.432-2.604-1.291-3.503C589.16,164.872,588.069,164.427,586.732,164.427z
	 M586.663,160.47c1.583,0,3.065,0.4,4.449,1.191c1.391,0.791,2.474,1.859,3.258,3.211c0.776,1.352,1.168,2.82,1.168,4.387
	c0,1.575-0.392,3.05-1.176,4.433c-0.784,1.367-1.853,2.443-3.204,3.211c-1.353,0.784-2.852,1.168-4.479,1.168
	c-2.404,0-4.448-0.853-6.146-2.559c-1.691-1.713-2.544-3.779-2.544-6.222c0-2.612,0.961-4.794,2.882-6.538
	C582.545,161.231,584.481,160.47,586.663,160.47z"/>
<path fill="#FFFFFF" d="M599.756,160.908h4.203v1.713c0.945-0.806,1.813-1.36,2.581-1.675c0.776-0.315,1.568-0.476,2.375-0.476
	c1.659,0,3.073,0.584,4.226,1.744c0.976,0.983,1.459,2.435,1.459,4.364v11.063h-4.155v-7.33c0-1.997-0.085-3.326-0.263-3.979
	c-0.184-0.653-0.49-1.16-0.937-1.498c-0.446-0.346-0.999-0.515-1.652-0.515c-0.845,0-1.575,0.284-2.182,0.853
	c-0.615,0.568-1.037,1.352-1.269,2.358c-0.123,0.523-0.184,1.652-0.184,3.396v6.715h-4.203V160.908L599.756,160.908z"/>
<path fill="#FFFFFF" d="M619.956,154.739h4.195v6.169h2.488v3.611h-2.488v13.114h-4.195v-13.114h-2.159v-3.611h2.159V154.739z"/>
<path fill="#FFFFFF" d="M628.692,160.908h3.596v2.105c0.392-0.83,0.914-1.46,1.552-1.89c0.653-0.43,1.353-0.653,2.128-0.653
	c0.538,0,1.107,0.146,1.706,0.438l-1.306,3.611c-0.492-0.246-0.899-0.369-1.222-0.369c-0.646,0-1.184,0.4-1.63,1.199
	c-0.444,0.798-0.676,2.366-0.676,4.709l0.015,0.814v6.769h-4.163V160.908L628.692,160.908z"/>
<path fill="#FFFFFF" d="M648.469,164.427c-1.298,0-2.389,0.453-3.257,1.359c-0.869,0.907-1.299,2.067-1.299,3.488
	c0,1.452,0.43,2.628,1.283,3.534c0.86,0.899,1.943,1.352,3.258,1.352c1.313,0,2.405-0.453,3.281-1.367s1.306-2.082,1.306-3.519
	c0-1.436-0.423-2.604-1.283-3.503C650.896,164.872,649.806,164.427,648.469,164.427z M648.4,160.47c1.583,0,3.065,0.4,4.448,1.191
	c1.392,0.791,2.475,1.859,3.25,3.211c0.784,1.352,1.177,2.82,1.177,4.387c0,1.575-0.393,3.05-1.177,4.433
	c-0.783,1.367-1.852,2.443-3.204,3.211c-1.359,0.784-2.851,1.168-4.479,1.168c-2.405,0-4.449-0.853-6.146-2.559
	c-1.698-1.713-2.545-3.779-2.545-6.222c0-2.612,0.953-4.794,2.874-6.538C644.282,161.231,646.218,160.47,648.4,160.47z"/>
<path fill="#FFFFFF" d="M661.032,154.447h4.203v23.194h-4.203V154.447z"/>
<path fill="#FFFFFF" d="M568.092,199.236l-2.597,2.604c-1.061-1.052-2.013-1.575-2.874-1.575c-0.468,0-0.845,0.108-1.114,0.3
	c-0.261,0.208-0.398,0.453-0.398,0.753c0,0.223,0.092,0.43,0.253,0.622c0.177,0.185,0.592,0.446,1.26,0.776l1.537,0.768
	c1.621,0.799,2.734,1.614,3.335,2.443c0.606,0.83,0.914,1.806,0.914,2.92c0,1.49-0.545,2.735-1.645,3.726
	c-1.091,0.999-2.559,1.49-4.387,1.49c-2.444,0-4.388-0.952-5.848-2.858l2.582-2.819c0.491,0.576,1.075,1.045,1.736,1.39
	c0.653,0.361,1.244,0.53,1.759,0.53c0.554,0,0.999-0.13,1.338-0.399c0.338-0.261,0.507-0.569,0.507-0.914
	c0-0.653-0.607-1.283-1.829-1.898l-1.413-0.707c-2.713-1.359-4.065-3.065-4.065-5.124c0-1.321,0.508-2.451,1.529-3.388
	s2.328-1.406,3.911-1.406c1.091,0,2.121,0.238,3.073,0.715C566.617,197.661,567.424,198.345,568.092,199.236z"/>
<path fill="#FFFFFF" d="M585.057,203.177c-0.269-0.937-0.821-1.69-1.636-2.282c-0.814-0.583-1.76-0.875-2.836-0.875
	c-1.175,0-2.205,0.33-3.088,0.991c-0.554,0.407-1.062,1.129-1.537,2.166H585.057z M589.268,206.481h-13.491
	c0.191,1.19,0.714,2.135,1.559,2.842c0.846,0.699,1.929,1.053,3.243,1.053c1.56,0,2.912-0.554,4.041-1.652l3.535,1.667
	c-0.885,1.245-1.938,2.174-3.166,2.773c-1.237,0.6-2.689,0.899-4.388,0.899c-2.62,0-4.764-0.829-6.416-2.481
	c-1.644-1.66-2.466-3.734-2.466-6.223c0-2.551,0.822-4.671,2.466-6.361c1.645-1.683,3.704-2.528,6.186-2.528
	c2.636,0,4.778,0.845,6.431,2.528c1.652,1.69,2.476,3.918,2.476,6.684L589.268,206.481z"/>
<path fill="#FFFFFF" d="M592.464,196.901h3.604v2.105c0.384-0.822,0.905-1.452,1.552-1.89c0.645-0.431,1.352-0.646,2.12-0.646
	c0.546,0,1.115,0.146,1.706,0.431l-1.307,3.61c-0.491-0.246-0.898-0.361-1.214-0.361c-0.645,0-1.19,0.392-1.637,1.199
	c-0.445,0.799-0.668,2.366-0.668,4.709l0.015,0.807v6.768h-4.172V196.901L592.464,196.901z"/>
<path fill="#FFFFFF" d="M602.521,196.901h4.272l4.234,9.872l4.218-9.872h4.256l-7.122,16.732h-2.72L602.521,196.901z"/>
<path fill="#FFFFFF" d="M622.284,196.901h4.194v16.732h-4.194V196.901z M624.382,190.017c0.737,0,1.367,0.261,1.891,0.791
	c0.529,0.538,0.791,1.183,0.791,1.944c0,0.745-0.255,1.383-0.776,1.913c-0.522,0.522-1.153,0.791-1.882,0.791
	c-0.738,0-1.383-0.269-1.906-0.806c-0.522-0.538-0.784-1.191-0.784-1.959c0-0.738,0.254-1.376,0.776-1.89
	C623.014,190.271,623.636,190.017,624.382,190.017z"/>
<path fill="#FFFFFF" d="M647.463,200.281l-3.496,1.928c-0.652-0.691-1.306-1.168-1.943-1.436c-0.646-0.262-1.399-0.4-2.251-0.4
	c-1.576,0-2.844,0.469-3.819,1.406c-0.968,0.945-1.452,2.136-1.452,3.603c0,1.421,0.461,2.581,1.398,3.488
	c0.937,0.899,2.159,1.352,3.68,1.352c1.883,0,3.335-0.638,4.388-1.928l3.312,2.266c-1.79,2.335-4.325,3.503-7.6,3.503
	c-2.941,0-5.239-0.868-6.915-2.612c-1.658-1.744-2.496-3.787-2.496-6.123c0-1.621,0.406-3.111,1.214-4.471
	c0.807-1.367,1.936-2.443,3.396-3.219c1.452-0.776,3.074-1.168,4.864-1.168c1.659,0,3.149,0.331,4.479,0.991
	C645.534,198.122,646.618,199.067,647.463,200.281z"/>
<path fill="#FFFFFF" d="M664.605,203.177c-0.285-0.937-0.83-1.69-1.646-2.282c-0.822-0.583-1.759-0.875-2.842-0.875
	c-1.168,0-2.198,0.33-3.074,0.991c-0.561,0.407-1.076,1.129-1.544,2.166H664.605z M668.8,206.481h-13.484
	c0.191,1.19,0.706,2.135,1.56,2.842c0.845,0.699,1.929,1.053,3.235,1.053c1.574,0,2.92-0.554,4.041-1.652l3.542,1.667
	c-0.884,1.245-1.943,2.174-3.165,2.773c-1.237,0.6-2.689,0.899-4.388,0.899c-2.628,0-4.764-0.829-6.407-2.481
	c-1.652-1.66-2.482-3.734-2.482-6.223c0-2.551,0.83-4.671,2.466-6.361c1.645-1.683,3.711-2.528,6.193-2.528
	c2.636,0,4.771,0.845,6.431,2.528c1.652,1.69,2.475,3.918,2.475,6.684L668.8,206.481z"/>
<path fill="#FFFFFF" d="M683.23,199.236l-2.598,2.604c-1.053-1.052-2.014-1.575-2.874-1.575c-0.476,0-0.845,0.108-1.106,0.3
	c-0.276,0.208-0.407,0.453-0.407,0.753c0,0.223,0.092,0.43,0.261,0.622c0.17,0.185,0.584,0.446,1.253,0.776l1.537,0.768
	c1.621,0.799,2.735,1.614,3.334,2.443c0.607,0.83,0.915,1.806,0.915,2.92c0,1.49-0.546,2.735-1.645,3.726
	c-1.092,0.999-2.552,1.49-4.388,1.49c-2.442,0-4.387-0.952-5.847-2.858l2.582-2.819c0.491,0.576,1.075,1.045,1.736,1.39
	c0.652,0.361,1.244,0.53,1.752,0.53c0.561,0,1.006-0.13,1.337-0.399c0.346-0.261,0.515-0.569,0.515-0.914
	c0-0.653-0.607-1.283-1.829-1.898l-1.422-0.707c-2.704-1.359-4.056-3.065-4.056-5.124c0-1.321,0.507-2.451,1.528-3.388
	s2.328-1.406,3.91-1.406c1.092,0,2.113,0.238,3.074,0.715C681.754,197.661,682.561,198.345,683.23,199.236z"/>
<path fill="#FFFFFF" d="M689.645,209.377l3.006,1.506l-3.805,6.491l-2.09-0.998L689.645,209.377z"/>
<path fill="#FFFFFF" d="M706.372,196.901h4.195v16.732h-4.195V196.901z M708.47,190.017c0.738,0,1.368,0.261,1.898,0.791
	c0.521,0.538,0.791,1.183,0.791,1.944c0,0.745-0.27,1.383-0.791,1.913c-0.523,0.522-1.138,0.791-1.867,0.791
	c-0.746,0-1.376-0.269-1.906-0.806c-0.53-0.538-0.799-1.191-0.799-1.959c0-0.738,0.269-1.376,0.799-1.89
	C707.11,190.271,707.732,190.017,708.47,190.017z"/>
<path fill="#FFFFFF" d="M715.17,196.901h4.203v1.72c0.953-0.806,1.821-1.367,2.589-1.682c0.776-0.315,1.56-0.469,2.374-0.469
	c1.66,0,3.066,0.576,4.227,1.737c0.968,0.983,1.46,2.443,1.46,4.363v11.063h-4.157v-7.329c0-1.998-0.092-3.319-0.27-3.98
	c-0.184-0.653-0.49-1.152-0.937-1.498c-0.446-0.338-0.999-0.514-1.645-0.514c-0.853,0-1.583,0.284-2.189,0.86
	c-0.607,0.561-1.03,1.352-1.269,2.351c-0.123,0.53-0.184,1.652-0.184,3.395v6.715h-4.203V196.901L715.17,196.901z"/>
<path fill="#FFFFFF" d="M751.244,200.281l-3.496,1.928c-0.653-0.691-1.306-1.168-1.944-1.436c-0.645-0.262-1.397-0.4-2.251-0.4
	c-1.574,0-2.843,0.469-3.818,1.406c-0.969,0.945-1.452,2.136-1.452,3.603c0,1.421,0.461,2.581,1.397,3.488
	c0.938,0.899,2.159,1.352,3.682,1.352c1.882,0,3.342-0.638,4.387-1.928l3.313,2.266c-1.791,2.335-4.326,3.503-7.6,3.503
	c-2.942,0-5.241-0.868-6.916-2.612c-1.659-1.744-2.497-3.787-2.497-6.123c0-1.621,0.408-3.111,1.214-4.471
	c0.808-1.367,1.944-2.443,3.396-3.219c1.453-0.776,3.074-1.168,4.864-1.168c1.659,0,3.157,0.331,4.479,0.991
	C749.315,198.122,750.407,199.067,751.244,200.281z"/>
<path fill="#FFFFFF" d="M758.113,209.254c0.661,0,1.229,0.23,1.697,0.699c0.47,0.461,0.716,1.03,0.716,1.698
	s-0.246,1.237-0.716,1.705c-0.469,0.477-1.036,0.707-1.697,0.707c-0.677,0-1.237-0.23-1.713-0.707
	c-0.47-0.468-0.716-1.037-0.716-1.705s0.246-1.237,0.716-1.698C756.876,209.484,757.438,209.254,758.113,209.254z"/>
<path fill="#543935" d="M140.64,130.616l0.059,0.788c0.51,6.213,0.904,15.082,1.152,26.634c0.102,4.726-0.117,10.182-0.656,16.425
	c-0.161,2.013-0.248,3.048-0.248,3.136c1.298,0.117,4.871,0.933,10.705,2.407c1.415,0.364,2.684,0.729,3.778,1.108
	c0.014-0.117,0.16-1.181,0.496-3.18c0.889-5.79,1.458-12.209,1.677-19.21l0.029-0.817l0.117-0.685l-0.219-15.112
	c-0.19-0.117-1.867-1.327-5.047-3.676c-2.027-1.517-4.856-3.398-8.488-5.659c-0.642-0.38-1.313-0.817-1.984-1.269
	C141.122,130.922,140.67,130.616,140.64,130.616z M127.234,131.577v-0.467l-0.073-0.788c-0.014-0.131-0.073-1.429-0.16-3.909
	c-0.146-3.836-0.7-8.227-1.706-13.186l-0.161-0.773c0-0.015-0.175-0.204-0.54-0.54c-0.218-0.204-1.123-1.138-2.712-2.771
	c-1.663-1.707-3.705-3.72-6.155-5.995l-0.525-0.555c-0.234-0.218-0.832-0.758-1.751-1.546l-0.597-0.496l-0.584-0.539
	c-0.89-0.832-1.444-1.342-1.736-1.547c-0.014,0.044,0.365,2.728,1.065,8.067c2.29,16.92,3.588,33.972,3.909,51.14
	c0.146,7.541,0,13.317-0.408,17.372c0.073,0.03,0.145,0.044,0.262,0.044l1.502,0.029c0.19,0,0.35-0.014,0.482-0.043
	c0.16-0.788,0.248-14.251,0.058-18.058c0.015-0.059-0.015-1.386-0.058-3.939c-0.073-2.742-0.19-5.645-0.365-8.693
	c-0.306-5.266-0.51-8.154-0.598-8.65l-0.102-0.744l0.015-0.729L127.234,131.577z M82.536,137.116
	c0.379,3.223,0.933,16.132,0.919,26.736c-0.015,3.924-0.088,7.994-0.248,12.18c-0.044,1.109-0.059,1.678-0.044,1.692
	c0.029,0.029,0.044,0.059,0.044,0.088l2.363-0.423l0.029-2.232l0.044-0.846c0.291-6.593,0.247-20.538-0.015-26.62
	c-0.219-5.12-0.379-8.052-0.496-8.796l-0.117-0.758v-0.467L82.536,137.116z M91.741,120.72l-0.442-5.734l-3.421,2.156l0.364,5.478
	L91.741,120.72z M95.527,112.509l0.599,5.739l3.668-1.926l-0.7-5.982L95.527,112.509z M103.585,107.977l3.691-1.965l0.627,6.181
	l-3.732,1.756L103.585,107.977z M89.032,130.329l3.443-1.639l0.425,5.173l-3.546,1.546L89.032,130.329z M96.973,126.623l3.585-1.663
	l0.465,5.558l-3.662,1.548L96.973,126.623z M104.966,122.921l3.714-1.663l0.413,6.062l-3.546,1.392L104.966,122.921z
	 M109.71,135.956l0.4,6.087l-3.739,0.915l-0.285-5.764L109.71,135.956z M101.767,144.2l-0.232-5.57l-3.778,1.378l0.167,5.29
	L101.767,144.2z M93.451,146.606l-0.154-5.288l-3.637,1.289l0.179,5.03L93.451,146.606z M89.943,154.649l3.539-0.729l0.168,4.878
	l-3.577,0.665L89.943,154.649z M98.429,157.873l3.565-0.636l-0.08-5.294l-3.641,0.817L98.429,157.873z M110.549,155.901l-0.156-5.7
	l-3.707,0.717l0.116,5.515L110.549,155.901z M93.457,165.364l0.026,4.929l-3.538,0.234l0.104-4.655L93.457,165.364z M98.421,164.78
	l0.051,5.06l3.591-0.235l0.079-5.281L98.421,164.78z M106.889,169.308l3.745-0.144l-0.05-5.425l-3.747,0.287L106.889,169.308z
	 M71.202,145.973l2.913-1.275l0.157,4.213l-2.784,1.149L71.202,145.973z M76.965,147.866l2.94-1.108l-0.234-4.253l-2.914,1.17
	L76.965,147.866z M71.725,155.167l2.915-1.16v4.136l-2.915,0.875V155.167z M77.213,153.1l2.732-0.952l0.118,4.433l-2.798,0.745
	L77.213,153.1z M71.647,163.496l2.928-0.782v3.851l-3.044,0.573L71.647,163.496z M77.316,166.003l-0.052-3.9l2.836-0.614
	l0.078,4.046L77.316,166.003z M71.282,175.216l2.888-0.235l0.208-3.793l-2.862,0.358L71.282,175.216z M76.825,174.675l3.045-0.26
	l0.077-3.861l-2.888,0.426L76.825,174.675z M122.839,170.896l3.852,0.053l0.156-5.413l-3.747,0.113L122.839,170.896z
	 M132.222,170.97l3.824,0.089l0.078-5.567l-3.902,0.051V170.97L132.222,170.97z M132.491,157.395l3.772-0.093l0.026-5.904
	l-3.825,0.284L132.491,157.395z M126.826,157.788v-5.58l-3.851,0.299l-0.078,5.489L126.826,157.788z M132.043,143.324l3.866-0.472
	l-0.418-6.112l-3.798,0.703L132.043,143.324z M126.68,144.156l-0.336-5.752l-3.993,0.806l0.39,5.466L126.68,144.156z"/>
<path fill="#946B4C" d="M139.585,130.266l-22.125,4.755l-0.103-0.029c0.073,0.437,0.89,10.195,1.051,18.174
	c0.087,4.216,0.145,6.856,0.175,7.906c0.058,1.036-0.059,4.434-0.292,10.211c-0.088,2.406-0.146,3.719-0.146,3.923
	c6.038,0.015,18.042,1.313,20.842,1.999l0.744,0.189h0.321l0.496-8.956l0.189-10.517c0.131-7.905-0.146-15.928-0.86-24.096
	l-0.059-0.803l-0.058-0.787c-0.029-0.175-0.058-0.438-0.073-0.803l-0.102-0.743V130.266z M109.236,97.96
	c-0.204-0.029-2.858,1.692-8.007,5.178c-6.067,4.085-10.953,7.571-14.716,10.444c-1.517,1.153-2.348,1.78-2.523,1.911
	c0.058,0.161,3.033,24.753,3.004,46.837c0,5.063-0.058,8.986-0.189,11.757c0,0.044-0.03,1.065-0.102,3.136
	c4.638-0.773,9.144-1.327,13.462-1.692c3.456-0.277,7.978-0.452,13.607-0.511c0-0.102,0.044-1.196,0.175-3.252
	c0.263-4.799,0.394-8.519,0.409-11.144c0.029-14.543-0.977-30.223-3.005-47.056C110.097,103.182,109.382,98.004,109.236,97.96z
	 M68.571,180.969h0.218l0.773-0.189c4.492-1.124,8.197-1.955,11.114-2.48l0.802-0.161c0.161-0.014,0.35-0.145,0.569-0.393
	c0.89-12.589-0.175-36.875-0.569-40.303c-0.029,0-0.058-0.014-0.073-0.044c-4.725,2.232-8.882,4.347-12.484,6.316
	c0.306,2.305,0.423,15.929,0.233,22.113c-0.219,6.696-0.336,10.415-0.379,11.159C68.643,179.175,68.571,180.502,68.571,180.969z
	 M76.714,166.971l-0.074-5.573l4.051-0.875l0.112,5.779L76.714,166.971z M80.505,175.186l-4.348,0.373l0.334-5.28l4.126-0.608
	L80.505,175.186z M80.674,157.37l-3.997,1.066l-0.074-6.039l3.902-1.358L80.674,157.37z M80.245,141.356l0.334,6.077l-4.2,1.581
	l-0.297-5.985L80.245,141.356z M75.264,158.842l-4.163,1.251v-5.503l4.163-1.655V158.842z M75.227,167.268l-4.348,0.817l0.165-5.199
	l4.183-1.12V167.268z M74.744,175.744l-4.126,0.335l0.335-5.242l4.089-0.513L74.744,175.744z M74.707,143.549l0.223,6.019
	l-3.977,1.64l-0.409-5.837L74.707,143.549z M137.072,158.548l-5.39,0.132l-0.037-8.161l5.464-0.406L137.072,158.548z
	 M136.848,172.253l-5.463-0.127v-7.754l5.576-0.074L136.848,172.253z M130.79,136.333l5.426-1.003l0.595,8.732l-5.521,0.673
	L130.79,136.333z M127.482,172.108l-5.501-0.074l0.372-7.496l5.351-0.161L127.482,172.108z M127.667,150.969v7.971l-5.611,0.298
	l0.111-7.844L127.667,150.969z M127.128,137.061l0.479,8.215l-5.626,0.744l-0.558-7.807L127.128,137.061z M106.098,170.502
	l-0.074-7.546l5.351-0.409l0.072,7.749L106.098,170.502z M111.153,148.866l0.222,8.142l-5.351,0.759l-0.166-7.877L111.153,148.866z
	 M105.224,136.223l5.177-1.767l0.57,8.695l-5.342,1.308L105.224,136.223z M104.082,122.036l5.304-2.376l0.591,8.66l-5.067,1.989
	L104.082,122.036z M102.66,107.118l5.273-2.805l0.895,8.827l-5.331,2.51L102.66,107.118z M102.826,170.687l-5.129,0.335
	l-0.073-7.228l5.315-0.652L102.826,170.687z M102.679,150.672l0.111,7.562l-5.093,0.908l-0.222-7.303L102.679,150.672z
	 M96.897,139.172l5.397-1.972l0.333,7.959l-5.49,1.568L96.897,139.172z M96.106,125.814l5.12-2.378l0.664,7.942l-5.231,2.211
	L96.106,125.814z M95.468,119.944l-0.855-8.2l5.093-3.099l1.003,8.547L95.468,119.944z M89.335,160.65l-0.185-6.877l5.054-1.041
	l0.24,6.969L89.335,160.65z M89.187,171.635l0.148-6.652l4.869-0.726l0.037,7.043L89.187,171.635z M88.848,141.806l5.194-1.842
	l0.221,7.554l-5.158,1.474L88.848,141.806z M88.202,129.591l4.918-2.341l0.608,7.39l-5.065,2.211L88.202,129.591z M87.57,124.256
	l-0.521-7.826l4.888-3.08l0.631,8.192L87.57,124.256z"/>
<path fill="#FFFFFB" d="M197.253,148.885v-0.102c0-0.087-11.683-11.669-35.019-34.686c-15.343-15.126-24.984-24.651-28.922-28.648
	c-0.058-0.058-3.777-3.72-11.128-10.984c-6.986-6.899-10.516-10.385-10.574-10.443c-0.686,0.641-2.057,2.158-4.128,4.594
	c-0.773,0.89-4.215,4.755-10.341,11.567c-0.67,0.773-1.356,1.546-2.027,2.349c-2.436,2.844-11.172,12.675-26.267,29.508
	c-2.042,2.305-3.749,4.245-5.105,5.835c-1.823,2.144-3.734,4.274-5.674,6.359l-0.554,0.569c-1.211,1.328-2.932,3.253-5.119,5.791
	c-0.205,0.233-0.905,0.992-2.115,2.276c-0.175,0.175-0.686,0.758-1.517,1.75c-0.336,0.394-1.882,2.1-4.696,5.149
	c-0.905,0.992-1.619,1.75-2.072,2.319c-0.7,0.817-1.21,1.371-1.546,1.736l-0.525,0.583c-0.904,0.963-1.939,2.101-3.106,3.443
	c-0.336,0.394-0.686,0.788-1.036,1.167c-2.071,2.217-3.106,3.369-3.106,3.457l-0.015,0.146c8.561,8.824,13.579,13.915,15.037,15.33
	c0.452,0.423,0.817,0.788,1.094,1.123c0.408,0.467,0.963,0.992,1.692,1.634c0.613,0.525,4.507,4.492,11.683,11.917l5.163-1.327
	c0.087-0.015,0.277-3.603,0.568-10.721c0.044-1.517,0.117-3.151,0.161-4.887l0.015-0.802l0.116-0.729
	c0.131-0.715,0.073-7.688-0.175-20.888c1.269-0.759,3.296-1.882,6.038-3.399l0.03-1.298c0.32-0.175,1.239-0.657,2.727-1.503
	c0.744-0.408,2.611-1.385,5.601-2.917c1.137-0.598,1.837-0.963,2.085-1.094c-0.029-0.116-0.204-2.232-0.496-6.33
	c-0.058-0.7-0.204-2.013-0.423-3.953c-0.452-3.924-0.685-6.55-0.714-7.892c1.677-1.239,2.756-2.071,3.296-2.465
	c2.027-1.575,3.092-2.406,3.267-2.479c-0.015-0.117-0.029-0.248-0.044-0.365c0-0.131-0.029-0.248-0.044-0.365l-0.014-0.364
	l-0.102-0.73c0.7-0.466,2.786-2.071,6.213-4.842c6.345-5.062,18.406-13.507,19.675-14.339c1.327,1.153,4.697,4.449,10.122,9.919
	c0.657,0.656,2.436,2.582,5.397,5.732l0.51,0.584c0.423,0.423,2.144,19.735,2.173,21.194c1.853-0.452,5.047-1.065,9.583-1.852
	c1.035-0.161,1.56-0.263,1.604-0.278l0.744-0.175c0.292-0.073,3.398,2.028,9.334,6.243c0.832,0.598,2.101,1.547,3.763,2.859
	c3.151,2.436,4.799,3.749,4.974,3.895c0.35,4.959,0.525,9.598,0.525,13.959v0.817l0.116,0.715c0.03,0.291-0.393,13.069-1.108,18.977
	c-0.613,5.017-1.254,8.927-1.94,11.727c0.365,0.204,0.642,0.292,0.773,0.248c0.117-0.044,1.415-1.342,3.909-3.865
	c2.29-2.32,7.57-7.469,15.81-15.462C191.579,154.326,196.888,149.221,197.253,148.885z M36.662,201.846
	c0.058,0.004,1.68-0.631,4.896-1.918c5.562-2.238,12.695-4.792,21.368-7.651c1.481-0.484,16.799-4.952,28.71-5.982
	c6.147-0.531,12.502-0.683,19.069-0.513c4.377,0.123,8.943,0.478,13.714,1.052c6.453,0.761,10.085,1.316,10.852,1.646l0.662,0.147
	c1.005,0.054,3.907,0.808,8.72,2.261c3.307,1.015,6.301,2.141,8.996,3.348c3.743,1.702,6.516,3.28,8.289,4.717l-0.007,0.102
	c-0.029-0.002-0.057-0.019-0.1-0.036c-0.084-0.05-7.112-3.321-10.949-4.504c-8.187-2.576-25.291-6.227-42.6-4.936
	c-15.81,1.188-31.425,4.861-46.813,10.99c-10.639,4.246-19.414,8.37-26.326,12.402l-0.007,0.102
	c0.044,0.003,1.657-0.706,4.852-2.111c2.968-1.304,7.253-3.044,12.855-5.22c7.297-2.822,12.36-4.611,15.176-5.399
	c10.664-2.884,20.21-4.807,28.693-5.734c26.628-2.893,46.036,4.498,49.255,5.741c5.968,2.307,10.479,4.749,13.531,7.384
	c-0.059-0.004-0.752-0.343-2.079-1.033c-11.923-6.091-27.657-8.816-47.204-8.16c-11.238,0.374-28.921,3.935-44.65,10.787
	c-10.304,4.473-17.861,8.315-22.654,11.512l-0.01,0.145c0.028,0.017,0.041,0.032,0.039,0.062c0.182-0.09,0.593-0.326,1.249-0.734
	c1.77-1.093,10.951-5.599,13.045-6.509c9.643-4.211,21.954-8.957,41.018-10.683c25.641-2.346,46.872,5.519,52.321,9.868
	c-0.145-0.025-0.87-0.323-2.162-0.879c-4.302-1.872-6.257-2.576-11.906-3.779c-3.991-0.857-7.857-1.399-11.573-1.579
	c-5.301-0.288-9.743-0.328-13.322-0.148c-2.64,0.127-4.359,0.259-5.171,0.364l-0.693,0.099l-0.376-0.069
	c0.015,0.001,0.03-0.013,0.046-0.026c-0.045,0.011-0.073-0.005-0.101-0.022c-0.135,0.049-2.083,0.326-5.818,0.861
	c-8.043,1.104-15.834,3.233-23.372,6.375c-9.072,3.767-17.789,8.553-21.303,11.209l-0.007,0.101
	c0.116,0.008,1.007-0.413,2.675-1.294c6.487-3.374,13.95-6.271,22.431-8.661c8.526-2.401,18.176-3.717,28.953-3.962
	c2.253-0.037,5.913,0.11,10.963,0.44c0.767,0.05,1.529,0.159,2.296,0.2c2.083,0.113,11.315,1.722,17.954,5.113
	c4.93,2.529,8.677,5.256,11.227,8.164c1.642,1.866,2.675,3.223,3.127,4.087c0.145,0.025,8.488-7.199,25.059-21.684
	c2.332-2.049,3.622-3.174,3.855-3.392c-1.806-2.024-8.688-8.078-17.83-12.722c-3.066-1.569-5.76-2.79-8.053-3.678
	c-0.428-0.16-0.656-0.249-0.698-0.267c-0.483-0.208-0.854-0.336-1.085-0.381c-0.375-0.084-0.631-0.189-0.752-0.343l-0.207,0.044
	l-0.614-0.217c-2.815-0.952-21.047-6.07-35.466-6c-18.997,0.109-35.583,2.589-49.729,7.444c-10.718,3.685-18.872,6.857-24.492,9.515
	C39.02,200.486,36.432,201.787,36.662,201.846z"/>
</svg>
