<?xml version="1.0" encoding="utf-8"?>
<!-- Generator: Adobe Illustrator 16.0.0, SVG Export Plug-In . SVG Version: 6.00 Build 0)  -->
<!DOCTYPE svg PUBLIC "-//W3C//DTD SVG 1.1//EN" "http://www.w3.org/Graphics/SVG/1.1/DTD/svg11.dtd">
<svg version="1.1" xmlns="http://www.w3.org/2000/svg" xmlns:xlink="http://www.w3.org/1999/xlink" x="0px" y="0px" width="775px"
	 height="100px" viewBox="0 0 775 100" enable-background="new 0 0 775 100" xml:space="preserve">
<g id="Layer_2" display="none">
	<rect display="inline" fill-rule="evenodd" clip-rule="evenodd" fill="#22428F" width="775" height="100"/>
</g>
<g id="Layer_1">
	<path fill-rule="evenodd" clip-rule="evenodd" fill="#543935" d="M69.151,40.606l0.057,0.461c0.301,3.611,0.498,8.752,0.676,15.451
		c0.035,2.72-0.096,5.909-0.384,9.525c-0.093,1.166-0.178,1.758-0.178,1.823c0.755,0.073,2.833,0.548,6.221,1.405
		c0.81,0.188,1.56,0.395,2.214,0.639c0.006-0.075,0.093-0.705,0.284-1.856c0.492-3.376,0.847-7.079,0.94-11.159l0.028-0.471
		l0.065-0.375l-0.101-8.771c-0.122-0.067-1.117-0.771-2.94-2.131c-1.182-0.888-2.817-1.97-4.934-3.282
		c-0.375-0.226-0.75-0.469-1.125-0.742C69.43,40.786,69.181,40.606,69.151,40.606z M61.382,41.161v-0.264l-0.035-0.449
		c0-0.084-0.042-0.834-0.092-2.278c-0.096-2.214-0.398-4.762-0.996-7.649l-0.093-0.434c0-0.015-0.107-0.133-0.319-0.321
		c-0.101-0.117-0.654-0.656-1.573-1.597c-0.957-0.994-2.144-2.158-3.562-3.482l-0.301-0.317c-0.132-0.137-0.492-0.452-1.013-0.9
		l-0.35-0.292l-0.346-0.304c-0.516-0.489-0.833-0.795-0.992-0.898c-0.011,0.01,0.198,1.573,0.612,4.67
		c1.319,9.821,2.073,19.707,2.259,29.672c0.085,4.35,0,7.703-0.238,10.05c0.042,0.017,0.087,0.03,0.16,0.03l0.858,0.029
		c0.121,0,0.213-0.014,0.278-0.043c0.092-0.447,0.176-8.271,0.057-10.449c0.014-0.059-0.015-0.822-0.057-2.309
		c-0.012-1.586-0.107-3.268-0.199-5.025c-0.188-3.059-0.283-4.724-0.355-5.016l-0.042-0.438l0.017-0.423L61.382,41.161z
		 M35.467,44.389c0.21,1.865,0.536,9.34,0.536,15.505c-0.006,2.251-0.049,4.62-0.143,7.04c-0.037,0.65-0.044,1-0.037,1.014
		c0.028,0.012,0.037,0.012,0.037,0.02l1.362-0.221l0.017-1.287l0.027-0.5c0.172-3.814,0.143-11.91,0-15.444
		c-0.138-2.977-0.232-4.665-0.291-5.094l-0.083-0.453v-0.263L35.467,44.389z M40.8,34.877l-0.25-3.329l-1.982,1.257l0.2,3.168
		L40.8,34.877z M42.991,30.107l0.361,3.327l2.125-1.11l-0.414-3.469L42.991,30.107z M47.678,27.479l2.136-1.136l0.355,3.585
		l-2.161,1.011L47.678,27.479z M39.237,40.455l1.992-0.959l0.255,2.999l-2.059,0.9L39.237,40.455z M43.832,38.3l2.083-0.972
		l0.263,3.223l-2.108,0.895L43.832,38.3z M48.477,36.143l2.157-0.955l0.232,3.515l-2.063,0.815L48.477,36.143z M51.229,43.704
		l0.23,3.54l-2.176,0.528l-0.149-3.339L51.229,43.704z M46.615,48.484l-0.13-3.226l-2.183,0.8l0.094,3.074L46.615,48.484z
		 M41.797,49.883l-0.086-3.058l-2.108,0.746l0.103,2.922L41.797,49.883z M39.755,54.548l2.063-0.421l0.094,2.842l-2.066,0.392
		L39.755,54.548z M44.677,56.424l2.064-0.375l-0.046-3.082l-2.112,0.477L44.677,56.424z M51.711,55.293l-0.094-3.322l-2.155,0.42
		l0.082,3.189L51.711,55.293z M41.803,60.75l0.015,2.889l-2.063,0.101l0.067-2.687L41.803,60.75z M44.677,60.438l0.035,2.927
		l2.077-0.14l0.044-3.049L44.677,60.438z M49.597,63.063l2.163-0.077l-0.03-3.183l-2.176,0.186L49.597,63.063z M28.889,49.51
		l1.69-0.731l0.089,2.446l-1.605,0.674L28.889,49.51z M32.24,50.622l1.7-0.645l-0.144-2.474l-1.688,0.692L32.24,50.622z
		 M29.201,54.832l1.688-0.659v2.413l-1.688,0.494V54.832z M32.386,53.648l1.577-0.545l0.071,2.57l-1.63,0.434L32.386,53.648z
		 M29.157,59.695l1.688-0.458v2.237l-1.763,0.301L29.157,59.695z M32.439,61.117l-0.036-2.255l1.647-0.358l0.044,2.348
		L32.439,61.117z M28.935,66.459l1.673-0.102l0.132-2.23l-1.673,0.223L28.935,66.459z M32.158,66.179l1.764-0.183l0.043-2.23
		l-1.669,0.254L32.158,66.179z M58.823,63.971l2.244,0.049l0.092-3.166l-2.154,0.072L58.823,63.971z M64.266,64.02l2.241,0.047
		l0.029-3.234l-2.271,0.027V64.02z M64.444,56.143l2.164-0.059l0.025-3.411l-2.196,0.167L64.444,56.143z M61.159,56.365v-3.225
		l-2.251,0.186l-0.029,3.18L61.159,56.365z M64.16,47.981l2.251-0.268l-0.235-3.552l-2.203,0.418L64.16,47.981z M61.067,48.474
		l-0.188-3.34L58.538,45.6l0.253,3.157L61.067,48.474z"/>
	<path fill-rule="evenodd" clip-rule="evenodd" fill="#946B4C" d="M68.569,40.411l-12.85,2.766l-0.069-0.029
		c0.069,0.264,0.54,5.916,0.632,10.556c0.03,2.438,0.086,3.944,0.096,4.587c0.013,0.571-0.037,2.541-0.188,5.917
		c-0.035,1.4-0.092,2.158-0.092,2.251c3.523,0.002,10.499,0.758,12.098,1.172l0.451,0.121h0.186l0.292-5.219l0.1-6.102
		c0.085-4.578-0.091-9.222-0.498-13.958l-0.058-0.469l-0.007-0.458c-0.015-0.104-0.042-0.245-0.058-0.463l-0.035-0.437V40.411z
		 M50.958,21.672c-0.135-0.02-1.668,0.979-4.645,3.004c-3.52,2.37-6.367,4.386-8.534,6.063c-0.888,0.667-1.363,1.032-1.47,1.096
		c0.025,0.093,1.757,14.359,1.747,27.17c0,2.951-0.04,5.202-0.121,6.799c0,0.043-0.013,0.654-0.058,1.844
		c2.691-0.439,5.297-0.783,7.813-1.002c1.995-0.152,4.615-0.258,7.894-0.28c0-0.071,0.017-0.69,0.095-1.876
		c0.146-2.814,0.236-4.972,0.236-6.473c0.017-8.434-0.563-17.524-1.737-27.292C51.446,24.701,51.037,21.7,50.958,21.672z
		 M27.375,69.831h0.12l0.442-0.12c2.614-0.648,4.757-1.139,6.451-1.459l0.462-0.096c0.093-0.01,0.213-0.076,0.332-0.197
		c0.516-7.314-0.107-21.406-0.332-23.379c-0.022,0-0.024-0.014-0.039-0.043c-2.748,1.313-5.146,2.532-7.25,3.666
		c0.188,1.352,0.25,9.252,0.138,12.817c-0.127,3.9-0.188,6.057-0.22,6.472C27.417,68.787,27.375,69.555,27.375,69.831z
		 M32.091,61.676l-0.041-3.195l2.353-0.535l0.05,3.355L32.091,61.676z M34.286,66.459l-2.514,0.205l0.198-3.039l2.39-0.354
		L34.286,66.459z M34.387,56.143l-2.322,0.6l-0.049-3.507l2.271-0.767L34.387,56.143z M34.128,46.835l0.198,3.523l-2.434,0.907
		l-0.161-3.446L34.128,46.835z M31.252,56.986l-2.426,0.734v-3.195l2.426-0.975V56.986z M31.22,61.863l-2.519,0.469l0.097-3.001
		l2.421-0.656V61.863z M30.939,66.781l-2.394,0.199l0.197-3.053l2.384-0.282L30.939,66.781z M30.934,48.105l0.121,3.504
		l-2.312,0.963l-0.239-3.393L30.934,48.105z M67.077,56.799l-3.104,0.094l-0.015-4.738l3.155-0.232L67.077,56.799z M66.974,64.771
		l-3.188-0.093v-4.502l3.249-0.018L66.974,64.771z M63.444,43.927l3.154-0.577l0.352,5.064l-3.21,0.39L63.444,43.927z
		 M61.534,64.678l-3.188-0.045l0.194-4.363l3.11-0.094L61.534,64.678z M61.63,52.4v4.643l-3.252,0.162l0.064-4.532L61.63,52.4z
		 M61.344,44.349l0.274,4.77l-3.272,0.436l-0.328-4.544L61.344,44.349z M49.134,63.739l-0.049-4.38l3.098-0.216l0.046,4.498
		L49.134,63.739z M52.06,51.18l0.122,4.746l-3.098,0.42l-0.094-4.549L52.06,51.18z M48.615,43.869l3.002-1.02l0.33,5.027
		l-3.095,0.765L48.615,43.869z M47.959,35.627l3.082-1.36l0.344,5.017l-2.952,1.151L47.959,35.627z M47.134,26.992l3.065-1.635
		l0.521,5.112l-3.09,1.455L47.134,26.992z M47.232,63.833l-2.975,0.196l-0.049-4.17l3.095-0.381L47.232,63.833z M47.153,52.238
		l0.056,4.373l-2.952,0.563l-0.134-4.242L47.153,52.238z M43.788,45.569l3.139-1.13l0.188,4.6l-3.189,0.92L43.788,45.569z
		 M43.331,37.831l2.98-1.382l0.384,4.613l-3.048,1.271L43.331,37.831z M42.965,34.418l-0.49-4.746l2.952-1.798l0.572,4.947
		L42.965,34.418z M39.414,58.018l-0.118-3.969l2.942-0.626l0.143,4.04L39.414,58.018z M39.331,64.395l0.083-3.844l2.825-0.434
		l0.009,4.091L39.331,64.395z M39.13,47.109l3.014-1.071l0.125,4.372l-2.984,0.856L39.13,47.109z M38.756,40.023l2.846-1.356
		l0.354,4.276l-2.943,1.283L38.756,40.023z M38.393,36.93l-0.314-4.538l2.846-1.783l0.363,4.737L38.393,36.93z"/>
	<path fill-rule="evenodd" clip-rule="evenodd" fill="#FFFFFB" d="M101.987,51.199v-0.035c0-0.082-6.781-6.777-20.286-20.132
		c-8.912-8.769-14.514-14.302-16.79-16.606c-0.023-0.041-2.18-2.157-6.469-6.372C54.407,4.049,52.367,2.024,52.323,2
		c-0.389,0.369-1.183,1.241-2.394,2.658c-0.444,0.517-2.438,2.751-6.002,6.71c-0.376,0.437-0.781,0.9-1.17,1.363
		c-1.407,1.653-6.471,7.343-15.237,17.11c-1.176,1.331-2.163,2.456-2.958,3.39c-1.05,1.228-2.157,2.474-3.283,3.676l-0.331,0.331
		c-0.701,0.78-1.688,1.894-2.953,3.359c-0.136,0.14-0.531,0.571-1.231,1.313c-0.107,0.106-0.411,0.451-0.88,1.032
		c-0.191,0.227-1.092,1.219-2.72,2.979c-0.529,0.584-0.938,1.007-1.219,1.335c-0.395,0.476-0.701,0.797-0.889,1.021l-0.3,0.339
		c-0.53,0.562-1.124,1.219-1.812,1.989c-0.188,0.224-0.383,0.472-0.597,0.66c-1.188,1.313-1.792,1.97-1.792,2.027l-0.005,0.078
		c4.961,5.116,7.873,8.072,8.72,8.877c0.249,0.271,0.477,0.459,0.62,0.648c0.238,0.28,0.558,0.584,0.983,0.953
		c0.37,0.322,2.626,2.609,6.787,6.924l2.989-0.751c0.053-0.013,0.166-2.106,0.33-6.235c0.023-0.893,0.067-1.83,0.093-2.85
		l0.015-0.463l0.053-0.393c0.092-0.439,0.049-4.49-0.094-12.122c0.741-0.452,1.919-1.099,3.506-1.971l0.013-0.754
		c0.188-0.107,0.713-0.385,1.589-0.885c0.425-0.234,1.506-0.797,3.238-1.688c0.657-0.339,1.075-0.563,1.219-0.631
		c-0.027-0.072-0.133-1.292-0.29-3.68c-0.035-0.395-0.129-1.165-0.253-2.289c-0.251-2.263-0.394-3.799-0.408-4.563
		c0.964-0.729,1.601-1.216,1.903-1.445c1.178-0.896,1.802-1.388,1.908-1.427c-0.015-0.079-0.029-0.146-0.043-0.22
		c0-0.072-0.003-0.141-0.011-0.205l-0.014-0.218l-0.067-0.422c0.42-0.274,1.63-1.201,3.609-2.813
		c3.684-2.925,10.684-7.831,11.409-8.3c0.783,0.657,2.727,2.579,5.869,5.745c0.375,0.384,1.408,1.495,3.13,3.32l0.306,0.346
		c0.225,0.249,1.254,11.447,1.254,12.295c1.074-0.276,2.91-0.624,5.544-1.073c0.625-0.094,0.929-0.158,0.929-0.173l0.467-0.106
		c0.156-0.04,1.971,1.178,5.395,3.627c0.493,0.357,1.218,0.901,2.199,1.67c1.795,1.407,2.763,2.157,2.869,2.251
		c0.214,2.867,0.32,5.57,0.32,8.096v0.479l0.049,0.405c0.029,0.188-0.23,7.597-0.632,10.999c-0.349,2.91-0.725,5.189-1.125,6.82
		c0.212,0.095,0.37,0.17,0.434,0.129c0.058-0.034,0.808-0.785,2.278-2.236c1.338-1.362,4.378-4.344,9.153-8.959
		C98.692,54.36,101.772,51.398,101.987,51.199z M8.853,81.935c0.046,0,0.984-0.375,2.857-1.125
		c3.218-1.313,7.362-2.788,12.383-4.425c0.854-0.279,9.752-2.891,16.645-3.469c3.564-0.326,7.263-0.41,11.067-0.309
		c2.532,0.055,5.185,0.273,7.95,0.604c3.752,0.462,5.841,0.75,6.281,0.939l0.378,0.094c0.597,0.041,2.276,0.468,5.062,1.313
		c1.938,0.59,3.66,1.24,5.248,1.969c2.164,0.959,3.756,1.875,4.79,2.721v0.064c-0.003-0.002-0.029-0.02-0.071-0.035
		c-0.025-0.029-4.123-1.904-6.331-2.604c-4.761-1.488-14.692-3.615-24.714-2.865c-9.172,0.68-18.231,2.813-27.149,6.378
		c-6.172,2.44-11.254,4.865-15.27,7.198l-0.007,0.035c0.033,0.004,0.971-0.389,2.814-1.227c1.721-0.755,4.209-1.754,7.455-3.006
		c4.239-1.641,7.165-2.684,8.804-3.131c6.189-1.663,11.723-2.779,16.65-3.342c15.425-1.684,26.681,2.627,28.542,3.35
		c3.462,1.34,6.089,2.748,7.868,4.258c-0.035-0.004-0.456-0.197-1.217-0.572C71.968,81.186,62.847,79.615,51.523,80
		c-6.516,0.237-16.787,2.304-25.894,6.249c-5.989,2.623-10.354,4.837-13.143,6.675l-0.01,0.078c0.027,0.016,0.031,0.031,0.031,0.061
		c0.094-0.062,0.331-0.189,0.713-0.437c1.024-0.642,6.365-3.245,7.576-3.751c5.591-2.442,12.719-5.219,23.786-6.198
		c14.884-1.394,27.177,3.197,30.356,5.725c-0.086-0.024-0.53-0.188-1.277-0.538c-2.47-1.058-3.609-1.49-6.881-2.177
		c-2.336-0.489-4.587-0.829-6.746-0.938c-3.062-0.152-5.636-0.188-7.711-0.082c-1.528,0.082-2.533,0.176-3.001,0.229l-0.392,0.041
		l-0.22-0.013c0,0.002,0.01-0.011,0.026-0.024c-0.026,0.012-0.039-0.006-0.067-0.021c-0.067,0.048-1.2,0.189-3.373,0.521
		c-4.652,0.63-9.177,1.875-13.555,3.665c-5.259,2.197-10.317,4.969-12.337,6.516l-0.007,0.05c0.051,0,0.569-0.226,1.551-0.751
		c3.752-1.965,8.077-3.639,12.993-5.01c4.958-1.382,10.548-2.154,16.792-2.306c1.308,0,3.433,0.084,6.376,0.277
		c0.428,0.003,0.86,0.09,1.333,0.098c1.212,0.078,6.564,1.011,10.407,2.974c2.844,1.443,5.028,3.029,6.492,4.718
		c0.962,1.101,1.574,1.875,1.834,2.372c0.078,0.023,4.9-4.156,14.531-12.582c1.341-1.166,2.091-1.814,2.225-1.965
		c-1.057-1.144-5.02-4.682-10.354-7.355c-1.776-0.916-3.318-1.637-4.659-2.137c-0.225-0.092-0.383-0.16-0.405-0.18
		c-0.284-0.1-0.472-0.195-0.63-0.195c-0.217-0.064-0.359-0.103-0.414-0.188l-0.138,0.001l-0.343-0.105
		c-1.658-0.55-12.215-3.551-20.587-3.486c-11.015,0.041-20.634,1.502-28.838,4.318c-6.204,2.123-10.929,3.963-14.203,5.508
		C10.226,81.131,8.725,81.887,8.853,81.935z"/>
</g>
<g id="Layer_3">
	<path fill-rule="evenodd" clip-rule="evenodd" fill="#FFFFFF" d="M104.249,24.955h1.922v7.653h-1.922V24.955z M105.21,21.803
		c0.335,0,0.624,0.128,0.865,0.37c0.243,0.242,0.362,0.537,0.362,0.884c0,0.34-0.119,0.636-0.358,0.876
		c-0.239,0.238-0.524,0.361-0.854,0.361c-0.344,0-0.635-0.127-0.873-0.37c-0.244-0.247-0.365-0.545-0.365-0.897
		c0-0.333,0.121-0.627,0.359-0.864C104.585,21.926,104.875,21.803,105.21,21.803z"/>
	<path fill-rule="evenodd" clip-rule="evenodd" fill="#FFFFFF" d="M108.271,24.955h1.921v0.786c0.435-0.369,0.833-0.621,1.185-0.765
		c0.352-0.147,0.716-0.218,1.084-0.218c0.761,0,1.402,0.264,1.932,0.793c0.442,0.45,0.667,1.117,0.667,2v5.058h-1.898v-3.354
		c0-0.91-0.039-1.519-0.126-1.817c-0.082-0.3-0.224-0.53-0.427-0.684c-0.204-0.159-0.455-0.238-0.755-0.238
		c-0.386,0-0.721,0.134-0.998,0.389c-0.277,0.265-0.47,0.619-0.575,1.078c-0.059,0.238-0.09,0.758-0.09,1.551v3.075h-1.921V24.955z"
		/>
	<path fill-rule="evenodd" clip-rule="evenodd" fill="#FFFFFF" d="M120.905,26.528c-0.598,0-1.088,0.214-1.478,0.634
		c-0.395,0.418-0.589,0.95-0.589,1.607c0,0.662,0.199,1.209,0.597,1.631c0.403,0.43,0.89,0.644,1.474,0.644
		c0.605,0,1.107-0.206,1.5-0.632c0.398-0.418,0.598-0.969,0.598-1.646c0-0.661-0.2-1.206-0.598-1.623
		C122.016,26.735,121.51,26.528,120.905,26.528z M122.921,22.003h1.918v10.604h-1.918v-0.81c-0.375,0.355-0.747,0.61-1.128,0.771
		c-0.38,0.153-0.785,0.233-1.224,0.233c-0.989,0-1.842-0.386-2.562-1.15c-0.728-0.767-1.086-1.717-1.086-2.854
		c0-1.179,0.351-2.148,1.047-2.907c0.7-0.759,1.546-1.133,2.542-1.133c0.46,0,0.893,0.09,1.294,0.263
		c0.399,0.172,0.777,0.43,1.116,0.776V22.003z"/>
	<path fill-rule="evenodd" clip-rule="evenodd" fill="#FFFFFF" d="M132.888,27.828c-0.128-0.429-0.38-0.773-0.753-1.044
		c-0.375-0.269-0.803-0.404-1.299-0.404c-0.533,0-1.003,0.154-1.404,0.452c-0.256,0.19-0.492,0.518-0.706,0.996H132.888z
		 M134.804,29.336h-6.163c0.089,0.542,0.322,0.978,0.713,1.299c0.385,0.318,0.877,0.484,1.48,0.484c0.716,0,1.334-0.255,1.847-0.759
		l1.619,0.762c-0.405,0.57-0.89,0.998-1.45,1.269c-0.561,0.272-1.23,0.41-2.002,0.41c-1.201,0-2.177-0.377-2.929-1.135
		c-0.76-0.752-1.133-1.706-1.133-2.841c0-1.168,0.373-2.138,1.125-2.908c0.752-0.771,1.696-1.16,2.831-1.16
		c1.205,0,2.183,0.389,2.941,1.16c0.756,0.77,1.13,1.784,1.13,3.056L134.804,29.336z"/>
	<path fill-rule="evenodd" clip-rule="evenodd" fill="#FFFFFF" d="M140.644,26.528c-0.605,0-1.107,0.207-1.506,0.615
		c-0.397,0.417-0.596,0.961-0.596,1.623c0,0.678,0.199,1.229,0.596,1.646c0.398,0.426,0.901,0.632,1.506,0.632
		c0.586,0,1.082-0.214,1.482-0.644c0.399-0.422,0.6-0.969,0.6-1.631c0-0.657-0.201-1.189-0.589-1.607
		C141.742,26.742,141.244,26.528,140.644,26.528z M138.624,24.955v0.843c0.35-0.346,0.723-0.604,1.127-0.776
		c0.404-0.173,0.835-0.263,1.292-0.263c0.998,0,1.847,0.374,2.55,1.133c0.697,0.758,1.049,1.728,1.049,2.907
		c0,1.137-0.366,2.087-1.089,2.854c-0.723,0.764-1.575,1.15-2.565,1.15c-0.44,0-0.852-0.08-1.231-0.233
		c-0.38-0.161-0.758-0.415-1.133-0.771V35.4h-1.904V24.955H138.624z"/>
	<path fill-rule="evenodd" clip-rule="evenodd" fill="#FFFFFF" d="M152.329,27.828c-0.123-0.429-0.375-0.773-0.749-1.044
		c-0.373-0.269-0.804-0.404-1.298-0.404c-0.536,0-1.005,0.154-1.41,0.452c-0.254,0.19-0.486,0.518-0.702,0.996H152.329z
		 M154.254,29.336h-6.167c0.087,0.542,0.325,0.978,0.712,1.299c0.386,0.318,0.881,0.484,1.479,0.484
		c0.716,0,1.333-0.255,1.853-0.759l1.619,0.762c-0.407,0.57-0.893,0.998-1.452,1.269c-0.56,0.272-1.229,0.41-2.006,0.41
		c-1.197,0-2.179-0.377-2.929-1.135c-0.757-0.752-1.135-1.706-1.135-2.841c0-1.168,0.377-2.138,1.131-2.908
		c0.749-0.771,1.692-1.16,2.828-1.16c1.206,0,2.186,0.389,2.939,1.16c0.751,0.77,1.132,1.784,1.132,3.056L154.254,29.336z"/>
	<path fill-rule="evenodd" clip-rule="evenodd" fill="#FFFFFF" d="M156.165,24.955h1.921v0.786c0.436-0.369,0.829-0.621,1.18-0.765
		c0.358-0.147,0.717-0.218,1.087-0.218c0.759,0,1.404,0.264,1.934,0.793c0.445,0.45,0.664,1.117,0.664,2v5.058h-1.896v-3.354
		c0-0.91-0.042-1.519-0.125-1.817c-0.083-0.3-0.223-0.53-0.425-0.684c-0.208-0.159-0.456-0.238-0.755-0.238
		c-0.386,0-0.723,0.134-0.997,0.389c-0.282,0.265-0.474,0.619-0.581,1.078c-0.054,0.238-0.084,0.758-0.084,1.551v3.075h-1.921
		V24.955z"/>
	<path fill-rule="evenodd" clip-rule="evenodd" fill="#FFFFFF" d="M168.797,26.528c-0.594,0-1.088,0.214-1.479,0.634
		c-0.393,0.418-0.587,0.95-0.587,1.607c0,0.662,0.197,1.209,0.597,1.631c0.404,0.43,0.89,0.644,1.479,0.644
		c0.597,0,1.102-0.206,1.498-0.632c0.397-0.418,0.593-0.969,0.593-1.646c0-0.661-0.196-1.206-0.593-1.623
		C169.908,26.735,169.403,26.528,168.797,26.528z M170.818,22.003h1.917v10.604h-1.917v-0.81c-0.378,0.355-0.753,0.61-1.133,0.771
		c-0.375,0.153-0.783,0.233-1.223,0.233c-0.985,0-1.842-0.386-2.565-1.15c-0.723-0.767-1.081-1.717-1.081-2.854
		c0-1.179,0.349-2.148,1.044-2.907c0.701-0.759,1.549-1.133,2.546-1.133c0.457,0,0.889,0.09,1.288,0.263
		c0.405,0.172,0.777,0.43,1.123,0.776V22.003z"/>
	<path fill-rule="evenodd" clip-rule="evenodd" fill="#FFFFFF" d="M180.781,27.828c-0.129-0.429-0.382-0.773-0.75-1.044
		c-0.377-0.269-0.805-0.404-1.305-0.404c-0.534,0-1.006,0.154-1.404,0.452c-0.252,0.19-0.491,0.518-0.706,0.996H180.781z
		 M182.701,29.336h-6.168c0.086,0.542,0.325,0.978,0.717,1.299c0.384,0.318,0.876,0.484,1.477,0.484
		c0.717,0,1.331-0.255,1.844-0.759l1.62,0.762c-0.4,0.57-0.883,0.998-1.448,1.269c-0.562,0.272-1.229,0.41-2.006,0.41
		c-1.195,0-2.178-0.377-2.927-1.135c-0.758-0.752-1.136-1.706-1.136-2.841c0-1.168,0.377-2.138,1.128-2.908
		c0.754-0.771,1.694-1.16,2.828-1.16c1.208,0,2.186,0.389,2.941,1.16c0.757,0.77,1.132,1.784,1.132,3.056L182.701,29.336z"/>
	<path fill-rule="evenodd" clip-rule="evenodd" fill="#FFFFFF" d="M184.615,24.955h1.923v0.786c0.431-0.369,0.822-0.621,1.18-0.765
		c0.351-0.147,0.712-0.218,1.081-0.218c0.759,0,1.405,0.264,1.933,0.793c0.446,0.45,0.667,1.117,0.667,2v5.058h-1.896v-3.354
		c0-0.91-0.042-1.519-0.122-1.817c-0.082-0.3-0.226-0.53-0.431-0.684c-0.203-0.159-0.456-0.238-0.755-0.238
		c-0.387,0-0.721,0.134-0.999,0.389c-0.28,0.265-0.471,0.619-0.578,1.078c-0.056,0.238-0.08,0.758-0.08,1.551v3.075h-1.923V24.955z"
		/>
	<path fill-rule="evenodd" clip-rule="evenodd" fill="#FFFFFF" d="M193.85,22.136h1.917v2.818h1.139v1.658h-1.139v5.996h-1.917
		v-5.996h-0.984v-1.658h0.984V22.136z"/>
</g>
<g id="Layer_4">
	<path fill-rule="evenodd" clip-rule="evenodd" fill="#FFFFFF" d="M328.836,56.553c-0.208-0.069-0.724-0.223-1.037-0.069
		c-0.94,0.485-1.626,1.456-2.426,2.566c-1.354,1.94-3.218,4.575-7.212,4.574c-11.39-0.068-15.43-10.812-15.43-20.818
		c0-10.92,5.655-13.936,9.048-14.768c4.962-1.179,9.58,1.174,12.377,6.266c0.381,0.702,0.52,1.375,0.52,2.019
		c0,0.991-0.341,1.892-0.619,2.625c-0.277,0.737-0.519,1.391-0.519,2.137c0,0.715,0.224,1.513,0.834,2.536
		c0.64,0.502,3.053,1.161,4.224,0.745l0.564-0.208c1.121-0.381,2.005-0.668,2.558-7.815c0.343-4.422-0.965-8.257-3.855-11.389
		c-4.723-5.096-12.23-6.997-15.877-6.997c-12.461,0-22.603,14.483-22.603,32.268c0,13.053,7.294,32.397,22.935,32.397
		c6.891,0,12.532-3.571,14.466-5.825c1.886-2.218,5.085-7.002,5.085-10.858c0-4.543-0.739-6.613-1.121-7.723
		C330.571,57.79,329.778,56.937,328.836,56.553z M223.883,75.439c0,0-0.411-1.275-0.411-1.276c-0.685-2.357-4.09-20.746-4.09-35.933
		c0-2.253,0.073-4.436,0.235-6.481c0.215-2.601,0.318-4.724,0.318-6.479c0-4.742-0.683-6.614-1.362-7.305
		c-0.621-0.615-1.828-0.57-3.76-0.439l-0.897,0.046l-0.096,0.017l-1.354-0.09c-2.391-0.182-3.911-0.232-4.845,0.726
		c-0.862,0.869-1.756,2.996-1.756,8.115c0,1.493,0.077,3.251,0.257,5.305c0.179,2.066,0.251,4.273,0.251,6.552
		c0,15.167-3.418,33.507-4.106,35.869l-0.408,1.277c-0.272,0.773-0.503,1.457-0.503,2.011c0,0-0.005,0.637-0.005,0.759
		c0,1.881,0.161,2.828,1.256,3.398c0.761,0.323,5.124,0.975,10.441,1c5.399-0.025,9.38-0.582,10.035-0.879
		c1.141-0.601,1.303-1.506,1.303-3.425c0-0.091-0.002-0.718-0.002-0.718C224.386,76.937,224.145,76.243,223.883,75.439z
		 M265.507,17.914c-0.116,0.003-9.086,0.588-9.086,0.588l-8.981-0.09c-9.038-0.079-13.411,2.04-17.074,15.404
		c-0.424,1.539-0.321,2.747,0.292,3.549c0.673,0.894,1.959,1.283,2.914,1.283c2.529,0,4.79-3.675,6.001-5.651l0.546-0.843
		c0.776-1.243,1.39-1.964,1.742-2.396l0.204-0.259c0,0-0.034,0.035-0.034,0.042c0.366-0.579,1.628-1.846,3.02-1.829
		c4.02,0.052,4.068,4.28,4.144,10.681c0.011,0.36,0.011,0.711,0.011,1.06c0,9.264-1.245,14.014-3.61,23.135
		c-0.93,3.495-1.961,7.471-3.18,12.622c-0.228,0.968-0.454,1.521-0.606,1.868c0,0-0.028,0.119-0.058,0.14v0.058
		c0.04,0.964,2.813,4.587,15.709,4.771c8.712-0.115,13.692-2.055,13.692-5.268v-0.047c-0.025-0.054-0.06-0.141-0.06-0.141
		c-0.15-0.356-0.377-0.898-0.597-1.87c-1.235-5.182-2.264-9.152-3.188-12.662c-2.358-9.108-3.606-13.841-3.606-23.097
		c0-0.347,0-0.708,0.013-1.075c0.054-5.11,0.454-10.113,4.414-10.113c0.743,0,1.397,0.21,2.093,0.683l-0.074-0.061
		c0.765,0.427,1.284,0.997,2.69,3.319l0.28,0.452c1.127,1.941,3.53,5.99,6.221,5.99c0.96,0,2.24-0.407,2.909-1.286
		c0.615-0.812,0.72-2,0.296-3.558C278.876,19.991,274.52,17.844,265.507,17.914z M327.867,77.716
		c-2.182,2.55-8.116,6.361-15.55,6.361c-9.442,0-15.218-6.361-18.39-11.667c-3.739-6.262-5.968-14.54-5.968-22.185
		c0-18.582,10.765-33.697,24.026-33.697c3.868,0,11.897,2.022,16.923,7.455c3.187,3.432,4.614,7.627,4.232,12.479
		c-0.628,8.078-1.837,8.494-3.515,9.052l-0.541,0.197c-1.911,0.701-5.395-0.443-5.865-1.23c-1.731-2.784-1.072-4.517-0.506-6.043
		c0.41-1.104,0.851-2.235,0.19-3.434c-3.564-6.505-8.73-6.063-10.803-5.576c-2.974,0.728-7.941,3.431-7.941,13.378
		c0,4.533,1.006,19.296,14.006,19.363c3.254,0.019,4.742-2.08,6.038-3.936c0.859-1.195,1.67-2.374,2.936-3.015
		c0.759-0.399,1.626-0.201,2.219,0.017c1.211,0.48,2.388,1.53,2.736,2.496c0.418,1.179,1.212,3.397,1.212,8.208
		C333.307,70.22,329.879,75.355,327.867,77.716z M333.439,57.246c-0.487-1.336-1.963-2.71-3.563-3.34
		c-1.248-0.474-2.425-0.474-3.41,0.032c-1.563,0.815-2.512,2.189-3.429,3.472c-1.27,1.787-2.354,3.355-4.871,3.333
		c-11.674-0.04-12.583-13.742-12.583-17.937c0-6.653,2.435-10.898,6.861-11.99c1.733-0.404,6.119-0.765,9.188,4.87
		c0.339,0.603,0.139,1.191-0.25,2.242c-0.624,1.654-1.489,3.911,0.622,7.304c0.903,1.491,5.133,2.72,7.571,1.819l0.506-0.183
		c2.351-0.781,3.827-1.705,4.49-10.302c0.408-5.252-1.146-9.811-4.609-13.555c-5.333-5.766-13.852-7.91-17.978-7.91
		c-6.888,0-13.32,3.68-18.121,10.37c-4.731,6.603-7.35,15.394-7.35,24.754c0,7.876,2.306,16.449,6.171,22.9
		c3.373,5.654,9.505,12.374,19.632,12.374c7.919,0,14.281-4.094,16.633-6.83c0.593-0.693,5.783-6.933,5.783-12.73
		C334.733,60.891,333.897,58.514,333.439,57.246z M223.755,82.899c-0.968,0.485-5.512,1.037-10.706,1.041
		c-4.973-0.004-10.028-0.627-11.069-1.168c-1.918-0.981-2.057-2.819-2.057-4.529V77.77v-0.417c0-0.765,0.27-1.578,0.577-2.495
		l0.397-1.189c0.671-2.347,4.047-20.443,4.047-35.417c0-2.257-0.08-4.436-0.25-6.49c-0.175-2.022-0.262-3.828-0.262-5.455
		c0-4.64,0.721-7.629,2.169-9.088c1.47-1.489,3.657-1.327,5.971-1.152l1.233,0.083l0.035-0.002l0.884-0.061
		c2.106-0.139,3.767-0.246,4.874,0.874c1.187,1.215,1.769,3.905,1.769,8.305c0,1.879-0.103,4.088-0.312,6.617
		c-0.166,1.918-0.235,3.994-0.235,6.16c0,14.515,3.196,32.863,4.022,35.708c0,0.005,0.388,1.244,0.388,1.244
		c0.325,0.903,0.589,1.682,0.589,2.495v0.418c0.006,0.14,0.006,0.279,0.006,0.432C225.825,80.058,225.678,81.918,223.755,82.899z
		 M212.99,85.362c4.373-0.034,9.835-0.451,11.339-1.214c2.899-1.463,2.879-4.248,2.857-6.283l-0.012-0.411
		c0-1.012-0.304-1.973-0.64-2.944l-0.383-1.178c-0.662-2.291-5.012-26.019-3.735-41.353c0.762-9.14,0.209-13.927-1.861-16.04
		c-1.566-1.593-3.712-1.453-5.993-1.298c0,0-0.755,0.048-0.831,0.05c-0.066-0.001-1.117-0.071-1.117-0.071
		c-2.538-0.201-5.165-0.391-7.099,1.563c-2.3,2.322-3.038,7.312-2.314,15.684c1.301,15.307-3.068,39.038-3.747,41.375l-0.372,1.13
		c-0.339,1.015-0.657,1.941-0.657,2.978l-0.005,0.414c-0.014,2.016-0.035,4.79,2.843,6.284
		C202.652,84.748,208.025,85.328,212.99,85.362z M283.393,37.742c-1.039,1.355-2.841,1.841-4.053,1.841
		c-3.505,0-6.075-4.35-7.455-6.69l-0.277-0.451c-1.351-2.23-1.735-2.561-2.151-2.791l-0.035-0.018
		c-0.448-0.309-0.821-0.417-1.291-0.417c-1.822,0-2.901,1.421-2.973,8.685c0,0.364,0,0.71,0,1.056
		c0,9.074,1.211,13.754,3.539,22.735c0.928,3.528,1.964,7.495,3.189,12.686c0.206,0.885,0.396,1.312,0.537,1.652
		c0.127,0.288,0.162,0.42,0.162,0.746c0,4.183-5.36,6.557-15.121,6.683c-13.557-0.158-17.134-4.119-17.134-6.179
		c0-0.343,0.029-0.45,0.149-0.759c0.141-0.346,0.344-0.763,0.551-1.64c1.217-5.166,2.252-9.158,3.172-12.643
		c2.342-9.014,3.555-13.712,3.555-22.794c0-0.347,0-0.693,0-1.04c-0.076-7.669-0.555-9.226-2.71-9.257
		c-0.706-0.004-1.587,0.798-1.797,1.145l-0.277,0.38c-0.347,0.397-0.901,1.076-1.664,2.254l-0.496,0.818
		c-1.473,2.371-3.925,6.344-7.239,6.344c-1.21,0-3.011-0.482-4.053-1.857c-0.901-1.179-1.077-2.796-0.53-4.792
		c3.9-14.188,8.851-16.543,18.475-16.459l8.914,0.083l9.123-0.585c9.573-0.085,14.508,2.271,18.422,16.456
		C284.465,34.938,284.295,36.553,283.393,37.742z M265.435,15.042c0,0-9.042,0.585-9.091,0.587c-0.061,0-8.866-0.075-8.866-0.075
		c-9.98-0.098-15.768,2.585-19.872,17.508c-0.837,3.054-0.033,4.972,0.777,6.036c1.356,1.794,3.565,2.426,5.19,2.426
		c4.127,0,6.833-4.402,8.441-7.033l0.506-0.788c0.723-1.104,1.214-1.713,1.559-2.128l0.408-0.521
		c0.077-0.136,0.426-0.416,0.599-0.481c0.59,0.022,1.145,0.259,1.239,7.846c0.006,0.341,0.01,0.679,0.01,1.021
		c0,8.915-1.213,13.528-3.523,22.423c-0.879,3.348-1.958,7.503-3.174,12.709c-0.198,0.715-0.34,1.103-0.477,1.396
		c-0.141,0.348-0.279,0.693-0.279,1.313c0,0.755,0.528,7.381,18.582,7.63c0.034,0-0.017,0,0.002,0
		c13.689-0.194,16.567-4.521,16.567-8.134c0-0.614-0.139-0.948-0.297-1.299c-0.119-0.309-0.273-0.688-0.464-1.42
		c-1.216-5.211-2.292-9.383-3.183-12.72c-2.377-9.222-3.599-13.831-3.488-23.419c0.015-3.328,0.292-5.581,0.775-6.659
		c0.277-0.619,0.452-0.619,0.754-0.619c0.115,0,0.216,0,0.529,0.207c0.036,0.013,0.104,0.063,0.104,0.063
		c0.11,0.047,0.349,0.195,1.605,2.269c-0.005,0,0.269,0.442,0.269,0.442c1.525,2.591,4.368,7.396,8.703,7.396
		c1.627,0,3.844-0.636,5.194-2.407c0.805-1.072,1.616-2.991,0.769-6.051C281.202,17.639,275.404,14.962,265.435,15.042z"/>
</g>
<g id="Layer_5">
	<path fill-rule="evenodd" clip-rule="evenodd" fill="#FFFFFF" d="M346.657,70.424h1.971v2.902h1.161v1.683h-1.161v6.153h-1.971
		v-6.153h-1.006v-1.683h1.006V70.424z"/>
	<path fill-rule="evenodd" clip-rule="evenodd" fill="#FFFFFF" d="M357.113,76.251c-0.131-0.427-0.4-0.775-0.775-1.053
		c-0.391-0.274-0.817-0.413-1.333-0.413c-0.547,0-1.029,0.146-1.439,0.461c-0.257,0.183-0.51,0.523-0.735,1.005H357.113z
		 M359.067,77.808h-6.308c0.078,0.559,0.33,1.001,0.724,1.334c0.392,0.324,0.902,0.495,1.514,0.495c0.741,0,1.366-0.271,1.902-0.777
		l1.655,0.781c-0.407,0.58-0.912,1.022-1.494,1.305c-0.565,0.279-1.252,0.422-2.051,0.422c-1.215,0-2.234-0.397-3.007-1.171
		c-0.769-0.771-1.149-1.745-1.149-2.913c0-1.193,0.381-2.192,1.148-2.981c0.773-0.786,1.733-1.181,2.904-1.181
		c1.242,0,2.234,0.395,3.01,1.181c0.775,0.789,1.157,1.83,1.157,3.126L359.067,77.808z"/>
	<path fill-rule="evenodd" clip-rule="evenodd" fill="#FFFFFF" d="M361.017,73.326h1.975v0.902c0.327-0.379,0.707-0.658,1.122-0.832
		c0.408-0.189,0.848-0.273,1.339-0.273c0.481,0,0.936,0.12,1.324,0.35c0.402,0.246,0.715,0.602,0.957,1.049
		c0.316-0.447,0.693-0.803,1.153-1.049c0.442-0.229,0.942-0.35,1.481-0.35c0.556,0,1.046,0.128,1.472,0.382
		c0.42,0.253,0.736,0.592,0.91,1.015c0.185,0.412,0.282,1.1,0.282,2.04v4.603h-1.972v-3.979c0-0.886-0.125-1.494-0.346-1.807
		c-0.211-0.314-0.552-0.467-0.985-0.467c-0.333,0-0.646,0.086-0.907,0.288c-0.262,0.188-0.465,0.452-0.601,0.785
		c-0.133,0.337-0.19,0.885-0.19,1.643v3.536h-1.977v-3.809c0-0.693-0.055-1.202-0.164-1.521c-0.099-0.307-0.251-0.555-0.451-0.697
		c-0.214-0.15-0.474-0.225-0.757-0.225c-0.337,0-0.624,0.088-0.901,0.291c-0.267,0.193-0.465,0.47-0.598,0.817
		c-0.131,0.354-0.192,0.903-0.192,1.654v3.489h-1.975V73.326z"/>
	<path fill-rule="evenodd" clip-rule="evenodd" fill="#FFFFFF" d="M379.304,74.927c-0.621,0-1.144,0.209-1.55,0.633
		c-0.409,0.424-0.606,0.982-0.606,1.657c0,0.7,0.197,1.263,0.606,1.69c0.406,0.443,0.929,0.659,1.55,0.659
		c0.588,0,1.106-0.223,1.515-0.663c0.406-0.438,0.614-0.995,0.614-1.672c0-0.672-0.2-1.224-0.602-1.658
		C380.422,75.142,379.912,74.927,379.304,74.927z M377.23,73.326v0.851c0.349-0.359,0.737-0.621,1.148-0.785
		c0.415-0.192,0.863-0.269,1.331-0.269c1.016,0,1.891,0.382,2.608,1.154c0.717,0.783,1.08,1.759,1.08,2.973
		c0,1.164-0.384,2.15-1.116,2.94c-0.75,0.771-1.621,1.177-2.628,1.177c-0.457,0-0.883-0.082-1.261-0.254
		c-0.398-0.154-0.787-0.42-1.163-0.781v3.689h-1.953V73.326H377.23z"/>
	<path fill-rule="evenodd" clip-rule="evenodd" fill="#FFFFFF" d="M391.276,76.251c-0.125-0.427-0.39-0.775-0.773-1.053
		c-0.376-0.274-0.823-0.413-1.337-0.413c-0.542,0-1.025,0.146-1.433,0.461c-0.263,0.183-0.509,0.523-0.725,1.005H391.276z
		 M393.249,77.808h-6.319c0.08,0.559,0.333,1.001,0.722,1.334c0.398,0.324,0.906,0.495,1.515,0.495c0.741,0,1.375-0.271,1.904-0.777
		l1.658,0.781c-0.423,0.58-0.919,1.022-1.489,1.305c-0.572,0.279-1.253,0.422-2.057,0.422c-1.223,0-2.234-0.397-3.005-1.171
		c-0.77-0.771-1.157-1.745-1.157-2.913c0-1.193,0.388-2.192,1.157-2.981c0.765-0.786,1.733-1.181,2.906-1.181
		c1.232,0,2.227,0.395,3.003,1.181c0.774,0.789,1.162,1.83,1.162,3.126V77.808z"/>
	<path fill-rule="evenodd" clip-rule="evenodd" fill="#FFFFFF" d="M394.744,73.326h1.689v0.977c0.176-0.388,0.422-0.689,0.723-0.89
		c0.308-0.201,0.633-0.29,0.999-0.29c0.251,0,0.514,0.068,0.79,0.203l-0.608,1.683c-0.233-0.107-0.421-0.161-0.571-0.161
		c-0.293,0-0.559,0.181-0.767,0.561c-0.211,0.361-0.308,1.107-0.308,2.203l0.014,0.368v3.183h-1.961V73.326z"/>
	<path fill-rule="evenodd" clip-rule="evenodd" fill="#FFFFFF" d="M404.01,74.927c-0.604,0-1.115,0.215-1.514,0.646
		c-0.396,0.435-0.598,0.986-0.598,1.658c0,0.677,0.209,1.233,0.609,1.672c0.407,0.44,0.918,0.663,1.515,0.663
		c0.612,0,1.13-0.216,1.533-0.659c0.41-0.428,0.607-0.99,0.607-1.69c0-0.675-0.197-1.233-0.607-1.657
		C405.152,75.136,404.635,74.927,404.01,74.927z M406.077,73.326h1.973v7.836h-1.973v-0.83c-0.373,0.361-0.765,0.627-1.149,0.781
		c-0.383,0.172-0.803,0.254-1.262,0.254c-1,0-1.888-0.406-2.627-1.177c-0.729-0.79-1.106-1.776-1.106-2.94
		c0-1.214,0.357-2.189,1.075-2.973c0.705-0.772,1.59-1.154,2.605-1.154c0.463,0,0.91,0.076,1.318,0.269
		c0.422,0.164,0.799,0.426,1.146,0.785V73.326z"/>
	<path fill-rule="evenodd" clip-rule="evenodd" fill="#FFFFFF" d="M410.648,70.424h1.959v2.902h1.168v1.683h-1.168v6.153h-1.959
		v-6.153h-1.018v-1.683h1.018V70.424z"/>
	<path fill-rule="evenodd" clip-rule="evenodd" fill="#FFFFFF" d="M415.195,73.326h1.981v3.76c0,0.75,0.056,1.245,0.156,1.542
		c0.104,0.279,0.26,0.511,0.483,0.666c0.234,0.154,0.502,0.237,0.826,0.237c0.331,0,0.607-0.083,0.833-0.237
		c0.238-0.152,0.403-0.387,0.516-0.691c0.087-0.214,0.125-0.698,0.125-1.454v-3.822h1.968v3.316c0,1.368-0.115,2.306-0.333,2.806
		c-0.26,0.611-0.646,1.093-1.164,1.422c-0.509,0.325-1.162,0.497-1.96,0.497c-0.854,0-1.551-0.201-2.082-0.587
		c-0.538-0.38-0.902-0.923-1.121-1.608c-0.151-0.47-0.229-1.334-0.229-2.584V73.326z"/>
	<path fill-rule="evenodd" clip-rule="evenodd" fill="#FFFFFF" d="M423.965,73.326h1.68v0.977c0.191-0.388,0.427-0.689,0.732-0.89
		c0.301-0.201,0.635-0.29,0.99-0.29c0.26,0,0.526,0.068,0.813,0.203l-0.619,1.683c-0.229-0.107-0.418-0.161-0.566-0.161
		c-0.313,0-0.558,0.181-0.765,0.561c-0.212,0.361-0.32,1.107-0.32,2.203l0.002,0.368v3.183h-1.946V73.326z"/>
	<path fill-rule="evenodd" clip-rule="evenodd" fill="#FFFFFF" d="M435.402,76.251c-0.133-0.427-0.387-0.775-0.77-1.053
		c-0.39-0.274-0.823-0.413-1.326-0.413c-0.549,0-1.031,0.146-1.447,0.461c-0.263,0.183-0.498,0.523-0.719,1.005H435.402z
		 M437.364,77.808h-6.321c0.098,0.559,0.34,1.001,0.742,1.334c0.392,0.324,0.898,0.495,1.518,0.495c0.729,0,1.362-0.271,1.887-0.777
		l1.66,0.781c-0.412,0.58-0.906,1.022-1.488,1.305c-0.574,0.279-1.263,0.422-2.051,0.422c-1.23,0-2.227-0.397-3.006-1.171
		c-0.774-0.771-1.154-1.745-1.154-2.913c0-1.193,0.38-2.192,1.152-2.981c0.772-0.786,1.737-1.181,2.898-1.181
		c1.238,0,2.242,0.395,3.02,1.181c0.773,0.789,1.158,1.83,1.158,3.126L437.364,77.808z"/>
</g>
<g id="Layer_6">
	<path fill-rule="evenodd" clip-rule="evenodd" fill="#FFFFFF" d="M450.674,74.979l-1.678,0.918
		c-0.309-0.329-0.624-0.555-0.928-0.691c-0.314-0.125-0.667-0.19-1.087-0.19c-0.755,0-1.363,0.23-1.823,0.675
		c-0.466,0.46-0.697,1.035-0.697,1.732c0,0.689,0.221,1.244,0.665,1.665c0.454,0.433,1.034,0.658,1.771,0.658
		c0.902,0,1.602-0.312,2.1-0.934l1.593,1.103c-0.86,1.113-2.078,1.669-3.648,1.669c-1.407,0-2.515-0.417-3.312-1.251
		c-0.804-0.835-1.205-1.812-1.205-2.932c0-0.782,0.197-1.503,0.588-2.146c0.381-0.662,0.927-1.168,1.621-1.547
		c0.696-0.376,1.479-0.567,2.338-0.567c0.793,0,1.514,0.168,2.148,0.478C449.748,73.947,450.272,74.385,450.674,74.979z"/>
	<path fill-rule="evenodd" clip-rule="evenodd" fill="#FFFFFF" d="M456.672,75.044c-0.625,0-1.15,0.225-1.566,0.646
		c-0.412,0.434-0.625,0.994-0.625,1.67c0,0.698,0.207,1.263,0.621,1.704c0.412,0.434,0.932,0.646,1.563,0.646
		s1.152-0.213,1.573-0.651c0.415-0.448,0.625-1.01,0.625-1.699c0-0.687-0.204-1.25-0.618-1.672
		C457.836,75.26,457.313,75.044,456.672,75.044z M456.636,73.141c0.756,0,1.471,0.191,2.137,0.575
		c0.669,0.379,1.187,0.892,1.563,1.544c0.367,0.638,0.559,1.344,0.559,2.094c0,0.763-0.191,1.465-0.565,2.142
		c-0.378,0.643-0.888,1.167-1.54,1.532c-0.643,0.373-1.361,0.556-2.148,0.556c-1.148,0-2.129-0.413-2.941-1.228
		c-0.814-0.821-1.224-1.813-1.224-2.984c0-1.251,0.46-2.303,1.382-3.138C454.66,73.512,455.589,73.141,456.636,73.141z"/>
	<path fill-rule="evenodd" clip-rule="evenodd" fill="#FFFFFF" d="M462.914,73.351h2.016v0.82c0.452-0.378,0.871-0.64,1.238-0.797
		c0.376-0.154,0.752-0.233,1.139-0.233c0.797,0,1.473,0.281,2.025,0.837c0.472,0.47,0.703,1.168,0.703,2.095v5.303h-1.992v-3.514
		c0-0.952-0.043-1.593-0.127-1.897c-0.088-0.328-0.232-0.558-0.45-0.724c-0.218-0.173-0.479-0.246-0.789-0.246
		c-0.41,0-0.757,0.139-1.051,0.412c-0.292,0.273-0.495,0.637-0.607,1.118c-0.06,0.261-0.089,0.799-0.089,1.64v3.211h-2.016V73.351z"
		/>
	<path fill-rule="evenodd" clip-rule="evenodd" fill="#FFFFFF" d="M472.605,70.399h2.012v2.951h1.191v1.729h-1.191v6.295h-2.012
		V75.08h-1.039v-1.729h1.039V70.399z"/>
	<path fill-rule="evenodd" clip-rule="evenodd" fill="#FFFFFF" d="M476.794,73.351h1.724v1.019c0.187-0.409,0.438-0.698,0.746-0.903
		c0.313-0.208,0.644-0.325,1.019-0.325c0.258,0,0.533,0.07,0.82,0.21l-0.628,1.729c-0.234-0.109-0.434-0.167-0.588-0.167
		c-0.308,0-0.565,0.188-0.781,0.568c-0.216,0.392-0.324,1.137-0.324,2.264l0.01,0.382v3.248h-1.997V73.351z"/>
	<path fill-rule="evenodd" clip-rule="evenodd" fill="#FFFFFF" d="M486.277,75.044c-0.623,0-1.147,0.225-1.563,0.646
		c-0.415,0.434-0.625,0.994-0.625,1.67c0,0.698,0.21,1.263,0.621,1.704c0.409,0.434,0.93,0.646,1.559,0.646
		c0.632,0,1.154-0.213,1.573-0.651c0.419-0.448,0.628-1.01,0.628-1.699c0-0.687-0.203-1.25-0.618-1.672
		C487.443,75.26,486.921,75.044,486.277,75.044z M486.243,73.141c0.759,0,1.472,0.191,2.136,0.575
		c0.668,0.379,1.188,0.892,1.557,1.544c0.378,0.638,0.564,1.344,0.564,2.094c0,0.763-0.187,1.465-0.564,2.142
		c-0.374,0.643-0.889,1.167-1.537,1.532c-0.65,0.373-1.365,0.556-2.148,0.556c-1.152,0-2.131-0.413-2.945-1.228
		c-0.813-0.821-1.222-1.813-1.222-2.984c0-1.251,0.458-2.303,1.379-3.138C484.268,73.512,485.197,73.141,486.243,73.141z"/>
	<path fill-rule="evenodd" clip-rule="evenodd" fill="#FFFFFF" d="M492.301,70.26h2.018v11.115h-2.018V70.26z"/>
</g>
<g id="Layer_7">
	<path fill-rule="evenodd" clip-rule="evenodd" fill="#FFFFFF" d="M504.48,73.697l-1.221,1.229c-0.496-0.488-0.94-0.747-1.348-0.747
		c-0.219,0-0.396,0.055-0.521,0.141c-0.124,0.106-0.187,0.214-0.187,0.357c0,0.11,0.04,0.2,0.116,0.299
		c0.083,0.087,0.278,0.207,0.592,0.364l0.719,0.35c0.766,0.38,1.288,0.763,1.57,1.155c0.283,0.379,0.426,0.851,0.426,1.363
		c0,0.701-0.252,1.292-0.769,1.758c-0.512,0.459-1.2,0.699-2.063,0.699c-1.145,0-2.061-0.456-2.741-1.349l1.207-1.326
		c0.234,0.271,0.508,0.489,0.815,0.661c0.31,0.16,0.589,0.242,0.83,0.242c0.261,0,0.467-0.062,0.626-0.183
		c0.16-0.12,0.236-0.262,0.236-0.431c0-0.306-0.285-0.595-0.857-0.887l-0.661-0.332c-1.277-0.642-1.908-1.441-1.908-2.412
		c0-0.622,0.235-1.146,0.718-1.593c0.477-0.426,1.094-0.651,1.833-0.651c0.513,0,0.996,0.103,1.44,0.331
		C503.787,72.966,504.166,73.279,504.48,73.697z"/>
	<path fill-rule="evenodd" clip-rule="evenodd" fill="#FFFFFF" d="M512.444,75.55c-0.129-0.435-0.388-0.787-0.769-1.067
		c-0.382-0.271-0.826-0.409-1.332-0.409c-0.551,0-1.034,0.155-1.448,0.458c-0.259,0.188-0.497,0.533-0.723,1.019H512.444z
		 M514.418,77.102h-6.329c0.084,0.556,0.337,1.01,0.729,1.334c0.396,0.322,0.907,0.501,1.523,0.501c0.728,0,1.366-0.266,1.897-0.778
		l1.657,0.784c-0.416,0.576-0.905,1.016-1.483,1.3c-0.581,0.28-1.269,0.423-2.061,0.423c-1.229,0-2.238-0.398-3.013-1.165
		c-0.77-0.779-1.158-1.752-1.158-2.916c0-1.208,0.389-2.207,1.158-2.988c0.771-0.799,1.736-1.19,2.902-1.19
		c1.239,0,2.246,0.392,3.021,1.19c0.775,0.781,1.158,1.824,1.158,3.133L514.418,77.102z"/>
	<path fill-rule="evenodd" clip-rule="evenodd" fill="#FFFFFF" d="M515.921,72.607h1.69V73.6c0.184-0.397,0.424-0.686,0.731-0.893
		c0.3-0.207,0.631-0.302,0.99-0.302c0.259,0,0.528,0.067,0.806,0.202l-0.614,1.693c-0.232-0.122-0.422-0.168-0.57-0.168
		c-0.306,0-0.559,0.174-0.771,0.564c-0.206,0.368-0.314,1.106-0.314,2.207l0.01,0.379v3.181h-1.957V72.607z"/>
	<path fill-rule="evenodd" clip-rule="evenodd" fill="#FFFFFF" d="M520.638,72.607h2.009l1.988,4.63l1.977-4.63h2.002l-3.346,7.856
		h-1.279L520.638,72.607z"/>
	<path fill-rule="evenodd" clip-rule="evenodd" fill="#FFFFFF" d="M529.92,72.607h1.965v7.856h-1.965V72.607z M530.899,69.379
		c0.349,0,0.642,0.122,0.89,0.362c0.248,0.261,0.371,0.553,0.371,0.913c0,0.353-0.123,0.66-0.363,0.898
		c-0.25,0.252-0.544,0.38-0.887,0.38c-0.345,0-0.646-0.128-0.893-0.39c-0.245-0.244-0.369-0.561-0.369-0.915
		c0-0.347,0.12-0.64,0.363-0.894C530.258,69.497,530.553,69.379,530.899,69.379z"/>
	<path fill-rule="evenodd" clip-rule="evenodd" fill="#FFFFFF" d="M541.73,74.191l-1.638,0.906
		c-0.308-0.319-0.609-0.551-0.911-0.672c-0.304-0.125-0.659-0.192-1.059-0.192c-0.738,0-1.332,0.216-1.793,0.665
		c-0.452,0.441-0.683,0.999-0.683,1.691c0,0.666,0.22,1.202,0.659,1.632c0.438,0.43,1.011,0.644,1.726,0.644
		c0.889,0,1.565-0.309,2.061-0.907l1.556,1.059c-0.841,1.104-2.03,1.648-3.566,1.648c-1.378,0-2.459-0.405-3.246-1.231
		c-0.779-0.824-1.17-1.78-1.17-2.871c0-0.76,0.19-1.465,0.565-2.107c0.38-0.638,0.909-1.135,1.594-1.503
		c0.686-0.37,1.444-0.547,2.283-0.547c0.776,0,1.476,0.159,2.104,0.46C540.826,73.184,541.339,73.613,541.73,74.191z"/>
	<path fill-rule="evenodd" clip-rule="evenodd" fill="#FFFFFF" d="M549.778,75.55c-0.136-0.435-0.384-0.787-0.772-1.067
		c-0.382-0.271-0.826-0.409-1.33-0.409c-0.552,0-1.032,0.155-1.445,0.458c-0.264,0.188-0.5,0.533-0.725,1.019H549.778z
		 M551.752,77.102h-6.335c0.095,0.556,0.333,1.01,0.735,1.334c0.396,0.322,0.906,0.501,1.521,0.501c0.737,0,1.368-0.266,1.891-0.778
		l1.662,0.784c-0.414,0.576-0.907,1.016-1.481,1.3c-0.581,0.28-1.263,0.423-2.06,0.423c-1.235,0-2.233-0.398-3.006-1.165
		c-0.781-0.779-1.167-1.752-1.167-2.916c0-1.208,0.386-2.207,1.156-2.988c0.775-0.799,1.744-1.19,2.903-1.19
		c1.241,0,2.248,0.392,3.022,1.19c0.776,0.781,1.163,1.824,1.163,3.133L551.752,77.102z"/>
	<path fill-rule="evenodd" clip-rule="evenodd" fill="#FFFFFF" d="M558.52,73.697l-1.213,1.229c-0.497-0.488-0.95-0.747-1.355-0.747
		c-0.222,0-0.392,0.055-0.514,0.141c-0.133,0.106-0.194,0.214-0.194,0.357c0,0.11,0.043,0.2,0.124,0.299
		c0.081,0.087,0.273,0.207,0.584,0.364l0.728,0.35c0.761,0.38,1.276,0.763,1.562,1.155c0.283,0.379,0.431,0.851,0.431,1.363
		c0,0.701-0.255,1.292-0.776,1.758c-0.509,0.459-1.193,0.699-2.056,0.699c-1.148,0-2.058-0.456-2.748-1.349l1.217-1.326
		c0.229,0.271,0.503,0.489,0.813,0.661c0.308,0.16,0.586,0.242,0.819,0.242c0.267,0,0.475-0.062,0.63-0.183
		c0.163-0.12,0.246-0.262,0.246-0.431c0-0.306-0.289-0.595-0.865-0.887l-0.665-0.332c-1.269-0.642-1.907-1.441-1.907-2.412
		c0-0.622,0.241-1.146,0.723-1.593c0.48-0.426,1.092-0.651,1.835-0.651c0.512,0,0.99,0.103,1.444,0.331
		C557.83,72.966,558.208,73.279,558.52,73.697z"/>
	<path fill-rule="evenodd" clip-rule="evenodd" fill="#FFFFFF" d="M561.532,78.461l1.41,0.699l-1.787,3.049l-0.981-0.469
		L561.532,78.461z"/>
	<path fill-rule="evenodd" clip-rule="evenodd" fill="#FFFFFF" d="M569.383,72.607h1.969v7.856h-1.969V72.607z M570.369,69.379
		c0.346,0,0.64,0.122,0.892,0.362c0.244,0.261,0.37,0.553,0.37,0.913c0,0.353-0.126,0.66-0.37,0.898
		c-0.248,0.252-0.536,0.38-0.88,0.38c-0.351,0-0.646-0.128-0.891-0.39c-0.247-0.244-0.378-0.561-0.378-0.915
		c0-0.347,0.131-0.64,0.378-0.894C569.729,69.497,570.02,69.379,570.369,69.379z"/>
	<path fill-rule="evenodd" clip-rule="evenodd" fill="#FFFFFF" d="M573.516,72.607h1.971v0.798c0.447-0.367,0.851-0.63,1.217-0.774
		c0.364-0.153,0.729-0.226,1.115-0.226c0.778,0,1.436,0.27,1.98,0.809c0.454,0.465,0.687,1.155,0.687,2.056v5.194h-1.951V77.01
		c0-0.927-0.045-1.542-0.129-1.868c-0.084-0.288-0.227-0.533-0.436-0.7c-0.213-0.146-0.473-0.229-0.773-0.229
		c-0.4,0-0.743,0.127-1.027,0.396c-0.284,0.258-0.48,0.64-0.597,1.102c-0.061,0.256-0.086,0.782-0.086,1.591v3.163h-1.971V72.607z"
		/>
	<path fill-rule="evenodd" clip-rule="evenodd" fill="#FFFFFF" d="M590.446,74.191l-1.645,0.906
		c-0.302-0.319-0.614-0.551-0.91-0.672c-0.304-0.125-0.656-0.192-1.056-0.192c-0.741,0-1.334,0.216-1.794,0.665
		c-0.454,0.441-0.68,0.999-0.68,1.691c0,0.666,0.213,1.202,0.652,1.632c0.441,0.43,1.016,0.644,1.731,0.644
		c0.88,0,1.567-0.309,2.056-0.907l1.556,1.059c-0.842,1.104-2.032,1.648-3.565,1.648c-1.383,0-2.459-0.405-3.246-1.231
		c-0.777-0.824-1.175-1.78-1.175-2.871c0-0.76,0.194-1.465,0.576-2.107c0.376-0.638,0.911-1.135,1.594-1.503
		c0.675-0.37,1.439-0.547,2.28-0.547c0.779,0,1.482,0.159,2.105,0.46C589.544,73.184,590.052,73.613,590.446,74.191z"/>
	<path fill-rule="evenodd" clip-rule="evenodd" fill="#FFFFFF" d="M593.666,78.396c0.317,0,0.58,0.116,0.802,0.34
		c0.219,0.212,0.334,0.483,0.334,0.787c0,0.322-0.115,0.592-0.334,0.808c-0.222,0.216-0.484,0.334-0.802,0.334
		c-0.311,0-0.574-0.118-0.8-0.334c-0.223-0.216-0.338-0.485-0.338-0.808c0-0.304,0.115-0.575,0.338-0.787
		C593.092,78.513,593.355,78.396,593.666,78.396z"/>
</g>
<g id="Layer_8">
	<path fill-rule="evenodd" clip-rule="evenodd" fill="#EAECEB" d="M651.206,66.226c-5.079,0-8.53-3.492-8.53-8.538
		c0-4.903,3.067-8.604,8.111-8.604c1.569,0,3.408,0.489,4.788,1.124l-1,2.485c-1.183-0.545-2.476-0.944-3.821-0.944
		c-3.225,0-4.809,2.7-4.809,5.647c0,3.549,1.896,6.178,5.631,6.178c1.153,0,2.266-0.291,3.271-0.782l0.811,2.339
		C654.26,65.826,652.729,66.226,651.206,66.226z"/>
	<path fill-rule="evenodd" clip-rule="evenodd" fill="#EAECEB" d="M662.197,56.067c-2.18,0-2.906,2.007-2.906,3.855
		c0,1.853,0.727,3.833,2.906,3.833c2.178,0,2.867-1.98,2.867-3.833C665.064,58.106,664.375,56.067,662.197,56.067z M662.197,66.266
		c-3.719,0-6.117-2.747-6.117-6.36c0-3.626,2.398-6.358,6.117-6.358c3.729,0,6.09,2.688,6.09,6.358
		C668.287,63.556,665.926,66.266,662.197,66.266z"/>
	<path fill-rule="evenodd" clip-rule="evenodd" fill="#EAECEB" d="M677.818,65.995v-7.663c0-1.479-0.979-2.224-2.401-2.224
		c-0.834,0-1.681,0.226-2.465,0.543c0,0,0.058,0.311,0.058,0.492v8.852h-2.906v-9.523c0-0.6-0.182-1.708-0.182-1.708
		c1.709-0.617,3.719-1.217,5.535-1.217c2.959,0,5.27,0.963,5.278,4.323v8.125H677.818z"/>
	<path fill-rule="evenodd" clip-rule="evenodd" fill="#EAECEB" d="M687.496,66.415c-2.23,0-3.77-1.022-3.77-3.371v-6.721
		l-1.367-0.088V53.93l1.367-0.074v-3.378h2.937v3.333h3.421v2.536h-3.421v6.482c0,0.745,0.409,1.035,1.142,1.035
		c0.73,0,1.457-0.23,2.161-0.483l0.789,2.373C689.703,66.117,688.631,66.415,687.496,66.415z"/>
	<path fill-rule="evenodd" clip-rule="evenodd" fill="#EAECEB" d="M698.803,56.323c-0.39-0.124-1.09-0.256-1.635-0.256
		c-0.727,0-1.453,0.111-2.18,0.328c0,0,0.021,0.167,0.021,0.252v9.345h-2.928v-9.291c0-0.593-0.184-1.828-0.184-1.828
		c1.723-0.727,3.633-1.326,5.537-1.326c0.732,0,1.565,0.108,2.237,0.264L698.803,56.323z"/>
	<path fill-rule="evenodd" clip-rule="evenodd" fill="#EAECEB" d="M705.636,56.067c-2.156,0-2.843,1.999-2.843,3.855
		c0,1.853,0.687,3.833,2.843,3.833c2.16,0,2.88-1.98,2.88-3.832C708.516,58.106,707.796,56.067,705.636,56.067z M705.636,66.266
		c-3.725,0-6.106-2.747-6.106-6.36c0-3.626,2.382-6.358,6.106-6.358c3.736,0,6.147,2.688,6.133,6.358
		C711.769,63.556,709.372,66.266,705.636,66.266z"/>
	<polygon fill-rule="evenodd" clip-rule="evenodd" fill="#EAECEB" points="716.448,48.111 713.523,48.111 713.523,60.65 
		713.523,65.992 716.448,65.992 	"/>
	<path fill-rule="evenodd" clip-rule="evenodd" fill="#EAECEB" d="M722.139,66.266c-1.375,0-2.811-0.344-4.007-0.803l0.833-2.304
		c0.849,0.375,1.998,0.73,2.907,0.73c0.907,0,1.875-0.256,1.875-1.333c0-2.168-5.327-1.508-5.327-5.504
		c0-2.505,2.606-3.506,4.534-3.506c1.278,0,2.55,0.291,3.483,0.734l-0.839,2.266c-0.758-0.312-1.825-0.568-2.645-0.579
		c-0.73,0-1.542,0.231-1.542,1.104c0,2.051,5.548,1.125,5.548,5.521C726.96,65.299,724.336,66.266,722.139,66.266z"/>
	<path fill-rule="evenodd" clip-rule="evenodd" fill="#EAECEB" d="M630.047,45.596c-0.71,0.245-1.721,0.517-2.643,0.752
		l-0.531-2.627c0.566-0.104,1.274-0.245,1.816-0.423c1.648-0.59,1.816-1.816,1.816-3.769V27.111h2.998v11.951
		C633.504,42.345,633.049,44.524,630.047,45.596z"/>
	<path fill-rule="evenodd" clip-rule="evenodd" fill="#EAECEB" d="M641.462,33.717c-2.151,0-2.878,1.998-2.878,3.859
		c0,1.837,0.727,3.814,2.878,3.814c2.168,0,2.853-1.977,2.853-3.814C644.314,35.74,643.63,33.717,641.462,33.717z M641.462,43.889
		c-3.721,0-6.132-2.725-6.132-6.357s2.411-6.357,6.132-6.357c3.737,0,6.118,2.72,6.118,6.357
		C647.58,41.197,645.199,43.889,641.462,43.889z"/>
	<path fill-rule="evenodd" clip-rule="evenodd" fill="#EAECEB" d="M657.229,43.616v-7.679c0-1.354-0.835-2.22-2.021-2.22
		c-0.975,0-1.998,0.408-2.82,0.907v8.992h-2.906V25.757h2.906v6.233c1.115-0.5,2.361-0.817,3.63-0.817
		c2.728,0,4.139,1.619,4.139,4.313v8.129H657.229z"/>
	<path fill-rule="evenodd" clip-rule="evenodd" fill="#EAECEB" d="M670.371,43.616v-7.629c0-1.499-0.962-2.25-2.385-2.25
		c-0.846,0-1.697,0.251-2.47,0.533c0,0,0.046,0.353,0.046,0.523v8.822h-2.906v-9.511c0-0.582-0.182-1.706-0.182-1.706
		c1.721-0.604,3.719-1.226,5.535-1.224c2.971-0.002,5.287,0.983,5.287,4.35v8.091H670.371z"/>
	<path fill-rule="evenodd" clip-rule="evenodd" fill="#EAECEB" d="M679.004,43.889c-1.367,0-2.801-0.331-3.996-0.806l0.824-2.282
		c0.883,0.363,2.002,0.727,2.936,0.727c0.901,0,1.871-0.272,1.871-1.324c0-2.173-5.333-1.528-5.333-5.521
		c0-2.509,2.608-3.507,4.511-3.509c1.273,0,2.588,0.307,3.515,0.729l-0.835,2.268c-0.768-0.281-1.857-0.547-2.68-0.547
		c-0.727,0-1.512,0.215-1.512,1.092c0,2.043,5.563,1.125,5.563,5.536C683.864,42.935,681.24,43.889,679.004,43.889z"/>
	<path fill-rule="evenodd" clip-rule="evenodd" fill="#EAECEB" d="M691.26,33.717c-2.178,0-2.858,1.998-2.858,3.859
		c-0.012,1.837,0.681,3.814,2.858,3.814c2.18,0,2.903-1.977,2.903-3.814C694.163,35.74,693.439,33.717,691.26,33.717z
		 M691.26,43.889c-3.719,0-6.086-2.725-6.086-6.357s2.367-6.352,6.086-6.357c3.729,0,6.122,2.72,6.122,6.357
		C697.382,41.197,694.988,43.889,691.26,43.889z"/>
	<path fill-rule="evenodd" clip-rule="evenodd" fill="#EAECEB" d="M707.046,43.616v-7.629c0-1.499-0.978-2.25-2.431-2.25
		c-0.822,0-1.654,0.251-2.457,0.533c0,0,0.068,0.353,0.068,0.523v8.822h-2.925v-9.511c0-0.582-0.162-1.706-0.162-1.706
		c1.667-0.604,3.71-1.226,5.5-1.226c2.968,0.002,5.329,0.985,5.329,4.352v8.091H707.046z"/>
	<path fill-rule="evenodd" clip-rule="evenodd" fill="#00B07F" d="M764.555,10.028c-0.284-0.33-0.639-0.651-0.976-0.948
		c-3.565,1.69-6.508,3.793-8.745,6.291c0.275,1.939,0.466,3.918,0.555,5.953c0.339,7.08-0.73,12.993-2.742,17.796
		c1.479,2.589,3.614,4.904,6.343,6.813c0.749-0.41,1.499-0.864,2.204-1.364c-4.099-4.813-6.161-10.784-5.805-17.165
		C755.786,20.512,759.193,14.452,764.555,10.028z"/>
	<path fill-rule="evenodd" clip-rule="evenodd" fill="#00B0A8" d="M752.706,48.18c0.95-0.197,1.879-0.432,2.79-0.75
		c-1.477-1.652-2.949-3.499-4.271-5.495c-0.657,1.144-1.359,2.226-2.108,3.225C750.205,46.234,751.383,47.249,752.706,48.18z"/>
	<path fill-rule="evenodd" clip-rule="evenodd" fill="#62BB46" d="M770.412,20.684c-2.318,1.998-3.926,4.541-4.445,7.493
		c-0.596,3.171,0.223,6.312,1.954,9.127c1.989-3.36,3.079-7.266,3.079-11.417C771,24.09,770.818,22.364,770.412,20.684z"/>
	<path fill-rule="evenodd" clip-rule="evenodd" fill="#0FB25C" d="M763.444,27.768c0.459-4.35,2.084-8.9,5.013-12.364
		c-0.239-0.441-0.451-0.859-0.727-1.282c-5.629,3.066-9.262,7.924-9.78,13.874c-0.479,5.268,1.972,10.554,6.06,14.304
		c0.628-0.59,1.186-1.226,1.746-1.888C763.828,36.668,762.92,32.403,763.444,27.768z"/>
	<path fill-rule="evenodd" clip-rule="evenodd" fill="#00B3BD" d="M732.494,9.517c-3.902,3.811-6.453,8.987-6.889,14.791
		C729.404,20.684,731.766,14.872,732.494,9.517z"/>
	<path fill-rule="evenodd" clip-rule="evenodd" fill="#009EBF" d="M737.001,6.153c-0.34,0.222-0.694,0.42-1.058,0.636
		c-2.174,10.227-5.717,17.027-10.172,22.206c0.182,1.156,0.402,2.271,0.727,3.36C735.773,26.636,737.76,13.918,737.001,6.153z"/>
	<path fill-rule="evenodd" clip-rule="evenodd" fill="#0053A5" d="M755.473,21.328c-0.275-6.501-1.635-12.586-3.814-17.923
		c-0.439-0.067-0.87-0.113-1.307-0.158c2.033,17.228,0.035,33.838-10.047,43.921c1.814,0.674,3.727,1.131,5.725,1.339
		C752.234,43.068,756.018,34.023,755.473,21.328z"/>
	<path fill-rule="evenodd" clip-rule="evenodd" fill="#0063A2" d="M746.631,3.224c-0.42,0.023-0.879,0.068-1.305,0.122
		c0.426,11.218-1.477,29.827-12.557,39.135c1.021,0.958,2.164,1.822,3.355,2.589C750.475,35.306,750.387,16.233,746.631,3.224z"/>
	<path fill-rule="evenodd" clip-rule="evenodd" fill="#007BAE" d="M741.582,4.155c-0.371,0.125-0.734,0.239-1.098,0.374
		c-0.652,11.554-3.765,23.83-12.438,31.689c0.563,1.124,1.232,2.176,1.979,3.175C741.756,32.285,744.174,15.462,741.582,4.155z"/>
	<path fill-rule="evenodd" clip-rule="evenodd" fill="#946B4C" d="M655.248,83.023c-0.164-0.559-0.457-1.555-0.457-1.555
		s-0.309,0.996-0.49,1.555l-0.459,1.31h1.816L655.248,83.023z M656.328,86.461l-0.391-1.182h-2.459l-0.425,1.182h-1.21l2.292-6.053
		h1.341l2.146,6.053H656.328z"/>
	<path fill-rule="evenodd" clip-rule="evenodd" fill="#946B4C" d="M660.381,86.643c-1.355,0-2.276-0.727-2.276-2.361v-3.873h1.165
		V84.1c0,1.247,0.48,1.543,1.111,1.543c0.542,0,1.09-0.296,1.09-1.543v-3.691h1.186v3.827
		C662.656,85.841,661.606,86.643,660.381,86.643z"/>
	<polygon fill-rule="evenodd" clip-rule="evenodd" fill="#946B4C" points="666.471,81.465 666.471,86.461 665.282,86.461 
		665.282,81.465 663.416,81.465 663.416,80.408 668.287,80.408 668.287,81.465 	"/>
	<polygon fill-rule="evenodd" clip-rule="evenodd" fill="#946B4C" points="672.539,86.461 672.539,83.826 670.266,83.826 
		670.266,86.461 669.07,86.461 669.07,80.405 670.266,80.405 670.266,82.828 672.539,82.828 672.539,80.405 673.734,80.405 
		673.734,86.461 	"/>
	<path fill-rule="evenodd" clip-rule="evenodd" fill="#946B4C" d="M677.551,81.227c-1.004,0-1.635,0.875-1.635,2.241
		c0,1.243,0.563,2.206,1.635,2.206c1.09,0,1.644-0.939,1.644-2.211C679.194,82.094,678.622,81.227,677.551,81.227z M677.551,86.643
		c-1.453,0-2.839-0.908-2.839-3.18c0-2.18,1.29-3.202,2.839-3.202c1.635,0,2.904,1.022,2.904,3.238
		C680.455,85.693,679.004,86.643,677.551,86.643z"/>
	<path fill-rule="evenodd" clip-rule="evenodd" fill="#946B4C" d="M683.545,81.375h-0.918v1.731h0.788
		c0.7,0,1.062-0.277,1.062-0.901C684.477,81.667,684.176,81.375,683.545,81.375z M684.787,86.461l-1.556-2.361h-0.604v2.361h-1.195
		v-6.056h2.018c1.367,0,2.275,0.607,2.275,1.8c0,1.076-0.628,1.531-1.186,1.72l1.621,2.536H684.787z"/>
	<rect x="686.849" y="80.408" fill-rule="evenodd" clip-rule="evenodd" fill="#946B4C" width="1.196" height="6.053"/>
	<polygon fill-rule="evenodd" clip-rule="evenodd" fill="#946B4C" points="690.323,85.463 693.076,85.463 693.076,86.461 
		688.834,86.461 688.834,85.562 691.631,81.406 689.177,81.406 689.177,80.408 693.101,80.408 693.101,81.307 	"/>
	<polygon fill-rule="evenodd" clip-rule="evenodd" fill="#946B4C" points="694.051,86.461 694.051,80.405 697.617,80.405 
		697.617,81.375 695.245,81.375 695.245,82.829 697.421,82.829 697.421,83.826 695.245,83.826 695.245,85.495 697.713,85.495 
		697.713,86.461 	"/>
	<path fill-rule="evenodd" clip-rule="evenodd" fill="#946B4C" d="M700.584,81.375h-0.691v4.123h0.727
		c1.012,0,1.816-0.672,1.816-2.03C702.436,81.896,701.615,81.375,700.584,81.375z M700.504,86.461h-1.797v-6.056h1.797
		c1.912,0,3.156,0.878,3.156,3.058S702.221,86.461,700.504,86.461z"/>
	<path fill-rule="evenodd" clip-rule="evenodd" fill="#946B4C" d="M710.695,83.918h-0.869v1.58h0.884
		c0.705,0,1.075-0.298,1.075-0.764C711.785,84.189,711.432,83.918,710.695,83.918z M710.609,81.375h-0.783v1.543h0.918
		c0.505,0,0.859-0.284,0.859-0.793C711.604,81.646,711.24,81.375,710.609,81.375z M710.607,86.461h-1.977v-6.053h1.977
		c1.431,0,2.23,0.512,2.23,1.701c0,0.537-0.492,1.097-1.112,1.242c0.652,0.033,1.276,0.604,1.276,1.407
		C713.002,86.006,712.152,86.461,710.607,86.461z"/>
	<path fill-rule="evenodd" clip-rule="evenodd" fill="#946B4C" d="M716.198,86.643c-1.325,0-2.273-0.727-2.273-2.361v-3.873h1.16
		V84.1c0,1.247,0.515,1.543,1.113,1.543c0.54,0,1.132-0.296,1.132-1.543v-3.691h1.176v3.827
		C718.506,85.841,717.423,86.643,716.198,86.643z"/>
	<rect x="719.727" y="80.408" fill-rule="evenodd" clip-rule="evenodd" fill="#946B4C" width="1.197" height="6.053"/>
	<polygon fill-rule="evenodd" clip-rule="evenodd" fill="#946B4C" points="722.141,86.461 722.141,80.405 723.333,80.405 
		723.333,85.445 725.771,85.445 725.771,86.461 	"/>
	<path fill-rule="evenodd" clip-rule="evenodd" fill="#946B4C" d="M728.333,81.375h-0.649v4.123h0.727
		c0.994,0,1.816-0.672,1.816-2.03C730.227,81.896,729.404,81.375,728.333,81.375z M728.252,86.461h-1.754v-6.056h1.754
		c1.916,0,3.157,0.878,3.157,3.058S729.97,86.461,728.252,86.461z"/>
	<rect x="732.406" y="80.408" fill-rule="evenodd" clip-rule="evenodd" fill="#946B4C" width="1.176" height="6.053"/>
	<path fill-rule="evenodd" clip-rule="evenodd" fill="#946B4C" d="M738.123,86.461l-1.539-3.088
		c-0.239-0.455-0.551-1.245-0.551-1.245v4.333h-1.18v-6.056h1.549l1.545,3.058c0.271,0.455,0.605,1.271,0.605,1.271v-4.329h1.164
		v6.056H738.123z"/>
	<path fill-rule="evenodd" clip-rule="evenodd" fill="#946B4C" d="M743.572,86.643c-1.721,0-2.88-1.18-2.88-3.18
		c0-2.361,1.427-3.202,2.927-3.202c0.966,0,1.538,0.388,1.946,0.738l-0.67,0.832c-0.278-0.274-0.683-0.553-1.276-0.553
		c-0.859,0-1.682,0.42-1.682,2.185c0,1.635,0.8,2.211,1.637,2.211c0.361,0,0.765-0.112,1.002-0.275v-1.209h-1.021v-0.917h2.196
		v2.552C745.174,86.363,744.48,86.643,743.572,86.643z"/>
	<path fill-rule="evenodd" clip-rule="evenodd" fill="#946B4C" d="M654.846,96.224c-1.73,0-2.894-1.136-2.894-3.224
		c0-1.994,1.077-3.18,2.896-3.18c0.992,0,1.537,0.363,1.947,0.727l-0.652,0.9c-0.389-0.445-0.848-0.627-1.295-0.627
		c-1.006,0-1.637,0.726-1.637,2.18c0,1.277,0.627,2.195,1.635,2.195c0.449,0,0.908-0.163,1.357-0.561l0.592,0.854
		C656.338,95.906,655.733,96.224,654.846,96.224z"/>
	<path fill-rule="evenodd" clip-rule="evenodd" fill="#946B4C" d="M660.001,90.812c-1.032,0-1.621,0.831-1.621,2.241
		c0,1.219,0.548,2.209,1.621,2.209c1.062,0,1.651-0.99,1.651-2.262C661.652,91.637,661.027,90.812,660.001,90.812z M659.966,96.224
		c-1.438,0-2.848-0.954-2.848-3.224c0-2.18,1.346-3.18,2.899-3.18c1.585,0,2.845,1,2.845,3.267
		C662.862,95.27,661.439,96.224,659.966,96.224z"/>
	<path fill-rule="evenodd" clip-rule="evenodd" fill="#946B4C" d="M667.162,96.045l-1.57-3.088
		c-0.211-0.461-0.574-1.244-0.574-1.244v4.332h-1.177v-6.052h1.604L667,93c0.21,0.453,0.561,1.312,0.561,1.312v-4.318h1.176v6.052
		H667.162z"/>
	<polygon fill-rule="evenodd" clip-rule="evenodd" fill="#946B4C" points="672.551,91.006 672.551,96.049 671.362,96.049 
		671.362,91.006 669.492,91.006 669.492,89.993 674.367,89.993 674.367,91.006 	"/>
	<path fill-rule="evenodd" clip-rule="evenodd" fill="#946B4C" d="M677.273,90.959h-0.931v1.732h0.788
		c0.703,0,1.061-0.278,1.061-0.897C678.191,91.252,677.912,90.959,677.273,90.959z M678.505,96.045l-1.558-2.389h-0.604v2.389
		h-1.192v-6.052h2.037c1.357,0,2.266,0.604,2.266,1.801c0,1.044-0.631,1.478-1.195,1.715l1.621,2.536H678.505z"/>
	<path fill-rule="evenodd" clip-rule="evenodd" fill="#946B4C" d="M683.038,90.812c-1.033,0-1.621,0.831-1.621,2.241
		c0,1.219,0.579,2.209,1.621,2.209c1.062,0,1.683-0.99,1.683-2.262C684.721,91.637,684.09,90.812,683.038,90.812z M683.003,96.224
		c-1.438,0-2.823-0.954-2.823-3.224c0-2.18,1.32-3.18,2.889-3.18c1.57,0,2.838,1,2.838,3.267
		C685.906,95.27,684.477,96.224,683.003,96.224z"/>
	<polygon fill-rule="evenodd" clip-rule="evenodd" fill="#946B4C" points="686.9,96.045 686.9,89.993 688.086,89.993 
		688.086,94.998 690.533,94.998 690.533,96.045 	"/>
	<path fill-rule="evenodd" clip-rule="evenodd" fill="#946B4C" d="M693.354,96.224c-0.9,0-1.688-0.31-2.277-0.772l0.547-0.925
		c0.519,0.38,1.174,0.669,1.816,0.669c0.665,0,1.09-0.289,1.09-0.688c0-0.509-0.363-0.78-1.44-1.076
		c-0.932-0.314-1.8-0.704-1.8-1.835c0-1.049,0.868-1.775,2.332-1.775c0.893,0,1.597,0.32,2.102,0.661l-0.553,0.902
		c-0.363-0.281-0.97-0.572-1.605-0.572c-0.524,0-1.033,0.19-1.033,0.644c0,0.545,0.43,0.714,1.271,0.958
		c0.858,0.246,1.936,0.677,1.936,1.948S694.726,96.224,693.354,96.224z"/>
	<path fill-rule="evenodd" clip-rule="evenodd" fill="#946B4C" d="M702.724,96.224c-0.883,0-1.666-0.31-2.286-0.772l0.545-0.925
		c0.545,0.38,1.176,0.669,1.816,0.669c0.695,0,1.09-0.289,1.09-0.688c0-0.509-0.363-0.78-1.407-1.076
		c-0.954-0.314-1.802-0.704-1.802-1.835c0-1.049,0.848-1.775,2.306-1.775c0.903,0,1.62,0.32,2.13,0.661l-0.592,0.902
		c-0.346-0.281-0.931-0.572-1.566-0.572c-0.525,0-1.066,0.19-1.066,0.644c0,0.545,0.449,0.714,1.271,0.958
		c0.888,0.246,1.969,0.677,1.969,1.948S704.113,96.224,702.724,96.224z"/>
	<path fill-rule="evenodd" clip-rule="evenodd" fill="#946B4C" d="M707.885,90.959h-0.574V93h0.589c0.507,0,1.163-0.182,1.163-1.024
		C709.063,91.269,708.57,90.959,707.885,90.959z M707.915,93.998h-0.604v2.047h-1.192v-6.052h1.749c1.553,0,2.454,0.702,2.454,1.982
		C710.321,93.414,709.306,93.998,707.915,93.998z"/>
	<polygon fill-rule="evenodd" clip-rule="evenodd" fill="#946B4C" points="711.154,96.045 711.154,89.993 714.705,89.993 
		714.705,90.959 712.33,90.959 712.33,92.413 714.51,92.413 714.51,93.38 712.33,93.38 712.33,95.078 714.789,95.078 
		714.789,96.045 	"/>
	<path fill-rule="evenodd" clip-rule="evenodd" fill="#946B4C" d="M718.333,96.224c-1.729,0-2.88-1.136-2.88-3.224
		c0-1.994,1.055-3.18,2.898-3.18c0.977,0,1.521,0.363,1.947,0.727l-0.655,0.9c-0.411-0.445-0.86-0.627-1.292-0.627
		c-1.021,0-1.662,0.726-1.662,2.18c0,1.277,0.641,2.195,1.644,2.195c0.45,0,0.901-0.163,1.358-0.561l0.607,0.854
		C719.839,95.906,719.232,96.224,718.333,96.224z"/>
	<rect x="721.07" y="89.993" fill-rule="evenodd" clip-rule="evenodd" fill="#946B4C" width="1.191" height="6.052"/>
	<path fill-rule="evenodd" clip-rule="evenodd" fill="#946B4C" d="M726.412,92.611c-0.182-0.572-0.459-1.555-0.459-1.555
		s-0.27,0.982-0.479,1.555l-0.476,1.297h1.815L726.412,92.611z M727.502,96.045l-0.363-1.192h-2.467l-0.439,1.192h-1.264
		l2.354-6.052h1.348l2.104,6.052H727.502z"/>
	<polygon fill-rule="evenodd" clip-rule="evenodd" fill="#946B4C" points="729.5,96.045 729.5,89.993 730.678,89.993 
		730.678,94.998 733.133,94.998 733.133,96.045 	"/>
	<rect x="733.84" y="89.993" fill-rule="evenodd" clip-rule="evenodd" fill="#946B4C" width="1.195" height="6.052"/>
	<path fill-rule="evenodd" clip-rule="evenodd" fill="#946B4C" d="M738.15,96.224c-0.882,0-1.666-0.31-2.293-0.772l0.545-0.925
		c0.545,0.38,1.176,0.669,1.816,0.669c0.701,0,1.09-0.289,1.09-0.688c0-0.509-0.363-0.78-1.401-1.076
		c-0.96-0.314-1.8-0.704-1.8-1.835c0-1.049,0.84-1.775,2.305-1.775c0.896,0,1.621,0.32,2.129,0.661l-0.59,0.902
		c-0.344-0.281-0.933-0.572-1.567-0.572c-0.53,0-1.073,0.19-1.073,0.644c0,0.545,0.449,0.714,1.271,0.958
		c0.895,0.246,1.975,0.677,1.975,1.948S739.544,96.224,738.15,96.224z"/>
	<polygon fill-rule="evenodd" clip-rule="evenodd" fill="#946B4C" points="744.215,91.006 744.215,96.049 743.027,96.049 
		743.027,91.006 741.211,91.006 741.211,89.993 746.082,89.993 746.082,91.006 	"/>
	<rect x="637.313" y="71.871" fill-rule="evenodd" clip-rule="evenodd" fill="#946B4C" width="123.317" height="1.33"/>
</g>
</svg>
