<?xml version="1.0" encoding="utf-8"?>
<!-- Generator: Adobe Illustrator 16.0.0, SVG Export Plug-In . SVG Version: 6.00 Build 0)  -->
<!DOCTYPE svg PUBLIC "-//W3C//DTD SVG 1.1//EN" "http://www.w3.org/Graphics/SVG/1.1/DTD/svg11.dtd">
<svg version="1.1" id="Layer_1" xmlns="http://www.w3.org/2000/svg" xmlns:xlink="http://www.w3.org/1999/xlink" x="0px" y="0px"
	 width="270.765px" height="141.02px" viewBox="0 0 270.765 141.02" enable-background="new 0 0 270.765 141.02"
	 xml:space="preserve">
<rect x="-242.129" y="-76.754" display="none" fill-rule="evenodd" clip-rule="evenodd" fill="#224090" width="792" height="612"/>
<path fill-rule="evenodd" clip-rule="evenodd" fill="#224090" d="M259.04,83.555c-0.415-0.154-1.445-0.492-2.052-0.177
	c-1.89,0.999-3.242,2.919-4.817,5.14c-2.697,3.826-6.385,9.065-14.33,9.027c-22.613-0.108-30.665-21.419-30.665-41.325
	c0-21.687,11.249-27.68,17.987-29.331c9.843-2.343,19.032,2.32,24.572,12.438c0.768,1.39,1.045,2.742,1.045,4.01
	c0,1.974-0.669,3.764-1.222,5.216c-0.553,1.46-1.045,2.758-1.045,4.256c0,1.406,0.454,2.997,1.668,5.032
	c1.267,1.007,6.063,2.321,8.375,1.468l1.137-0.4c2.22-0.745,3.972-1.336,5.063-15.526c0.684-8.781-1.905-16.394-7.653-22.61
	c-9.373-10.125-24.31-13.897-31.533-13.897c-24.756,0-44.887,28.748-44.887,64.08c0,25.959,14.476,64.371,45.556,64.371
	c13.684,0,24.871-7.114,28.713-11.608c3.757-4.379,10.119-13.859,10.119-21.542c0-9.057-1.467-13.152-2.243-15.334
	C262.497,85.959,260.914,84.285,259.04,83.555z M50.571,121.045c0,0-0.815-2.527-0.815-2.543c-1.36-4.678-8.121-41.224-8.121-71.37
	c0-4.471,0.146-8.796,0.476-12.86c0.43-5.171,0.622-9.404,0.622-12.869c0-9.426-1.352-13.144-2.697-14.519
	C38.807,5.654,36.402,5.746,32.568,6l-1.782,0.108l-0.193,0.023l-2.689-0.185c-4.748-0.361-7.768-0.445-9.62,1.437
	c-1.713,1.728-3.488,5.969-3.488,16.118c0,2.981,0.154,6.461,0.507,10.548c0.354,4.102,0.5,8.497,0.5,13.022
	c0,30.1-6.785,66.545-8.153,71.232l-0.814,2.52c-0.538,1.582-0.999,2.934-0.999,4.018c0,0-0.008,1.283-0.008,1.475
	c0,3.795,0.314,5.631,2.498,6.752c1.506,0.661,10.173,1.975,20.736,2.021c10.728-0.046,18.618-1.175,19.939-1.767
	c2.251-1.152,2.574-2.988,2.574-6.776c0-0.192-0.008-1.467-0.008-1.467C51.569,123.995,51.101,122.62,50.571,121.045z
	 M133.276,6.776c-0.246,0.015-18.072,1.16-18.072,1.16L97.371,7.775c-17.934-0.162-26.616,4.056-33.9,30.584
	c-0.837,3.073-0.653,5.447,0.569,7.052c1.352,1.767,3.88,2.558,5.785,2.558c5.002,0,9.513-7.306,11.933-11.239l1.053-1.675
	c1.582-2.474,2.758-3.896,3.473-4.755l0.391-0.5c0,0-0.046,0.07-0.046,0.077c0.715-1.16,3.212-3.664,6.016-3.641
	c7.945,0.107,8.053,8.497,8.199,21.211c0.015,0.722,0.015,1.429,0.015,2.12c0,18.392-2.459,27.826-7.169,45.934
	c-1.828,6.953-3.88,14.827-6.3,25.106c-0.461,1.921-0.899,2.966-1.191,3.665c0,0-0.084,0.238-0.123,0.307v0.077
	c0.062,1.921,5.571,9.135,31.218,9.488c17.28-0.238,27.177-4.049,27.177-10.464v-0.084c-0.031-0.085-0.123-0.3-0.123-0.3
	c-0.292-0.706-0.729-1.751-1.199-3.687c-2.42-10.279-4.472-18.177-6.293-25.145c-4.71-18.092-7.161-27.503-7.161-45.88
	c0-0.699,0-1.413,0.016-2.136c0.115-10.156,0.876-20.082,8.736-20.082c1.491,0,2.781,0.415,4.195,1.337l-0.154-0.1
	c1.506,0.838,2.536,1.967,5.317,6.576l0.554,0.907c2.274,3.864,7.015,11.885,12.37,11.885c1.913,0,4.434-0.784,5.778-2.551
	c1.229-1.598,1.414-3.964,0.576-7.045C159.792,10.894,151.14,6.638,133.276,6.776z M257.119,125.578
	c-4.334,5.063-16.128,12.599-30.88,12.599c-18.771,0-30.243-12.599-36.551-23.17c-7.422-12.415-11.854-28.886-11.854-44.051
	c0-36.907,21.414-66.93,47.737-66.93c7.691,0,23.635,4.025,33.623,14.811c6.324,6.823,9.151,15.158,8.406,24.777
	c-1.245,16.064-3.657,16.878-7,18l-1.06,0.368c-3.788,1.391-10.71-0.875-11.656-2.427c-3.434-5.539-2.136-8.973-0.991-12.008
	c0.814-2.182,1.675-4.441,0.354-6.837c-7.062-12.899-17.341-12.024-21.429-11.048c-5.908,1.444-15.789,6.814-15.789,26.558
	c0,8.997,2.005,38.359,27.829,38.482c6.462,0.031,9.397-4.141,11.987-7.821c1.705-2.42,3.311-4.701,5.816-6.023
	c1.514-0.791,3.235-0.407,4.41,0.046c2.413,0.93,4.749,3.073,5.44,4.971c0.838,2.358,2.405,6.753,2.405,16.302
	C267.914,110.697,261.122,120.892,257.119,125.578z M268.175,84.907c-0.968-2.674-3.88-5.416-7.076-6.661
	c-2.474-0.952-4.802-0.929-6.762,0.1c-3.111,1.636-4.994,4.31-6.823,6.891c-2.504,3.565-4.679,6.638-9.658,6.615
	c-23.181-0.108-24.986-27.304-24.986-35.632c0-13.198,4.833-21.649,13.623-23.8c3.443-0.814,12.148-1.521,18.249,9.657
	c0.668,1.206,0.276,2.359-0.515,4.464c-1.245,3.28-2.943,7.774,1.229,14.504c1.798,2.95,10.196,5.401,15.068,3.611l0.991-0.354
	c4.671-1.567,7.606-3.395,8.928-20.473c0.807-10.433-2.282-19.491-9.166-26.928C250.68,5.447,233.753,1.183,225.57,1.183
	c-13.669,0-26.446,7.322-35.974,20.605c-9.428,13.121-14.599,30.584-14.599,49.168c0,15.656,4.572,32.673,12.256,45.518
	c6.677,11.194,18.878,24.546,38.986,24.546c15.72,0,28.367-8.128,33.031-13.59c1.176-1.376,11.495-13.752,11.495-25.253
	C270.765,92.136,269.09,87.434,268.175,84.907z M50.317,135.857c-1.921,0.961-10.934,2.036-21.253,2.075
	c-9.881-0.039-19.923-1.276-21.99-2.305c-3.811-1.967-4.087-5.624-4.087-9.043v-0.898v-0.845c0-1.545,0.537-3.12,1.152-4.94
	l0.784-2.405c1.337-4.617,8.037-40.594,8.037-70.325c0-4.479-0.154-8.812-0.492-12.884c-0.346-4.01-0.522-7.613-0.522-10.832
	c0-9.212,1.429-15.166,4.31-18.07c2.912-2.957,7.261-2.627,11.856-2.281l2.451,0.169l0.069-0.008l1.752-0.108
	c4.187-0.276,7.483-0.491,9.681,1.729c2.359,2.412,3.52,7.752,3.52,16.487c0,3.749-0.215,8.112-0.63,13.137
	c-0.323,3.833-0.461,7.959-0.461,12.246c0,28.84,6.346,65.262,7.991,70.955c0,0.008,0.783,2.412,0.783,2.412
	c0.623,1.821,1.153,3.388,1.153,4.956v0.837c0.008,0.3,0.008,0.592,0.008,0.899C54.428,130.226,54.143,133.883,50.317,135.857z
	 M28.941,140.745c8.682-0.039,19.539-0.884,22.536-2.39c5.731-2.95,5.701-8.473,5.67-12.491l-0.015-0.822
	c0-2.036-0.63-3.895-1.299-5.87l-0.745-2.297c-1.329-4.602-9.95-51.703-7.423-82.164c1.514-18.146,0.415-27.665-3.703-31.852
	c-3.104-3.165-7.368-2.881-11.894-2.581c0,0-1.498,0.092-1.652,0.1c-0.131-0.008-2.221-0.146-2.221-0.146
	c-5.04-0.384-10.257-0.776-14.099,3.111C9.525,7.96,8.064,17.856,9.501,34.496c2.582,30.407-6.1,77.547-7.445,82.164l-0.737,2.289
	c-0.677,1.975-1.307,3.834-1.307,5.855l-0.007,0.822c-0.031,4.033-0.07,9.549,5.647,12.507
	C8.41,139.516,19.083,140.706,28.941,140.745z M168.774,46.149c-2.067,2.712-5.617,3.672-8.045,3.672
	c-6.977,0-12.086-8.643-14.829-13.283l-0.53-0.899c-2.683-4.44-3.427-5.078-4.266-5.547l-0.076-0.038
	c-0.899-0.599-1.637-0.837-2.582-0.837c-3.604,0-5.724,2.827-5.893,17.262c-0.008,0.707-0.008,1.398-0.008,2.082
	c0,18.031,2.42,27.327,7.061,45.196c1.829,6.968,3.889,14.881,6.316,25.199c0.407,1.705,0.776,2.581,1.053,3.226
	c0.261,0.63,0.354,0.838,0.354,1.498c0,8.321-10.68,13.053-30.035,13.313c-26.946-0.361-34.069-8.22-34.069-12.33
	c0-0.653,0.085-0.861,0.339-1.491c0.276-0.645,0.646-1.528,1.052-3.234c2.436-10.294,4.495-18.184,6.308-25.152
	c4.664-17.885,7.092-27.189,7.092-45.243c0-0.676-0.007-1.367-0.015-2.066c-0.177-15.242-1.091-18.338-5.409-18.392
	c-1.391-0.015-3.112,1.59-3.535,2.289l-0.576,0.738c-0.661,0.799-1.774,2.151-3.281,4.486l-1.014,1.621
	c-2.912,4.71-7.768,12.6-14.361,12.6c-2.42,0-5.97-0.961-8.044-3.68c-1.79-2.343-2.144-5.555-1.053-9.534
	C68.465,9.434,78.293,4.755,97.402,4.924l17.725,0.169l18.095-1.167c19.025-0.162,28.852,4.517,36.604,32.696
	C170.91,40.602,170.563,43.798,168.774,46.149z M133.122,1.083c0,0-17.972,1.153-18.087,1.16c-0.092,0-17.61-0.161-17.61-0.161
	C77.64,1.905,66.122,7.229,57.977,36.853c-1.659,6.077-0.084,9.895,1.537,12.015c2.712,3.542,7.1,4.794,10.311,4.794
	c8.183,0,13.562-8.727,16.781-13.944l0.991-1.574c1.414-2.198,2.413-3.411,3.074-4.226l0.814-1.052
	c0.154-0.246,0.876-0.815,1.207-0.93c1.183,0.023,2.282,0.499,2.466,15.573c0.008,0.683,0.015,1.359,0.015,2.012
	c0,17.716-2.397,26.897-7.007,44.543c-1.729,6.63-3.88,14.889-6.316,25.222c-0.353,1.467-0.661,2.197-0.907,2.789
	c-0.307,0.73-0.568,1.367-0.568,2.589c0,1.506,1.037,14.696,36.896,15.18c0.072,0.001-0.041,0.001,0.031,0
	c27.169-0.361,32.87-8.996,32.87-16.164c0-1.229-0.269-1.866-0.584-2.596c-0.238-0.584-0.546-1.314-0.891-2.789
	c-2.436-10.341-4.595-18.615-6.324-25.26c-4.756-18.292-7.153-27.479-6.961-46.525c0.061-6.622,0.592-11.078,1.552-13.237
	c0.538-1.206,0.899-1.206,1.483-1.206c0.246,0,0.469,0,1.068,0.399c0.054,0.031,0.2,0.115,0.2,0.115
	c0.223,0.116,0.714,0.4,3.211,4.525c-0.007,0,0.523,0.876,0.523,0.876c3.035,5.132,8.69,14.689,17.28,14.689
	c3.219,0,7.614-1.26,10.319-4.801c1.614-2.121,3.196-5.931,1.521-12C164.433,6.238,152.9,0.907,133.122,1.083z"/>
</svg>
