<?xml version="1.0" encoding="utf-8"?>
<!-- Generator: Adobe Illustrator 16.0.0, SVG Export Plug-In . SVG Version: 6.00 Build 0)  -->
<!DOCTYPE svg PUBLIC "-//W3C//DTD SVG 1.1//EN" "http://www.w3.org/Graphics/SVG/1.1/DTD/svg11.dtd">
<svg version="1.1" id="Layer_1" xmlns="http://www.w3.org/2000/svg" xmlns:xlink="http://www.w3.org/1999/xlink" x="0px" y="0px"
	 width="40px" height="64px" viewBox="-12.47 -19.953 40 64" enable-background="new -12.47 -19.953 40 64" xml:space="preserve">
<g id="Layer_1_1_">
	<path fill="#214090" d="M7.637-19.987c-10.967,0-19.893,9.968-19.893,22.216c0,15.397,19.909,41.694,19.909,41.694
		S27.521,16.866,27.521,2.229C27.522-10.019,18.604-19.987,7.637-19.987z"/>
</g>
<g id="Layer_2">
	<path fill="#543936" d="M11.077-1.687l0.008,0.112c0.073,0.89,0.121,2.157,0.152,3.806c0.021,0.677-0.017,1.455-0.079,2.349
		c-0.026,0.287-0.039,0.435-0.039,0.448c0.178,0.017,0.652,0.131,1.443,0.343c0.183,0.051,0.354,0.104,0.501,0.158
		c0.005-0.015,0.021-0.168,0.069-0.456c0.117-0.824,0.191-1.741,0.224-2.743l0.003-0.12l0.016-0.096l-0.031-2.157
		c-0.027-0.02-0.25-0.188-0.679-0.522c-0.267-0.218-0.648-0.485-1.132-0.807c-0.084-0.055-0.179-0.118-0.268-0.182
		C11.144-1.64,11.081-1.687,11.077-1.687z M9.281-1.546v-0.068L9.271-1.726C9.269-1.743,9.259-1.932,9.245-2.285
		C9.228-2.832,9.155-3.46,9.021-4.168L8.998-4.276c0,0-0.024-0.03-0.076-0.078c-0.025-0.029-0.15-0.163-0.358-0.394
		C8.338-4.994,8.067-5.278,7.736-5.605L7.667-5.683c-0.03-0.032-0.109-0.111-0.231-0.221L7.352-5.976L7.274-6.055
		c-0.118-0.119-0.193-0.189-0.23-0.221C7.041-6.27,7.095-5.882,7.187-5.125c0.306,2.417,0.48,4.856,0.523,7.306
		c0.02,1.078,0,1.9-0.053,2.48c0.009,0.004,0.02,0.006,0.038,0.006H7.89c0.03,0,0.051,0,0.068-0.001
		c0.02-0.114,0.035-2.037,0.005-2.583c0-0.007,0-0.196-0.005-0.563C7.951,1.126,7.932,0.714,7.91,0.278
		C7.869-0.471,7.842-0.888,7.829-0.957L7.815-1.063v-0.106L9.281-1.546z M3.291-0.76c0.05,0.461,0.12,2.305,0.12,3.822
		c0,0.558-0.009,1.137-0.03,1.739C3.37,4.959,3.368,5.04,3.37,5.042c0.004,0.004,0.01,0.01,0.01,0.011l0.313-0.06l0.003-0.318
		l0.006-0.117C3.743,3.611,3.738,1.62,3.698,0.754C3.67,0.022,3.65-0.396,3.634-0.503L3.62-0.611v-0.067L3.291-0.76z M4.521-3.098
		L4.464-3.917L4.006-3.608L4.055-2.83L4.521-3.098z M5.032-4.273l0.077,0.82l0.495-0.273L5.51-4.584L5.032-4.273z M6.107-4.92
		l0.499-0.28l0.084,0.881L6.188-4.066L6.107-4.92z M4.16-1.726l0.463-0.236l0.058,0.739L4.205-1.002L4.16-1.726z M5.224-2.258
		l0.481-0.237L5.767-1.7L5.274-1.476L5.224-2.258z M6.298-2.784L6.794-3.02l0.054,0.861L6.374-1.958L6.298-2.784z M6.929-0.925
		l0.058,0.871L6.485,0.079l-0.04-0.826L6.929-0.925z M5.867,0.253L5.833-0.545L5.324-0.347L5.35,0.411L5.867,0.253z M4.753,0.598
		L4.731-0.153L4.244,0.027l0.023,0.717L4.753,0.598z M4.28,1.744l0.475-0.105L4.78,2.333L4.295,2.431L4.28,1.744z M5.418,2.204
		l0.478-0.088L5.885,1.364L5.399,1.48L5.418,2.204z M7.041,1.927L7.022,1.111L6.528,1.212L6.541,2L7.041,1.927z M4.753,3.274
		l0.001,0.709L4.28,4.012l0.014-0.665L4.753,3.274z M5.415,3.194l0.01,0.723l0.478-0.034L5.912,3.13L5.415,3.194z M6.553,3.837
		l0.501-0.019L7.05,3.046L6.547,3.088L6.553,3.837z M1.77,0.508l0.391-0.182l0.022,0.601L1.809,1.091L1.77,0.508z M2.541,0.779
		l0.396-0.159L2.902,0.011L2.513,0.179L2.541,0.779z M1.838,1.823l0.394-0.169v0.592L1.838,2.371V1.823z M2.575,1.525L2.939,1.39
		l0.02,0.635L2.584,2.13L2.575,1.525z M1.826,3.01l0.392-0.114v0.55L1.811,3.531L1.826,3.01z M2.589,3.369L2.584,2.811l0.38-0.086
		l0.011,0.576L2.589,3.369z M1.782,4.684l0.384-0.035L2.196,4.11L1.811,4.161L1.782,4.684z M2.522,4.605l0.409-0.034l0.008-0.553
		L2.552,4.078L2.522,4.605z M8.693,4.067l0.513,0.005l0.023-0.771l-0.5,0.017L8.693,4.067z M9.95,4.078l0.513,0.016l0.015-0.798
		L9.953,3.304v0.774H9.95z M9.982,2.139l0.513-0.015l0.001-0.845L9.982,1.322V2.139z M9.227,2.194V1.396L8.709,1.438L8.698,2.221
		L9.227,2.194z M9.929,0.13l0.519-0.065l-0.063-0.874L9.877-0.712L9.929,0.13z M9.203,0.247L9.159-0.574L8.629-0.46l0.049,0.784
		L9.203,0.247z"/>
	<path fill="#926B4B" d="M10.938-1.735l-2.97,0.679L7.955-1.06C7.964-1,8.077,0.396,8.093,1.534C8.106,2.139,8.116,2.518,8.12,2.665
		C8.129,2.811,8.11,3.298,8.082,4.124c-0.013,0.344-0.02,0.53-0.02,0.56c0.812,0.002,2.419,0.187,2.793,0.286l0.104,0.027h0.039
		l0.065-1.283l0.027-1.501c0.017-1.129-0.022-2.273-0.116-3.44l-0.008-0.116L10.96-1.461c-0.006-0.021-0.008-0.058-0.008-0.113
		l-0.015-0.108V-1.735L10.938-1.735z M6.868-6.348C6.839-6.354,6.484-6.108,5.79-5.611C4.979-5.025,4.326-4.527,3.821-4.117
		C3.618-3.951,3.507-3.864,3.482-3.842C3.49-3.824,3.889-0.31,3.887,2.845c0,0.723-0.009,1.285-0.025,1.677
		c0,0.008-0.002,0.156-0.014,0.45c0.622-0.111,1.225-0.185,1.806-0.24C6.117,4.692,6.721,4.671,7.478,4.66
		c0-0.017,0.007-0.172,0.022-0.464c0.034-0.687,0.054-1.215,0.058-1.59C7.559,0.529,7.425-1.711,7.15-4.117
		C6.986-5.605,6.887-6.343,6.868-6.348z M1.416,5.505h0.028l0.104-0.026C2.15,5.315,2.647,5.196,3.04,5.126l0.105-0.028
		c0.024,0,0.05-0.018,0.078-0.052C3.339,3.244,3.2-0.221,3.145-0.713c-0.001,0-0.008,0-0.01-0.005
		C2.504-0.401,1.947-0.097,1.463,0.187c0.041,0.325,0.055,2.272,0.032,3.158C1.463,4.3,1.45,4.832,1.442,4.937
		C1.427,5.251,1.416,5.438,1.416,5.505z M2.509,3.507L2.5,2.711l0.542-0.127l0.014,0.828L2.509,3.507z M3.016,4.678L2.432,4.732
		L2.478,3.98L3.03,3.894L3.016,4.678z M3.04,2.133L2.504,2.286L2.495,1.424l0.521-0.193L3.04,2.133z M2.98-0.151l0.044,0.866
		L2.465,0.941L2.422,0.086L2.98-0.151z M2.31,2.345L1.755,2.523V1.736L2.31,1.501V2.345z M2.306,3.549L1.725,3.666l0.021-0.743
		l0.561-0.16V3.549z M2.243,4.759L1.689,4.808l0.043-0.749l0.551-0.073L2.243,4.759z M2.24,0.16l0.027,0.861L1.732,1.253L1.678,0.42
		L2.24,0.16z M10.602,2.305L9.876,2.323L9.875,1.16l0.729-0.057L10.602,2.305z M10.572,4.26L9.836,4.243V3.131l0.75-0.007
		L10.572,4.26z M9.756-0.87l0.731-0.143l0.083,1.247L9.822,0.331L9.756-0.87z M9.313,4.243L8.575,4.23l0.054-1.069l0.72-0.028
		L9.313,4.243z M9.341,1.222v1.136L8.586,2.403l0.017-1.124L9.341,1.222z M9.267-0.768l0.062,1.173L8.573,0.511L8.501-0.602
		L9.267-0.768z M6.448,4.01L6.439,2.93l0.717-0.056L7.165,3.98L6.448,4.01z M7.126,0.922l0.03,1.161L6.439,2.194L6.415,1.067
		L7.126,0.922z M6.331-0.883l0.694-0.255l0.079,1.243L6.389,0.289L6.331-0.883z M6.178-2.91l0.711-0.339l0.079,1.234L6.291-1.73
		L6.178-2.91z M5.985-5.041l0.707-0.398l0.121,1.26L6.098-3.824L5.985-5.041z M6.007,4.036L5.319,4.083l-0.01-1.032l0.71-0.092
		L6.007,4.036z M5.99,1.179l0.015,1.08l-0.685,0.13l-0.03-1.043L5.99,1.179z M5.212-0.463l0.725-0.283l0.047,1.137L5.246,0.615
		L5.212-0.463z M5.105-2.375L5.79-2.711l0.091,1.135L5.179-1.26L5.105-2.375z M5.023-3.209L4.91-4.378l0.685-0.445l0.126,1.221
		L5.023-3.209z M4.201,2.603L4.174,1.622l0.675-0.147l0.036,0.994L4.201,2.603z M4.179,4.174l0.021-0.951l0.648-0.105l0.007,1.007
		L4.179,4.174z M4.136-0.089l0.695-0.26l0.026,1.075l-0.69,0.213L4.136-0.089z M4.046-1.833l0.662-0.334l0.08,1.052l-0.68,0.319
		L4.046-1.833z M3.966-2.594l-0.07-1.117l0.656-0.442l0.081,1.17L3.966-2.594z"/>
	<path fill="#FFFFFB" d="M18.67,0.924V0.91c0-0.013-1.57-1.666-4.696-4.951c-2.059-2.163-3.348-3.524-3.876-4.095
		C10.089-8.144,9.59-8.667,8.603-9.703c-0.936-0.984-1.413-1.483-1.419-1.491c-0.089,0.09-0.271,0.308-0.548,0.655
		c-0.104,0.127-0.569,0.68-1.39,1.655c-0.09,0.111-0.183,0.221-0.275,0.333C4.646-8.146,3.473-6.739,1.454-4.339
		C1.179-4.007,0.948-3.73,0.767-3.503C0.522-3.198,0.265-2.888,0.004-2.594l-0.07,0.083c-0.166,0.188-0.392,0.462-0.686,0.828
		c-0.03,0.034-0.123,0.143-0.286,0.322c-0.023,0.024-0.092,0.109-0.2,0.251C-1.286-1.053-1.493-0.811-1.87-0.375
		c-0.123,0.142-0.217,0.249-0.278,0.333c-0.093,0.115-0.166,0.19-0.208,0.246l-0.07,0.082c-0.12,0.14-0.26,0.303-0.416,0.497
		c-0.046,0.054-0.091,0.11-0.139,0.164c-0.28,0.318-0.418,0.482-0.418,0.493V1.46c1.147,1.261,1.822,1.986,2.014,2.188
		c0.062,0.056,0.111,0.113,0.148,0.16c0.054,0.066,0.128,0.14,0.229,0.233c0.078,0.076,0.604,0.639,1.563,1.702l0.693-0.192
		C1.261,5.55,1.284,5.04,1.324,4.021c0.007-0.217,0.015-0.448,0.022-0.695V3.21l0.017-0.105c0.016-0.104,0.008-1.1-0.024-2.983
		C1.508,0.011,1.784-0.146,2.15-0.363L2.153-0.55c0.042-0.024,0.165-0.094,0.363-0.218c0.103-0.056,0.351-0.194,0.754-0.415
		c0.148-0.086,0.244-0.141,0.277-0.157C3.544-1.355,3.52-1.659,3.482-2.245C3.473-2.342,3.455-2.53,3.425-2.809
		C3.363-3.368,3.33-3.742,3.327-3.936C3.555-4.111,3.697-4.228,3.77-4.284C4.044-4.514,4.185-4.629,4.21-4.64
		c0-0.019-0.005-0.037-0.006-0.056c0-0.018-0.003-0.035-0.006-0.05v-0.052L4.182-4.904c0.095-0.065,0.376-0.294,0.833-0.693
		c0.853-0.721,2.465-1.93,2.639-2.044C7.83-7.478,8.283-7.01,9.014-6.224c0.091,0.093,0.327,0.368,0.719,0.816L9.8-5.325
		c0.061,0.06,0.291,2.82,0.292,3.03c0.25-0.065,0.678-0.153,1.288-0.264c0.139-0.028,0.206-0.042,0.217-0.043l0.098-0.022
		c0.037-0.01,0.451,0.286,1.247,0.893c0.112,0.083,0.283,0.221,0.509,0.406c0.42,0.349,0.638,0.536,0.661,0.558
		c0.053,0.708,0.069,1.372,0.069,1.991v0.121l0.021,0.102c0.006,0.043-0.053,1.867-0.152,2.71c-0.078,0.715-0.168,1.272-0.262,1.677
		c0.054,0.026,0.086,0.04,0.103,0.034c0.021-0.005,0.19-0.194,0.524-0.551c0.308-0.332,1.014-1.068,2.118-2.21
		C17.909,1.701,18.621,0.97,18.67,0.924z M-2.862,8.486C-2.852,8.488-2.633,8.4-2.204,8.21c0.746-0.316,1.7-0.684,2.865-1.089
		C0.858,7.049,2.91,6.411,4.51,6.264c0.821-0.074,1.676-0.095,2.555-0.07c0.588,0.016,1.2,0.064,1.84,0.147
		c0.868,0.111,1.352,0.192,1.452,0.238l0.091,0.019c0.138,0.008,0.521,0.115,1.169,0.324c0.438,0.146,0.849,0.307,1.207,0.477
		c0.5,0.242,0.871,0.469,1.108,0.676v0.011c-0.005,0-0.005,0-0.014-0.003c-0.015-0.008-0.952-0.474-1.467-0.642
		c-1.098-0.368-3.392-0.89-5.708-0.703c-2.124,0.17-4.218,0.695-6.283,1.569c-1.424,0.606-2.598,1.196-3.526,1.773v0.014
		c0.006,0,0.223-0.104,0.647-0.303c0.399-0.188,0.974-0.437,1.724-0.746C0.286,8.64,0.964,8.387,1.342,8.271
		c1.43-0.414,2.71-0.688,3.847-0.817c3.571-0.412,6.168,0.639,6.604,0.818c0.797,0.332,1.401,0.677,1.813,1.055
		c-0.009-0.003-0.1-0.051-0.288-0.148C11.728,8.311,9.615,7.92,6.998,8.014C5.489,8.068,3.119,8.578,1.01,9.557
		c-1.383,0.64-2.395,1.181-3.038,1.643v0.022c0.002,0.001,0.002,0.001,0.002,0.007c0.026-0.013,0.082-0.049,0.169-0.105
		c0.235-0.156,1.468-0.797,1.749-0.927c1.293-0.606,2.943-1.282,5.499-1.53c3.436-0.336,6.281,0.79,7.008,1.412
		c-0.016-0.006-0.107-0.048-0.282-0.129c-0.579-0.27-0.843-0.367-1.599-0.54C9.986,9.29,9.465,9.211,8.966,9.185
		C8.258,9.14,7.657,9.136,7.176,9.164C6.828,9.179,6.598,9.197,6.485,9.216l-0.09,0.013L6.34,9.22c0,0,0.006-0.003,0.01-0.003
		c-0.01,0-0.011,0-0.018-0.005C6.318,9.22,6.058,9.259,5.556,9.333c-1.077,0.159-2.123,0.463-3.134,0.91
		c-1.216,0.542-2.386,1.224-2.854,1.602l-0.004,0.015c0.017,0.003,0.136-0.058,0.361-0.183c0.868-0.483,1.869-0.895,3.01-1.234
		c1.144-0.346,2.435-0.534,3.881-0.57c0.298-0.004,0.792,0.017,1.47,0.061C8.391,9.941,8.491,9.96,8.595,9.965
		c0.279,0.013,1.513,0.245,2.404,0.73c0.662,0.362,1.162,0.748,1.507,1.165c0.222,0.267,0.359,0.46,0.414,0.584
		c0.021,0,1.143-1.031,3.359-3.099c0.314-0.287,0.489-0.452,0.521-0.485c-0.245-0.288-1.164-1.152-2.388-1.815
		c-0.411-0.227-0.774-0.396-1.083-0.523c-0.056-0.026-0.085-0.039-0.093-0.04c-0.061-0.028-0.112-0.045-0.145-0.054
		c-0.053-0.011-0.082-0.026-0.102-0.048l-0.027,0.004l-0.083-0.031c-0.376-0.135-2.822-0.864-4.754-0.855
		C5.58,5.511,3.357,5.864,1.462,6.559C0.023,7.085-1.07,7.54-1.828,7.92C-2.546,8.294-2.896,8.479-2.862,8.486z"/>
</g>
</svg>
